<svg width="350" height="184" viewBox="0 0 350 184" fill="none" xmlns="http://www.w3.org/2000/svg">
<path d="M347.836 30.1537C347.836 30.1537 343.621 27.582 338.961 37.6068C334.302 47.6315 332.603 53.3852 332.603 53.3852C332.603 53.3852 331.347 55.493 329.885 54.1971C328.422 52.9011 326.355 49.1544 323.954 49.9209C321.484 50.7227 320.762 53.5415 321.388 57.621C322.013 61.7005 323.047 70.6865 323.143 71.4984C323.238 72.3102 322.815 73.5154 321.675 72.7691C320.536 72.0228 313.879 65.1497 310.793 68.503C307.707 71.8564 311.297 82.9351 311.691 84.1352C312.084 85.3354 311.837 85.885 311.262 86.2128C310.687 86.5406 308.67 84.0092 306.724 82.1232C304.777 80.2373 302.13 78.4017 300.516 80.4843C298.903 82.567 298.661 90.9882 307.147 104.341L311.484 110.271L318.831 109.596C334.463 107.195 340.646 101.477 341.15 98.89C341.654 96.3031 338.548 95.5366 335.835 95.2946C333.122 95.0525 329.885 95.1887 329.753 94.5432C329.622 93.8978 329.874 93.3784 331.039 92.859C332.204 92.3396 342.91 87.7609 343.409 83.2275C343.908 78.6942 334.332 78.2303 333.036 77.847C331.74 77.4638 332.366 76.3645 333.036 75.9056C333.707 75.4467 341.16 70.3083 344.634 68.0946C348.109 65.8809 349.712 63.4957 348.704 61.1055C347.695 58.801 343.525 59.7087 341.584 59.4565C339.642 59.2044 340.409 56.8747 340.409 56.8747C340.409 56.8747 343.621 51.8321 348.099 41.7115C352.576 31.5909 347.741 30.1134 347.741 30.1134" fill="#F5F5F5"/>
<path d="M343.661 39.1246C343.661 39.1246 343.636 39.2002 343.575 39.3414C343.515 39.4826 343.424 39.7045 343.313 39.9717L342.274 42.367C341.367 44.4496 340.035 47.455 338.376 51.1614C335.058 58.574 330.389 68.7703 325.195 80.0154C320.001 91.2604 315.291 101.457 311.933 108.854L307.964 117.613L306.885 119.993C306.759 120.256 306.663 120.462 306.598 120.609C306.566 120.679 306.531 120.748 306.492 120.815C306.514 120.741 306.541 120.669 306.572 120.599C306.638 120.447 306.724 120.241 306.835 119.973C307.077 119.414 307.43 118.607 307.873 117.573C308.781 115.49 310.112 112.49 311.771 108.784C315.089 101.371 319.759 91.1747 324.953 79.9246C330.147 68.6745 334.841 58.4883 338.2 51.0958C339.874 47.4096 341.225 44.4193 342.168 42.3418L343.253 39.9617C343.374 39.6944 343.469 39.4927 343.54 39.3414C343.611 39.1901 343.661 39.1246 343.661 39.1246Z" fill="#E0E0E0"/>
<path d="M326.652 55.2863C326.743 55.4446 326.812 55.6141 326.859 55.7905C326.98 56.1082 327.136 56.5772 327.328 57.1571C327.701 58.3219 328.18 59.9356 328.674 61.7308L329.92 66.3296C330.071 66.8793 330.197 67.3382 330.303 67.7214C330.364 67.8835 330.403 68.0531 330.419 68.2257C330.328 68.0673 330.259 67.8978 330.212 67.7214C330.091 67.4037 329.935 66.9348 329.748 66.3498C329.385 65.185 328.926 63.5612 328.432 61.766L327.157 57.1772L326.768 55.7905C326.711 55.6274 326.672 55.4582 326.652 55.2863Z" fill="#E0E0E0"/>
<path d="M331.1 68.3316C331.1 68.266 334.367 67.1314 338.447 65.8102C342.526 64.4891 345.855 63.4452 345.875 63.5108C345.895 63.5764 342.607 64.7109 338.528 66.0321C334.448 67.3533 331.12 68.3971 331.1 68.3316Z" fill="#E0E0E0"/>
<path d="M322.341 85.2446C322.52 85.2109 322.703 85.1957 322.885 85.1992L324.358 85.1488C325.598 85.1034 327.318 85.0379 329.209 84.8916C331.1 84.7454 332.809 84.5739 334.05 84.4328L335.512 84.2663C335.692 84.2329 335.875 84.2227 336.057 84.2361C335.893 84.2954 335.724 84.3376 335.552 84.3621C335.21 84.4277 334.71 84.5134 334.095 84.6042C332.865 84.7908 331.15 85.0026 329.254 85.1438C327.358 85.285 325.634 85.3253 324.383 85.3203C323.763 85.3203 323.259 85.3203 322.911 85.295C322.719 85.3044 322.527 85.2874 322.341 85.2446Z" fill="#E0E0E0"/>
<path d="M315.725 74.3323C315.842 74.4522 315.943 74.586 316.027 74.7307C316.209 74.9929 316.471 75.3812 316.784 75.8653C317.414 76.8284 318.266 78.1698 319.194 79.6573C320.122 81.1449 320.954 82.5014 321.544 83.4897C321.842 83.994 322.073 84.3873 322.23 84.6697C322.325 84.8085 322.402 84.9594 322.457 85.1185C322.335 85.0014 322.232 84.8672 322.149 84.7202C321.968 84.4529 321.71 84.0697 321.393 83.5856C320.767 82.6224 319.915 81.2811 318.982 79.7884C318.049 78.2958 317.222 76.9444 316.632 75.956C316.34 75.4518 316.128 75.0584 315.947 74.7811C315.855 74.641 315.78 74.4903 315.725 74.3323Z" fill="#E0E0E0"/>
<path d="M306.093 88.2802C306.24 88.434 306.371 88.6031 306.482 88.7845L307.455 90.2368C308.262 91.4672 309.371 93.1766 310.581 95.0727C311.792 96.9687 312.876 98.6983 313.647 99.954L314.555 101.467C314.672 101.646 314.774 101.835 314.857 102.032C314.711 101.877 314.581 101.708 314.469 101.527L313.501 100.075C312.689 98.8395 311.58 97.1301 310.37 95.2341C309.159 93.338 308.08 91.6084 307.304 90.3528C306.941 89.7577 306.638 89.2535 306.401 88.84C306.279 88.6648 306.176 88.4772 306.093 88.2802Z" fill="#E0E0E0"/>
<path d="M314.742 101.638C314.965 101.587 315.193 101.56 315.422 101.558L317.288 101.426C318.861 101.315 321.04 101.154 323.435 100.922C325.83 100.69 327.973 100.418 329.562 100.201L331.412 99.954C331.639 99.9132 331.868 99.893 332.098 99.8935C331.881 99.9681 331.656 100.02 331.428 100.05C330.994 100.136 330.364 100.246 329.587 100.373C328.024 100.63 325.861 100.932 323.46 101.174C321.06 101.416 318.876 101.552 317.298 101.618C316.506 101.648 315.871 101.668 315.427 101.668C315.198 101.678 314.969 101.668 314.742 101.638Z" fill="#E0E0E0"/>
<path d="M47.5521 79.8237C59.3165 71.9724 62.1757 57.1319 61.9387 43.7235C61.8933 41.4845 62.1808 39.1347 61.1319 37.168C60.083 35.2014 57.602 33.8096 55.5497 34.7224C53.8604 35.4788 53.0939 37.4 52.1308 38.9834C50.8318 41.0989 48.9638 42.8062 46.7402 43.9101C45.2879 44.6261 43.4978 45.0497 42.0858 44.2529C40.1495 43.1637 39.9578 40.4962 40.0083 38.2724L40.2806 25.8473C40.326 23.6235 40.3713 21.3543 39.7007 19.2314C39.03 17.1084 37.5172 15.1317 35.3842 14.5064C33.2511 13.8811 30.5836 15.0611 30.0944 17.2294C29.8927 18.1321 30.0642 19.075 29.9885 19.9978C29.9129 20.9206 29.4843 21.9342 28.5665 22.1763C27.6488 22.4183 26.7764 21.7779 26.1107 21.1224C23.8214 18.838 22.2884 15.9284 20.8614 13.0541C19.4343 10.1798 18.0425 7.18953 15.975 4.7136C13.9076 2.23766 11.0131 0.250856 7.79083 0.0188949C4.56858 -0.213067 1.10429 1.70818 0.226866 4.81949C-0.650554 7.9308 1.1648 11.148 3.14151 13.7147C6.08494 17.5169 9.56151 20.8746 13.4638 23.684C14.1698 24.1883 14.9262 24.7379 15.1884 25.5649C15.6523 27.0777 14.2101 28.5048 12.7175 28.9737C11.0282 29.478 9.18764 29.3015 7.45297 29.478C5.7183 29.6545 3.77689 30.3907 3.08604 31.9993C2.13298 34.2584 4.01893 36.6688 5.88975 38.2572C9.63771 41.4389 13.9011 43.9577 18.4964 45.7052C20.1453 46.3305 21.88 46.8802 23.1961 48.0501C24.5122 49.2199 25.2938 51.2269 24.4618 52.7801C23.6298 54.3332 21.5472 54.7971 19.8175 54.4643C18.0879 54.1315 16.5499 53.1683 14.906 52.5279C11.8249 51.3278 7.8463 51.479 5.80403 54.0911C4.47277 55.8056 4.32149 58.2211 4.94678 60.2986C5.57207 62.3762 6.88315 64.1764 8.27492 65.8456C13.1461 71.6648 19.4292 76.3847 26.5696 78.9564C33.71 81.5282 40.3512 82.2846 47.5268 79.8137" fill="#EBEBEB"/>
<path d="M46.6494 80.0809C44.7584 73.2986 39.5897 57.3386 36.4885 49.8251L34.184 44.2782C33.4226 42.4578 32.6712 40.6576 31.819 38.938C30.1815 35.6465 28.3634 32.4479 26.373 29.357C24.487 26.3818 22.591 23.6286 20.8261 21.0619C19.0611 18.4952 17.2962 16.1503 15.6422 14.0677C13.034 10.7677 10.1674 7.68026 7.06974 4.83464C5.97549 3.82611 5.10311 3.06972 4.50304 2.56545L3.78698 1.95025C3.63066 1.82418 3.54494 1.76367 3.54494 1.76367C3.54494 1.76367 3.61553 1.83931 3.76177 1.97547L4.4274 2.5705C5.0073 3.07476 5.8696 3.86141 6.94872 4.88507C9.99989 7.76424 12.8317 10.8674 15.4204 14.1686C17.0643 16.2562 18.7687 18.6162 20.5588 21.1778C22.349 23.7395 24.2248 26.5029 26.1057 29.473C28.0836 32.565 29.8899 35.7635 31.5165 39.054C32.3586 40.7685 33.11 42.5839 33.8714 44.3841C34.6328 46.1843 35.3842 48.0602 36.1759 49.931C39.2569 57.4344 44.4408 73.3793 46.3469 80.1414" fill="#E0E0E0"/>
<path d="M31.7131 38.9027C31.8175 38.5946 31.8918 38.2771 31.935 37.9547C32.056 37.3395 32.2073 36.4419 32.3788 35.3426C32.7267 33.1339 33.1049 30.068 33.5134 26.6844C33.9218 23.3008 34.3504 20.25 34.7438 18.0514C34.9354 16.9521 35.1018 16.0646 35.248 15.4544C35.3269 15.14 35.3792 14.8195 35.4043 14.4963C35.2809 14.7959 35.1864 15.1066 35.122 15.4242C34.9555 16.0293 34.7538 16.937 34.532 18.0111C34.0428 20.1996 33.589 23.2605 33.1805 26.6592C32.7721 30.0579 32.4191 33.0482 32.1468 35.3275C32.0106 36.3865 31.8947 37.2689 31.8039 37.9497C31.7468 38.2642 31.7164 38.583 31.7131 38.9027Z" fill="#E0E0E0"/>
<path d="M2.83894 33.1289C2.93524 33.1596 3.0354 33.1766 3.13645 33.1793L3.9937 33.265C4.74001 33.3407 5.8141 33.4415 7.13527 33.6079C9.78265 33.9206 13.4285 34.4904 17.4223 35.2922C21.416 36.094 24.9862 36.9966 27.558 37.7177C28.8438 38.0707 29.8776 38.3833 30.5836 38.5951L31.4105 38.8372C31.5042 38.8734 31.6028 38.8955 31.703 38.9027C31.619 38.8473 31.5273 38.8048 31.4307 38.7766C31.2088 38.6909 30.9265 38.5901 30.6239 38.4741C29.923 38.2219 28.8943 37.869 27.5983 37.4656C25.0417 36.6839 21.4614 35.7511 17.4626 34.9442C13.4638 34.1374 9.83812 33.6281 7.16048 33.3709C5.83427 33.2348 4.7501 33.1692 4.00379 33.139H3.1415C3.04146 33.123 2.93981 33.1196 2.83894 33.1289Z" fill="#E0E0E0"/>
<path d="M43.8356 70.8479C43.9126 70.7387 43.9784 70.6221 44.0323 70.4999L44.5366 69.4914C44.9702 68.5938 45.5451 67.2827 46.2914 65.6539C47.7336 62.4014 49.5843 57.8429 51.566 52.7902C53.5478 47.7374 55.3581 43.1486 56.7347 39.8709L58.3887 35.9982C58.5702 35.5645 58.7215 35.2165 58.8375 34.9442C58.8947 34.8227 58.9403 34.6961 58.9737 34.566C58.8922 34.6723 58.826 34.7894 58.777 34.914L58.2727 35.9225C57.8391 36.8201 57.239 38.1312 56.5229 39.7549C55.0807 43.0125 53.225 47.571 51.2483 52.6237C49.2716 57.6765 47.4512 62.2451 46.0645 65.5228L44.4105 69.3956L43.9668 70.4495C43.9069 70.5764 43.8629 70.7102 43.8356 70.8479Z" fill="#E0E0E0"/>
<path d="M5.54686 58.0345C5.6675 58.0975 5.79421 58.1482 5.92506 58.1858L7.03948 58.564L11.1442 59.9406C14.6085 61.1004 19.3738 62.7594 24.6333 64.605C29.8927 66.4507 34.6782 68.0744 38.1627 69.1787C39.9024 69.7284 41.3194 70.162 42.2976 70.4444L43.4322 70.7621C43.5631 70.8065 43.6983 70.8369 43.8356 70.8529C43.7132 70.7886 43.5849 70.7362 43.4524 70.6966L42.338 70.3184L38.2333 68.9518C34.769 67.792 30.0037 66.133 24.7442 64.2874C19.4847 62.4418 14.7043 60.813 11.2198 59.7137C9.47508 59.164 8.06314 58.7304 7.07982 58.448L5.95027 58.1252C5.81909 58.0819 5.68397 58.0515 5.54686 58.0345Z" fill="#E0E0E0"/>
<path d="M241.174 2.13681H304.747L292.312 10.9766V18.359C292.284 22.0065 290.808 25.4937 288.21 28.0535C285.611 30.6133 282.102 32.0363 278.455 32.0094H238.562C234.915 32.0363 231.406 30.6133 228.807 28.0535C226.209 25.4937 224.733 22.0065 224.705 18.359C224.721 16.2123 225.16 14.0898 225.996 12.1127C226.832 10.1356 228.05 8.34257 229.579 6.83612C231.109 5.32967 232.92 4.13929 234.909 3.33297C236.899 2.52665 239.028 2.12019 241.174 2.13681Z" fill="#F5F5F5"/>
<path d="M281.586 12.0053C281.586 12.0759 270.997 12.1364 257.886 12.1364C244.775 12.1364 234.185 12.0759 234.185 12.0053C234.185 11.9347 244.775 11.8741 257.886 11.8741C270.997 11.8741 281.586 11.9296 281.586 12.0053Z" fill="#E0E0E0"/>
<path d="M281.586 16.9168C281.586 16.9874 270.997 17.0479 257.886 17.0479C244.775 17.0479 234.185 16.9874 234.185 16.9168C234.185 16.8462 244.775 16.7857 257.886 16.7857C270.997 16.7857 281.586 16.8411 281.586 16.9168Z" fill="#E0E0E0"/>
<path d="M144.724 153.441H69.4977L81.7513 162.306V179.703C81.7513 180.181 81.8454 180.653 82.0281 181.094C82.2109 181.535 82.4788 181.935 82.8165 182.272C83.1541 182.61 83.555 182.877 83.9961 183.059C84.4371 183.241 84.9098 183.335 85.387 183.334H144.724C145.201 183.335 145.674 183.241 146.115 183.059C146.556 182.877 146.957 182.61 147.294 182.272C147.632 181.935 147.9 181.535 148.083 181.094C148.265 180.653 148.36 180.181 148.36 179.703V157.072C148.358 156.109 147.975 155.185 147.293 154.504C146.611 153.824 145.687 153.441 144.724 153.441Z" fill="#F5F5F5"/>
<path d="M141.587 165.735C141.587 165.811 130.241 165.866 116.248 165.866C102.255 165.866 90.9087 165.811 90.9087 165.735C90.9087 165.66 102.25 165.604 116.248 165.604C130.246 165.604 141.587 165.665 141.587 165.735Z" fill="#E0E0E0"/>
<path d="M141.587 172.417C141.587 172.487 130.241 172.548 116.248 172.548C102.255 172.548 90.9087 172.487 90.9087 172.417C90.9087 172.346 102.25 172.286 116.248 172.286C130.246 172.286 141.587 172.346 141.587 172.417Z" fill="#E0E0E0"/>
<path d="M298.318 67.7063H210.278C199.475 67.7063 190.718 76.4638 190.718 87.2667V158.923C190.718 169.726 199.475 178.483 210.278 178.483H298.318C309.121 178.483 317.878 169.726 317.878 158.923V87.2667C317.878 76.4638 309.121 67.7063 298.318 67.7063Z" fill="#AB0000"/>
<path d="M298.318 67.7063H210.278C199.475 67.7063 190.718 76.4638 190.718 87.2667V158.923C190.718 169.726 199.475 178.483 210.278 178.483H298.318C309.121 178.483 317.878 169.726 317.878 158.923V87.2667C317.878 76.4638 309.121 67.7063 298.318 67.7063Z" fill="#AB0000"/>
<path d="M317.843 106.323H336.889L317.414 125.803L317.843 106.323Z" fill="#DF8F31"/>
<path d="M317.843 106.323H336.889L317.414 125.803L317.843 106.323Z" fill="#AB0000"/>
<path d="M187.672 118.299L179.689 109.222C177.531 107.064 176.79 106.025 177.224 105.647C177.798 105.143 177.551 105.309 182.034 108.673C182.034 108.673 175.681 103.817 177.884 103.786C178.272 103.786 179.352 104.412 180.506 105.168C178.933 103.832 178.489 102.929 178.797 102.5C179.301 101.754 183.194 104.452 184.984 105.748C183.522 104.659 180.733 102.546 180.244 101.88C179.568 100.973 180.935 101.048 182.044 101.426C183.29 101.85 190.173 105.365 192.21 106.272C192.374 106.37 192.556 106.431 192.745 106.451C192.934 106.471 193.126 106.45 193.306 106.389C193.486 106.328 193.651 106.229 193.789 106.098C193.927 105.968 194.036 105.809 194.106 105.632C194.858 102.475 197.132 100.423 197.999 100.156C198.867 99.8884 199.537 100.998 198.917 101.805C198.334 102.743 197.882 103.758 197.576 104.82C197.295 105.653 197.157 106.528 197.167 107.407C197.167 108.416 197.238 109.288 197.303 110.019L204.6 120.029L192.397 127.088L187.672 118.299Z" fill="#FFBE9D"/>
<path d="M184.818 110.085C184.737 110.196 183.305 109.222 181.651 107.906C179.997 106.59 178.706 105.43 178.802 105.324C178.898 105.219 180.315 106.197 181.969 107.503C183.623 108.809 184.888 109.969 184.818 110.085Z" fill="#AA6550"/>
<path d="M186.361 108.491C186.28 108.607 184.712 107.649 182.856 106.358C181.001 105.067 179.558 103.923 179.639 103.812C179.72 103.701 181.288 104.649 183.144 105.94C184.999 107.23 186.442 108.375 186.361 108.491Z" fill="#AA6550"/>
<path d="M187.49 106.797C187.41 106.913 185.907 106.035 184.137 104.835C182.367 103.635 180.996 102.571 181.071 102.45C181.147 102.329 182.649 103.212 184.424 104.412C186.2 105.612 187.566 106.681 187.49 106.797Z" fill="#AA6550"/>
<path d="M197.984 111.376L227.07 148.257L220.409 163.764C220.409 163.764 212.431 161.999 210.011 158.64C207.59 155.282 187.672 118.299 187.672 118.299L197.984 111.376Z" fill="#EB996E"/>
<path d="M271.819 59.7793C273.911 61.5946 273.906 64.7917 273.664 67.55C273.422 70.3083 273.236 73.4499 275.147 75.4568C276.725 77.1108 279.584 77.8319 279.947 80.086C280.033 80.6156 279.953 81.1589 279.718 81.6411C279.483 82.1233 279.104 82.5208 278.633 82.7789C278.163 83.037 277.624 83.1431 277.091 83.0826C276.558 83.0221 276.057 82.7979 275.656 82.4409C276.271 84.221 275.848 86.4448 274.305 87.5239C272.762 88.603 270.175 87.9374 269.696 86.117C269.774 86.4209 269.789 86.7377 269.739 87.0476C269.69 87.3576 269.577 87.654 269.408 87.9184C269.239 88.1828 269.017 88.4095 268.756 88.5844C268.496 88.7593 268.202 88.8786 267.893 88.9349C267.584 88.9911 267.267 88.9832 266.962 88.9114C266.656 88.8397 266.369 88.7058 266.117 88.5181C265.866 88.3303 265.656 88.0928 265.5 87.8202C265.344 87.5476 265.247 87.2459 265.213 86.9339" fill="#263238"/>
<path d="M241.85 78.3967C241.569 79.0721 241.03 79.608 240.354 79.8865C239.677 80.165 238.917 80.1633 238.242 79.8817C237.567 79.6002 237.031 79.0619 236.752 78.3853C236.474 77.7087 236.476 76.9491 236.757 76.2737C237.236 75.2249 238.371 74.4685 238.482 73.3187C238.613 71.932 237.196 70.9386 235.96 70.3335C234.725 69.7284 233.232 68.9417 233.096 67.55C232.96 66.1582 234.165 65.1648 235.169 64.2672C236.172 63.3696 237.186 61.9778 236.545 60.7827C236.228 60.1675 235.567 59.8196 235.138 59.2699C234.195 58.0698 234.69 56.1586 235.895 55.2358C237.1 54.313 238.764 54.1668 240.267 54.4341C241.769 54.7013 243.181 55.3266 244.644 55.7653C247.068 56.4702 249.612 56.6648 252.115 56.3367C254.618 56.0086 257.026 55.165 259.187 53.8592" fill="#263238"/>
<path d="M250.781 110.917C253.386 111.442 256.093 110.923 258.319 109.47C260.544 108.017 262.109 105.748 262.676 103.151L269.832 70.3436C270.278 68.4492 270.341 66.4844 270.015 64.5656C269.689 62.6467 268.981 60.8126 267.934 59.1719C266.887 57.5311 265.522 56.1169 263.919 55.013C262.316 53.9091 260.508 53.1378 258.602 52.7448L257.855 52.6338C254.21 52.0979 250.497 52.955 247.455 55.0343C244.413 57.1136 242.266 60.2625 241.442 63.8537C239.848 70.7773 238.179 78.4471 237.675 82.214C236.631 90.0149 244.23 92.3648 244.23 92.3648L242.864 98.9202C242.593 100.226 242.583 101.573 242.834 102.883C243.085 104.193 243.592 105.441 244.327 106.554C245.062 107.668 246.009 108.625 247.115 109.371C248.221 110.117 249.463 110.637 250.771 110.902L250.781 110.917Z" fill="#FFBE9D"/>
<path d="M242.843 69.0174C242.799 69.3069 242.869 69.6023 243.038 69.8412C243.208 70.0802 243.463 70.244 243.751 70.2982C243.891 70.33 244.035 70.3336 244.176 70.3088C244.317 70.284 244.451 70.2313 244.572 70.1538C244.692 70.0763 244.795 69.9755 244.876 69.8574C244.957 69.7394 245.013 69.6063 245.042 69.4662C245.089 69.177 245.021 68.881 244.852 68.6415C244.683 68.402 244.428 68.2383 244.139 68.1853C244 68.1535 243.855 68.1499 243.714 68.1746C243.572 68.1994 243.438 68.252 243.317 68.3295C243.196 68.4069 243.092 68.5077 243.011 68.6258C242.93 68.7439 242.873 68.877 242.843 69.0174Z" fill="#263238"/>
<path d="M242.556 67.908C242.672 68.0744 243.605 67.5701 244.805 67.7517C246.005 67.9332 246.787 68.6543 246.938 68.5282C247.014 68.4728 246.908 68.1904 246.57 67.8576C246.105 67.423 245.516 67.1429 244.886 67.0558C244.264 66.9619 243.628 67.0678 243.07 67.3583C242.662 67.5903 242.501 67.8323 242.556 67.908Z" fill="#263238"/>
<path d="M254.537 70.9336C254.492 71.2233 254.561 71.5193 254.731 71.7586C254.9 71.9979 255.157 72.1614 255.445 72.2144C255.585 72.2461 255.73 72.2495 255.871 72.2244C256.012 72.1993 256.147 72.1462 256.267 72.0681C256.387 71.9901 256.491 71.8888 256.571 71.7702C256.652 71.6515 256.708 71.5179 256.736 71.3773C256.781 71.0882 256.712 70.7928 256.542 70.5544C256.373 70.3159 256.116 70.1534 255.828 70.1015C255.689 70.069 255.544 70.0649 255.403 70.0894C255.262 70.1139 255.127 70.1665 255.007 70.2441C254.886 70.3218 254.783 70.4228 254.702 70.5412C254.621 70.6597 254.565 70.7931 254.537 70.9336Z" fill="#263238"/>
<path d="M254.285 69.8545C254.401 70.0158 255.334 69.5166 256.529 69.6981C257.724 69.8797 258.516 70.6008 258.667 70.4747C258.738 70.4192 258.637 70.1368 258.294 69.804C257.829 69.3694 257.241 69.0894 256.61 69.0023C255.988 68.9084 255.352 69.0143 254.795 69.3048C254.406 69.5216 254.225 69.7788 254.285 69.8545Z" fill="#263238"/>
<path d="M248.643 78.0941C248.643 78.0235 247.932 77.7865 246.752 77.4588C246.449 77.3831 246.172 77.2772 246.151 77.0604C246.172 76.7428 246.288 76.4387 246.484 76.188C246.884 75.4921 247.3 74.7609 247.73 73.9945C249.47 70.863 250.755 68.2761 250.649 68.2055C250.544 68.1349 249.011 70.6159 247.271 73.7524L246.061 75.9611C245.816 76.3039 245.699 76.7211 245.728 77.1411C245.759 77.2525 245.814 77.3556 245.89 77.4428C245.966 77.5301 246.061 77.5992 246.167 77.6453C246.328 77.7145 246.497 77.7636 246.671 77.7916C247.313 77.9739 247.975 78.0755 248.643 78.0941Z" fill="#263238"/>
<path d="M254.658 65.1194C254.729 65.4623 255.949 65.4825 257.326 65.8556C258.703 66.2288 259.782 66.7784 260.014 66.5162C260.115 66.3902 259.963 66.0523 259.555 65.6741C259.001 65.198 258.345 64.8547 257.638 64.6703C256.931 64.4859 256.191 64.4653 255.475 64.6101C254.911 64.7412 254.633 64.9833 254.658 65.1194Z" fill="#263238"/>
<path d="M243.504 64.5092C243.676 64.8118 244.513 64.6504 245.521 64.7816C246.53 64.9127 247.326 65.2354 247.538 64.9782C247.644 64.8521 247.538 64.5597 247.226 64.247C246.778 63.8666 246.227 63.628 245.643 63.5615C245.06 63.4951 244.47 63.6038 243.948 63.8739C243.585 64.1008 243.428 64.363 243.504 64.5092Z" fill="#263238"/>
<path d="M262.631 60.5659L262.666 60.6063C263.765 61.7657 264.372 63.3054 264.36 64.9026V65.0589C264.36 67.3281 263.952 69.5973 263.957 71.8413C263.962 74.0852 264.396 76.4754 265.813 78.2404C266.393 78.9716 267.522 79.5767 268.183 78.9211C268.415 78.6423 268.564 78.303 268.611 77.9429C269.812 72.643 271.97 68.1047 272.782 62.4972C272.894 61.7466 272.826 60.98 272.583 60.2608C272.34 59.5417 271.93 58.8909 271.385 58.3623C270.336 57.3537 269.03 56.2645 267.633 56.6932C266.236 57.1218 264.194 59.3153 263.029 60.223" fill="#263238"/>
<path d="M266.69 73.4801C266.831 73.4398 272.272 72.6783 271.319 77.9781C270.366 83.278 265.268 81.2306 265.268 81.0743C265.268 80.918 266.69 73.4801 266.69 73.4801Z" fill="#FFBE9D"/>
<path d="M267.245 79.3598C267.245 79.3598 267.326 79.4405 267.467 79.5363C267.67 79.671 267.918 79.7216 268.158 79.6775C268.753 79.5716 269.383 78.7698 269.58 77.8168C269.681 77.3669 269.681 76.9001 269.58 76.4502C269.559 76.2759 269.496 76.1092 269.397 75.9643C269.298 75.8194 269.165 75.7007 269.01 75.6182C268.909 75.5706 268.794 75.5602 268.686 75.5888C268.578 75.6174 268.484 75.6831 268.42 75.7745C268.324 75.9056 268.339 76.0216 268.309 76.0216C268.279 76.0216 268.213 75.9157 268.309 75.7039C268.361 75.5783 268.456 75.4749 268.576 75.4114C268.741 75.3271 268.933 75.3108 269.111 75.3661C269.322 75.4501 269.508 75.587 269.651 75.7636C269.794 75.9402 269.889 76.1506 269.928 76.3746C270.067 76.8671 270.086 77.386 269.983 77.8874C269.756 78.9514 269.03 79.849 268.228 79.9347C268.078 79.9506 267.926 79.9326 267.784 79.8819C267.642 79.8313 267.513 79.7494 267.406 79.6422C267.23 79.4859 267.225 79.3649 267.245 79.3598Z" fill="#AA6550"/>
<path d="M267.694 57.5453C269.317 55.6039 266.181 52.0236 263.66 50.8084C261.138 49.5931 257.508 50.3697 254.764 50.8537C253.035 51.1613 251.28 51.6858 249.555 51.358C248.411 51.0716 247.316 50.6143 246.308 50.0015C245.297 49.3998 244.175 49.0071 243.01 48.8468C242.424 48.7747 241.829 48.8638 241.29 49.1046C240.75 49.3454 240.287 49.7287 239.949 50.2133C239.349 51.2219 239.767 52.8002 240.897 53.128C240.557 52.8696 240.159 52.6976 239.737 52.6268C239.316 52.556 238.883 52.5885 238.477 52.7215C238.071 52.8545 237.703 53.0841 237.405 53.3905C237.107 53.6969 236.888 54.071 236.766 54.4808C236.645 54.8905 236.624 55.3236 236.707 55.743C236.789 56.1623 236.972 56.5554 237.24 56.8885C237.508 57.2215 237.853 57.4847 238.245 57.6553C238.636 57.8259 239.064 57.8989 239.49 57.8681C238.819 57.1823 237.518 57.9639 237.473 58.922C237.428 59.8801 238.184 60.6919 238.986 61.2012C241.058 62.5022 243.691 62.5678 246.101 62.1341C248.511 61.7005 250.821 60.8029 253.221 60.3087C255.622 59.8145 259.651 58.8766 261.819 60.0213C263.412 60.8583 264.29 63.0469 265.303 62.7493C265.783 62.5725 266.216 62.2863 266.566 61.9135C266.916 61.5406 267.174 61.0913 267.32 60.6012C267.594 59.6171 267.708 58.5957 267.658 57.5756" fill="#263238"/>
<path d="M278.066 82.1282C278.166 82.1055 278.26 82.0645 278.344 82.0072C278.593 81.847 278.792 81.6198 278.919 81.3517C279.114 80.9226 279.174 80.4441 279.09 79.9801C278.959 79.3699 278.625 78.8223 278.142 78.4269C277.569 77.9552 276.924 77.5789 276.231 77.3125C275.452 77.0283 274.704 76.6668 273.997 76.2334C273.256 75.713 272.692 74.9796 272.378 74.1306C272.034 73.2164 271.874 72.2428 271.909 71.2664C271.96 69.2493 272.519 67.3583 272.656 65.5783C272.792 63.7982 272.565 62.1291 271.808 60.9744C271.24 60.0457 270.338 59.3692 269.287 59.0834C269.005 59.0124 268.715 58.9835 268.425 58.9976C268.324 58.9993 268.224 59.0145 268.127 59.043C268.51 59.0405 268.891 59.088 269.262 59.1842C270.261 59.5001 271.108 60.1734 271.642 61.0752C272.343 62.1947 272.585 63.8184 272.409 65.5581C272.232 67.2978 271.692 69.1888 271.632 71.2613C271.6 72.2735 271.771 73.2818 272.136 74.2264C272.474 75.1234 273.077 75.8958 273.866 76.4401C274.59 76.8747 275.355 77.2362 276.15 77.5193C276.825 77.7694 277.456 78.1233 278.021 78.5681C278.482 78.9326 278.808 79.44 278.949 80.0103C279.041 80.4446 278.999 80.8966 278.828 81.3063C278.672 81.657 278.404 81.946 278.066 82.1282Z" fill="#455A64"/>
<path d="M240.726 53.0019C240.655 52.9489 240.577 52.9064 240.494 52.8759C240.399 52.8294 240.302 52.7906 240.201 52.7599C240.062 52.7121 239.918 52.6767 239.773 52.654C239.294 52.5785 238.805 52.6129 238.342 52.7544C237.879 52.8959 237.454 53.1409 237.1 53.4709C236.741 53.9082 236.472 54.4124 236.31 54.9542C236.147 55.4961 236.093 56.0649 236.152 56.6276C236.22 57.3265 236.427 58.0048 236.761 58.6224C237.095 59.2399 237.55 59.7842 238.098 60.223C239.359 61.2383 240.893 61.8546 242.506 61.993C244.257 62.1435 246.02 62.0365 247.74 61.6753C250.467 61.141 253.079 60.1305 255.455 58.69C256.474 58.0599 257.539 57.5086 258.642 57.0411C259.604 56.6507 260.63 56.4404 261.668 56.4208C263.178 56.3881 264.673 56.7349 266.014 57.4294C266.499 57.7008 266.969 57.9988 267.421 58.3219C267.018 57.9252 266.561 57.5859 266.065 57.3134C264.72 56.5638 263.203 56.1763 261.663 56.1889C260.599 56.197 259.546 56.4004 258.556 56.7889C257.442 57.256 256.365 57.8072 255.334 58.4379C252.974 59.8485 250.388 60.8398 247.689 61.3677C245.995 61.7266 244.257 61.837 242.531 61.6954C240.968 61.5658 239.478 60.9762 238.25 60.0011C237.721 59.5834 237.281 59.0646 236.956 58.475C236.63 57.8854 236.426 57.2367 236.354 56.5671C236.292 56.0305 236.337 55.487 236.486 54.9678C236.635 54.4487 236.884 53.9639 237.221 53.5415C237.557 53.2206 237.961 52.9785 238.402 52.8328C238.843 52.6872 239.311 52.6416 239.773 52.6994C240.099 52.7708 240.418 52.8721 240.726 53.0019Z" fill="#455A64"/>
<path d="M243.676 48.5896C243.657 48.9948 243.721 49.3995 243.862 49.7797C244.256 50.8305 244.991 51.7185 245.95 52.301C246.594 52.7208 247.31 53.0183 248.063 53.1784C248.925 53.3522 249.809 53.3981 250.685 53.3146C252.535 53.1784 254.472 52.5431 256.504 52.0186C258.536 51.4942 260.568 51.2168 262.323 51.6858C263.881 52.0985 265.266 52.9977 266.277 54.2525C266.972 55.0859 267.487 56.0543 267.789 57.0966C267.991 57.8378 268.016 58.2715 268.052 58.2665C268.058 58.1623 268.058 58.0579 268.052 57.9538C268.024 57.6566 267.975 57.3616 267.905 57.0713C267.636 55.9962 267.136 54.9928 266.438 54.1315C265.417 52.8252 264.003 51.8827 262.404 51.4438C260.589 50.9395 258.501 51.2269 256.459 51.7564C254.416 52.2859 252.495 52.9213 250.685 53.0675C249.832 53.1557 248.971 53.1201 248.128 52.9616C247.399 52.8133 246.703 52.5367 246.071 52.1447C245.136 51.5934 244.404 50.7551 243.983 49.7545C243.848 49.3755 243.745 48.9858 243.676 48.5896Z" fill="#455A64"/>
<path d="M246.252 82.0526C246.319 82.5731 246.456 83.0821 246.661 83.5654C246.768 83.8041 246.924 84.0175 247.12 84.1913C247.315 84.3652 247.546 84.4956 247.795 84.5739C248.066 84.6298 248.346 84.617 248.61 84.5369C248.874 84.4567 249.114 84.3117 249.308 84.115C249.695 83.7076 249.944 83.189 250.019 82.6325C250.1 82.1282 250.019 81.4979 249.515 81.3365C249.311 81.2861 249.098 81.2861 248.895 81.3365L246.101 81.8408" fill="#AA6550"/>
<path d="M246.741 84.1705C247.186 84.3414 247.657 84.4302 248.133 84.4327C248.626 84.4038 249.09 84.1915 249.434 83.8377C249.638 83.6213 249.792 83.3642 249.889 83.0834C249.985 82.8026 250.021 82.5045 249.994 82.2089C249.979 82.0574 249.945 81.9083 249.893 81.7651C249.828 81.629 249.848 81.6391 249.732 81.624C249.616 81.6088 249.434 81.624 249.283 81.6492L248.814 81.6845C248.209 81.7298 247.664 81.7652 247.205 81.7904C246.703 81.8603 246.192 81.8501 245.693 81.7601C246.164 81.588 246.659 81.486 247.16 81.4575C247.614 81.392 248.169 81.3264 248.759 81.2558L249.222 81.2054C249.39 81.1809 249.558 81.1658 249.727 81.16C249.86 81.1636 249.989 81.2095 250.095 81.2911C250.189 81.3744 250.26 81.4803 250.302 81.5987C250.37 81.7804 250.414 81.9703 250.433 82.1635C250.466 82.5266 250.418 82.8924 250.294 83.235C250.169 83.5776 249.97 83.8884 249.712 84.1453C249.281 84.5545 248.707 84.7774 248.113 84.7655C247.725 84.7671 247.345 84.6606 247.014 84.4579C246.842 84.3167 246.726 84.1907 246.741 84.1705Z" fill="#263238"/>
<path d="M244.24 92.3648C244.24 92.3648 249.323 94.2911 254.27 92.8691C254.27 92.8691 250.539 96.0006 243.731 94.8004L244.24 92.3648Z" fill="#AA6550"/>
<path d="M251.996 164.661C251.751 164.501 251.518 164.322 251.3 164.127C251.083 163.95 250.796 163.733 250.488 163.501C250.181 163.269 249.807 162.997 249.379 162.72C248.95 162.442 248.506 162.14 247.987 161.852C247.468 161.565 246.918 161.262 246.328 160.96C243.741 159.687 240.96 158.855 238.098 158.499C237.438 158.428 236.813 158.348 236.223 158.333C235.633 158.318 235.083 158.292 234.584 158.297C234.084 158.302 233.626 158.328 233.227 158.343C232.829 158.358 232.486 158.388 232.219 158.418C231.93 158.462 231.638 158.483 231.346 158.479C231.63 158.406 231.918 158.352 232.209 158.318C232.543 158.26 232.879 158.22 233.217 158.196C233.615 158.166 234.069 158.111 234.579 158.111C235.088 158.111 235.638 158.081 236.233 158.111C236.828 158.141 237.463 158.191 238.129 158.252C239.572 158.432 240.998 158.725 242.395 159.129C243.781 159.555 245.13 160.093 246.429 160.738C247.019 161.051 247.589 161.338 248.088 161.661C248.587 161.984 249.061 162.271 249.475 162.563C249.888 162.856 250.251 163.138 250.569 163.38C250.887 163.622 251.149 163.854 251.355 164.046C251.586 164.233 251.8 164.439 251.996 164.661Z" fill="#FAFAFA"/>
<path d="M222.36 138.762L226.495 120.846C228.079 114.109 229.955 107.634 233.106 106.867V108.95L231.755 160.138C231.755 160.138 223.328 169.719 212.593 164.404C209.234 162.735 203.107 151.011 203.107 151.011C203.107 151.011 188.852 125.576 189.447 124.421C190.042 123.266 198.751 112.041 199.638 111.481L222.36 138.762Z" fill="#E29C40"/>
<path d="M264.91 101.795C273.13 103.368 282.383 108.163 286.644 120.452C288.197 124.94 299.513 158.025 299.513 158.025L280.215 157.622L277.098 150.809L278.611 161.878L279.917 177.661L231.185 178.483L231.528 154.702L231.997 107.402C231.997 107.402 232.541 106.686 240.947 102.052C246.162 99.1724 264.91 101.795 264.91 101.795Z" fill="#E29C40"/>
<g opacity="0.2">
<path d="M269.771 133.432C270.573 143.416 271.491 146.503 272.293 156.487C272.312 157.432 272.482 158.369 272.797 159.26C272.965 159.704 273.235 160.102 273.586 160.421C273.936 160.741 274.357 160.974 274.814 161.101C276.236 161.388 278.081 162.417 278.48 161.025L277.133 151.409C276.844 150.01 276.397 148.648 275.802 147.35C272.812 140.709 271.708 140.32 269.751 133.432" fill="black"/>
</g>
<path d="M240.942 107.17L241.104 106.131L242.662 96.1669C242.707 95.8773 242.86 95.6154 243.09 95.4339C243.32 95.2525 243.61 95.1648 243.902 95.1887L263.09 96.7922C263.669 96.8398 264.207 97.1146 264.584 97.5567C264.962 97.9988 265.15 98.5723 265.107 99.1522L264.678 104.941L258.688 112.757L250.06 114.104" fill="#E29C40"/>
<path d="M231.306 125.903C231.382 125.903 231.437 133.709 231.437 143.336C231.437 152.962 231.382 160.768 231.306 160.768C231.23 160.768 231.175 152.962 231.175 143.336C231.175 133.709 231.235 125.903 231.306 125.903Z" fill="#263238"/>
<path d="M280.628 159.225C280.628 159.225 280.628 159.19 280.568 159.114C280.507 159.039 280.472 158.913 280.406 158.771L279.821 157.445L277.718 152.549L270.865 136.357C269.534 133.19 268.269 130.174 267.119 127.426C266.538 126.139 266.121 124.784 265.878 123.392C265.665 122.176 265.554 120.945 265.546 119.711C265.481 117.923 265.741 116.137 266.312 114.441L266.468 114.023L266.645 113.67C266.728 113.482 266.829 113.303 266.947 113.135L267.159 112.823C267.184 112.787 267.211 112.754 267.24 112.722C266.908 113.28 266.63 113.867 266.408 114.477C265.88 116.169 265.651 117.94 265.732 119.711C265.741 122.341 266.288 124.941 267.341 127.351L271.108 136.271L277.89 152.493L279.907 157.42L280.447 158.766L280.583 159.119C280.601 159.153 280.616 159.189 280.628 159.225Z" fill="#263238"/>
<path d="M270.891 103.554C270.714 103.733 270.527 103.902 270.331 104.059C269.764 104.491 269.146 104.852 268.49 105.133C267.452 105.566 266.365 105.871 265.253 106.04C263.783 106.269 262.302 106.415 260.816 106.479C259.162 106.55 257.356 106.519 255.42 106.555C253.363 106.551 251.314 106.802 249.318 107.301C247.108 107.823 245.107 109.003 243.58 110.685C242.819 111.601 242.274 112.676 241.986 113.831C241.678 115.016 241.699 116.263 242.047 117.437C242.24 118.016 242.524 118.561 242.889 119.05C243.256 119.526 243.72 119.917 244.25 120.2C244.765 120.482 245.351 120.605 245.935 120.553C246.506 120.495 247.034 120.225 247.417 119.797C247.758 119.347 248.001 118.83 248.129 118.28C248.258 117.73 248.269 117.159 248.163 116.605C248.08 116.057 247.909 115.526 247.659 115.031C247.41 114.549 247.111 114.094 246.767 113.675C245.419 112.122 243.603 111.048 241.593 110.614C239.851 110.203 238.035 110.224 236.303 110.675C234.879 111.043 233.518 111.626 232.269 112.404C231.318 112.997 230.42 113.672 229.586 114.421C228.896 115.026 228.406 115.551 228.074 115.894L227.7 116.297C227.66 116.345 227.614 116.389 227.564 116.428C228.158 115.678 228.816 114.981 229.531 114.346C230.356 113.582 231.251 112.897 232.204 112.298C233.465 111.496 234.843 110.894 236.288 110.513C238.049 110.041 239.898 110.01 241.674 110.422C243.736 110.858 245.6 111.953 246.984 113.544C247.336 113.965 247.643 114.421 247.901 114.905C248.156 115.425 248.326 115.981 248.406 116.554C248.494 117.139 248.483 117.733 248.375 118.314C248.267 118.919 248.001 119.484 247.604 119.953C247.18 120.429 246.594 120.729 245.96 120.795C245.324 120.856 244.685 120.724 244.124 120.417C243.562 120.116 243.068 119.701 242.677 119.197C242.292 118.683 241.993 118.111 241.79 117.502C241.427 116.282 241.406 114.987 241.729 113.756C242.023 112.56 242.587 111.447 243.378 110.503C244.942 108.787 246.988 107.584 249.248 107.049C251.266 106.556 253.337 106.315 255.415 106.333C257.356 106.303 259.162 106.333 260.805 106.288C262.286 106.236 263.762 106.103 265.228 105.889C266.333 105.73 267.416 105.443 268.455 105.032C269.107 104.767 269.726 104.429 270.301 104.023C270.502 103.887 270.639 103.761 270.739 103.691C270.785 103.64 270.836 103.595 270.891 103.554Z" fill="#FAFAFA"/>
<path d="M287.567 124.542C287.496 124.562 287.423 124.574 287.35 124.577C287.209 124.577 287.002 124.612 286.73 124.623C285.968 124.648 285.205 124.629 284.445 124.567C283.482 124.497 282.343 124.35 281.082 124.174C279.821 123.997 278.44 123.811 276.977 123.735C275.61 123.661 274.238 123.764 272.898 124.043C271.801 124.266 270.749 124.666 269.781 125.228C268.905 125.763 268.127 126.446 267.482 127.245C267.509 127.177 267.547 127.114 267.593 127.058C267.699 126.88 267.821 126.711 267.956 126.554C268.444 125.957 269.029 125.446 269.686 125.041C270.659 124.446 271.727 124.02 272.842 123.78C274.204 123.483 275.6 123.371 276.992 123.448C278.47 123.523 279.857 123.725 281.117 123.912C282.378 124.098 283.507 124.265 284.46 124.355C285.413 124.446 286.195 124.486 286.73 124.491C287.009 124.491 287.289 124.508 287.567 124.542Z" fill="#FAFAFA"/>
<path d="M275.449 147.148C274.501 146.928 273.526 146.844 272.555 146.901C271.415 146.978 270.287 147.179 269.191 147.501C267.905 147.849 266.468 148.358 264.855 148.858C263.102 149.452 261.269 149.77 259.419 149.801C257.288 149.8 255.181 149.362 253.226 148.515C251.054 147.597 249.122 146.192 247.579 144.41C246.743 143.479 246.063 142.42 245.562 141.273C245.028 140.087 244.828 138.778 244.982 137.486C245.157 136.184 245.792 134.988 246.772 134.113C247.258 133.688 247.842 133.391 248.471 133.246C249.087 133.115 249.724 133.133 250.332 133.297C250.939 133.461 251.499 133.766 251.966 134.188C252.421 134.606 252.738 135.154 252.873 135.757C253.004 136.347 252.956 136.963 252.737 137.527C252.525 138.069 252.204 138.561 251.794 138.974C251.012 139.757 250.067 140.358 249.026 140.734C248.536 140.92 248.029 141.06 247.513 141.152C247.261 141.198 247.009 141.253 246.762 141.289L246.01 141.379C244.168 141.562 242.307 141.431 240.509 140.991C239.025 140.638 237.596 140.088 236.258 139.357C235.246 138.811 234.297 138.155 233.429 137.401L232.925 136.962L232.511 136.543C232.288 136.332 232.079 136.106 231.886 135.868L231.523 135.434C231.481 135.387 231.444 135.336 231.412 135.283C231.461 135.325 231.506 135.37 231.548 135.419L231.926 135.832C232.126 136.064 232.34 136.283 232.567 136.488L232.985 136.896L233.489 137.325C234.362 138.058 235.31 138.695 236.318 139.226C237.649 139.937 239.069 140.47 240.539 140.809C242.32 141.234 244.159 141.353 245.98 141.162L246.716 141.072C246.963 141.031 247.221 140.976 247.463 140.93C247.967 140.839 248.462 140.701 248.94 140.517C249.947 140.15 250.861 139.567 251.618 138.808C252.003 138.417 252.305 137.952 252.505 137.441C252.703 136.921 252.747 136.356 252.631 135.812C252.482 135.257 252.183 134.753 251.768 134.355C251.353 133.957 250.837 133.679 250.276 133.553C249.702 133.387 249.094 133.37 248.511 133.503C247.928 133.637 247.389 133.916 246.943 134.315C246.01 135.147 245.406 136.287 245.244 137.527C245.099 138.77 245.291 140.029 245.798 141.173C246.287 142.292 246.947 143.328 247.755 144.244C249.272 145.993 251.17 147.373 253.302 148.278C255.225 149.117 257.3 149.556 259.399 149.569C261.23 149.546 263.047 149.24 264.784 148.661C266.393 148.157 267.81 147.683 269.136 147.345C270.243 147.034 271.381 146.846 272.53 146.785C272.948 146.759 273.367 146.759 273.785 146.785C274.143 146.84 274.451 146.866 274.693 146.921L275.242 147.057C275.315 147.078 275.385 147.108 275.449 147.148Z" fill="#FAFAFA"/>
<path d="M231.14 141.768C231.094 141.768 230.862 141.263 230.373 140.416C229.093 138.266 227.227 136.526 224.993 135.399C224.135 134.965 223.571 134.773 223.586 134.728C223.727 134.74 223.867 134.773 223.999 134.824C224.366 134.933 224.725 135.068 225.073 135.227C226.229 135.754 227.291 136.464 228.22 137.33C229.15 138.195 229.932 139.207 230.534 140.325C230.725 140.66 230.894 141.007 231.039 141.364C231.09 141.494 231.124 141.629 231.14 141.768Z" fill="#FAFAFA"/>
<path d="M211.574 163.35C211.574 163.35 211.539 163.31 211.493 163.224C211.448 163.138 211.372 163.002 211.287 162.846C211.105 162.513 210.843 162.014 210.52 161.368C209.583 159.546 208.811 157.644 208.211 155.685C207.81 154.324 207.568 152.922 207.49 151.505C207.449 150.714 207.481 149.92 207.585 149.135C207.711 148.304 207.91 147.485 208.18 146.689C208.769 144.969 209.788 143.427 211.14 142.211C211.863 141.549 212.712 141.039 213.637 140.714C214.562 140.389 215.543 140.255 216.521 140.32C217.537 140.396 218.486 140.858 219.173 141.611C219.5 141.984 219.738 142.426 219.868 142.904C219.998 143.382 220.017 143.883 219.925 144.37C219.816 144.847 219.566 145.281 219.209 145.615C218.859 145.935 218.437 146.165 217.978 146.286C217.091 146.517 216.148 146.403 215.341 145.968C214.592 145.564 213.937 145.005 213.42 144.329C212.924 143.703 212.515 143.013 212.204 142.277C211.659 140.956 211.432 139.526 211.544 138.102C211.646 136.926 211.989 135.785 212.552 134.748C212.97 133.966 213.504 133.252 214.136 132.63C214.531 132.236 214.965 131.883 215.432 131.576C215.588 131.47 215.719 131.405 215.805 131.354L215.936 131.289C215.936 131.289 215.775 131.405 215.462 131.622C215.012 131.943 214.591 132.304 214.206 132.701C213.602 133.328 213.093 134.04 212.694 134.814C212.158 135.837 211.837 136.96 211.751 138.112C211.653 139.508 211.888 140.908 212.436 142.196C212.742 142.91 213.143 143.58 213.626 144.188C214.128 144.835 214.76 145.37 215.482 145.756C216.236 146.162 217.115 146.266 217.943 146.049C218.367 145.949 218.756 145.735 219.067 145.429C219.377 145.123 219.597 144.737 219.703 144.314C219.783 143.869 219.762 143.411 219.641 142.974C219.521 142.538 219.304 142.134 219.007 141.793C218.363 141.091 217.476 140.661 216.526 140.593C215.584 140.53 214.639 140.66 213.748 140.972C212.857 141.285 212.039 141.775 211.342 142.413C210.022 143.6 209.025 145.103 208.443 146.78C208.171 147.559 207.97 148.36 207.843 149.175C207.738 149.947 207.702 150.727 207.737 151.505C207.807 152.906 208.037 154.295 208.422 155.645C209.003 157.599 209.746 159.502 210.641 161.333L211.362 162.846C211.438 163.007 211.498 163.138 211.549 163.239C211.599 163.34 211.574 163.35 211.574 163.35Z" fill="#FAFAFA"/>
<path d="M205.346 118.834C205.346 118.834 205.372 118.904 205.392 119.04C205.427 119.244 205.453 119.449 205.467 119.656C205.534 120.409 205.534 121.166 205.467 121.92C205.264 124.428 204.406 126.839 202.98 128.912C201.553 130.985 199.608 132.648 197.339 133.735C196.659 134.066 195.952 134.338 195.226 134.546C194.974 134.627 194.767 134.662 194.631 134.698C194.495 134.733 194.419 134.738 194.419 134.728C194.672 134.619 194.931 134.526 195.196 134.451C195.903 134.205 196.592 133.911 197.258 133.568C199.467 132.452 201.36 130.799 202.763 128.76C204.166 126.721 205.033 124.362 205.286 121.9C205.365 121.156 205.394 120.408 205.372 119.661C205.345 119.386 205.337 119.11 205.346 118.834Z" fill="#FAFAFA"/>
<path d="M291.979 140.699C291.229 141.169 290.57 141.77 290.033 142.474C289.528 143.124 289.024 143.986 288.454 144.894C287.829 145.91 287.108 146.864 286.301 147.743C284.825 149.338 283.074 150.655 281.132 151.631C280.548 151.927 279.945 152.185 279.327 152.402C279.102 152.491 278.869 152.558 278.631 152.604C278.84 152.485 279.059 152.385 279.287 152.307C279.71 152.12 280.325 151.858 281.047 151.465C282.931 150.452 284.635 149.135 286.089 147.567C286.888 146.702 287.605 145.765 288.232 144.768C288.734 143.935 289.281 143.13 289.871 142.358C290.281 141.84 290.77 141.389 291.318 141.021C291.467 140.922 291.624 140.836 291.787 140.764C291.919 140.714 291.979 140.688 291.979 140.699Z" fill="#FAFAFA"/>
<path d="M264.729 102.4C264.655 102.431 264.577 102.452 264.497 102.46L263.826 102.581C263.241 102.677 262.394 102.803 261.35 102.944C259.252 103.227 256.348 103.559 253.125 103.796C251.617 103.934 250.102 103.988 248.587 103.958C247.338 103.927 246.099 103.715 244.911 103.327C244.109 103.067 243.352 102.685 242.667 102.193C242.48 102.061 242.302 101.918 242.132 101.764C242.022 101.653 241.966 101.598 241.971 101.588C241.976 101.578 242.233 101.789 242.722 102.092C243.419 102.54 244.174 102.889 244.966 103.131C246.144 103.489 247.366 103.679 248.597 103.696C250.112 103.712 251.627 103.651 253.136 103.514C256.348 103.277 259.252 102.98 261.35 102.743L263.836 102.46C264.132 102.419 264.43 102.399 264.729 102.4Z" fill="#263238"/>
<path d="M299.286 161.595C299.665 163.546 299.611 165.556 299.127 167.484C298.643 169.412 297.74 171.209 296.484 172.749C295.227 174.289 293.648 175.533 291.857 176.394C290.065 177.255 288.107 177.712 286.119 177.732L247.921 177.308L248.93 164.939L281.637 160.027" fill="#B78876"/>
<path d="M251.27 165.478C251.093 165.534 248.89 164.545 246.913 163.632C244.816 162.661 242.514 162.214 240.206 162.331L231.099 162.795C231.099 162.795 231.659 164.308 232.612 164.812C233.565 165.317 239.278 165.478 239.278 165.478L238.986 165.776C237.791 167.006 236.162 167.719 234.448 167.762H233.575C232.929 167.711 232.291 167.586 231.674 167.389L229.43 166.482C228.749 166.179 228.033 166.224 227.736 166.91C227.438 167.596 227.665 168.383 229.521 169.316C230.555 169.82 234.397 171.166 234.397 171.166C234.423 171.713 234.499 172.257 234.624 172.79C234.79 173.35 236.298 173.909 236.298 173.909C236.69 174.739 237.138 175.541 237.64 176.31C237.816 176.511 239.183 176.94 240.64 177.348C242.989 178.006 245.477 177.987 247.816 177.293L251.285 176.254V165.665" fill="#FFBE9D"/>
<path d="M238.814 172.392C237.21 172.351 235.637 171.936 234.221 171.181C234.221 171.121 235.229 171.504 236.505 171.832C237.781 172.16 238.819 172.316 238.814 172.392Z" fill="#AA6550"/>
<path d="M238.492 174.514C238.064 174.603 237.62 174.57 237.211 174.419C236.783 174.34 236.385 174.144 236.061 173.854C236.473 173.936 236.878 174.053 237.271 174.202C237.686 174.275 238.094 174.379 238.492 174.514Z" fill="#AA6550"/>
<path d="M240.156 164.656C239.957 164.937 239.721 165.189 239.455 165.407C238.851 165.984 238.185 166.491 237.468 166.92C236.746 167.342 235.961 167.645 235.143 167.818C234.815 167.906 234.475 167.943 234.135 167.929C235.262 167.67 236.35 167.265 237.372 166.724C238.073 166.301 238.739 165.824 239.364 165.297C239.608 165.06 239.873 164.846 240.156 164.656Z" fill="#AA6550"/>
<path d="M252.198 163.819L251.27 177.807H287.249C289.692 177.809 292.089 177.145 294.183 175.886C296.552 174.462 298.426 172.343 299.548 169.817C300.67 167.29 300.987 164.48 300.456 161.767C299.938 159.11 299.161 156.511 298.136 154.006L280.043 156.986L280.623 159.235L252.198 163.819Z" fill="#E29C40"/>
<path d="M288.958 158.06C288.839 158.095 288.718 158.122 288.595 158.141L287.541 158.333L283.654 158.978L270.865 160.995L258.062 162.957L254.179 163.522L253.12 163.663C252.997 163.68 252.872 163.69 252.747 163.693C252.867 163.651 252.99 163.623 253.115 163.607L254.164 163.421L258.037 162.77L270.825 160.753L283.654 158.776L287.536 158.212L288.595 158.07C288.716 158.054 288.837 158.051 288.958 158.06Z" fill="#263238"/>
<path d="M270.543 177.817C270.477 177.817 270.76 176.809 270.795 175.16C270.803 174.712 270.784 174.264 270.739 173.819C270.696 173.31 270.622 172.805 270.518 172.306C270.268 171.155 269.875 170.041 269.348 168.988C268.808 167.94 268.148 166.958 267.381 166.063L266.877 165.473C266.705 165.281 266.519 165.115 266.347 164.944C266.009 164.596 265.651 164.318 265.339 164.051C264.053 163.042 263.14 162.538 263.17 162.493C263.394 162.582 263.608 162.692 263.811 162.821C264.062 162.952 264.304 163.098 264.537 163.259C264.804 163.451 265.137 163.638 265.455 163.91C265.818 164.182 266.165 164.475 266.493 164.787C266.67 164.959 266.867 165.12 267.043 165.292L267.593 165.887C268.383 166.788 269.06 167.782 269.61 168.847C270.144 169.921 270.537 171.06 270.78 172.235C270.883 172.749 270.95 173.27 270.981 173.793C271.014 174.247 271.014 174.702 270.981 175.155C270.972 175.532 270.938 175.907 270.881 176.279C270.853 176.56 270.804 176.838 270.734 177.111C270.691 177.352 270.627 177.588 270.543 177.817Z" fill="#FAFAFA"/>
<path d="M292.448 176.763C291.886 176.76 291.326 176.694 290.779 176.567C290.134 176.419 289.508 176.197 288.913 175.906C288.125 175.514 287.413 174.985 286.81 174.343C286.079 173.556 285.548 172.605 285.262 171.57C285.103 170.994 285.013 170.402 284.995 169.805C284.958 169.174 285.009 168.541 285.146 167.924C285.281 167.267 285.534 166.64 285.893 166.073C286.267 165.472 286.787 164.976 287.405 164.631C288.045 164.258 288.78 164.083 289.518 164.127C289.898 164.153 290.268 164.256 290.607 164.429C290.946 164.602 291.246 164.843 291.49 165.135C291.742 165.424 291.931 165.761 292.046 166.127C292.16 166.492 292.198 166.877 292.156 167.258C292.094 167.628 291.95 167.979 291.736 168.286C291.521 168.593 291.241 168.848 290.915 169.033C289.694 169.672 288.289 169.865 286.941 169.578C285.029 169.28 283.28 168.322 281.999 166.871C280.718 165.419 279.985 163.566 279.927 161.631C279.895 161.069 279.942 160.505 280.068 159.956C280.022 160.511 280.008 161.069 280.028 161.625C280.122 163.143 280.618 164.609 281.465 165.871C282.096 166.798 282.911 167.586 283.857 168.187C284.804 168.788 285.864 169.189 286.972 169.366C288.259 169.643 289.603 169.464 290.774 168.862C291.066 168.696 291.319 168.468 291.512 168.193C291.706 167.919 291.836 167.604 291.893 167.273C291.923 166.928 291.884 166.581 291.779 166.25C291.675 165.92 291.506 165.614 291.282 165.349C291.059 165.085 290.785 164.867 290.477 164.708C290.169 164.549 289.833 164.453 289.488 164.424C288.804 164.378 288.122 164.534 287.526 164.873C286.966 165.208 286.485 165.659 286.115 166.197C285.745 166.735 285.495 167.346 285.383 167.989C285.247 168.588 285.194 169.202 285.227 169.815C285.241 170.392 285.324 170.966 285.474 171.524C285.74 172.532 286.245 173.461 286.946 174.232C287.523 174.865 288.206 175.392 288.964 175.79C289.545 176.087 290.157 176.319 290.789 176.481C291.848 176.718 292.453 176.728 292.448 176.763Z" fill="#FAFAFA"/>
<path d="M149.726 24.3748H59.6191C54.3525 24.3748 49.3015 26.467 45.5774 30.1911C41.8534 33.9152 39.7612 38.9661 39.7612 44.2328V76.3443H20.3218L39.7612 95.7837V117.613C39.7612 122.88 41.8534 127.931 45.5774 131.655C49.3015 135.379 54.3525 137.471 59.6191 137.471H149.726C154.993 137.471 160.044 135.379 163.768 131.655C167.492 127.931 169.584 122.88 169.584 117.613V44.2328C169.584 38.9661 167.492 33.9152 163.768 30.1911C160.044 26.467 154.993 24.3748 149.726 24.3748Z" fill="#AB0000"/>
<path d="M112.915 27.7685C112.345 29.246 113.323 30.8546 114.428 31.9943C115.532 33.1339 116.853 34.213 117.201 35.7561C117.488 37.052 117.009 38.3984 117.125 39.7196C117.241 41.0408 117.973 42.2863 118.386 43.5772C119.137 45.917 118.835 48.4736 118.164 50.8386C117.681 52.8039 116.756 54.6334 115.461 56.1889C114.809 56.9592 114.001 57.5824 113.09 58.017C112.179 58.4517 111.186 58.6879 110.177 58.7102C109.891 58.7281 109.605 58.6872 109.336 58.5901C109.068 58.4929 108.821 58.3416 108.613 58.1454C108.331 57.7374 108.174 57.255 108.165 56.7587C107.01 46.6053 107.01 36.3537 108.165 26.2003" fill="#263238"/>
<path d="M111.851 60.4902C116.238 60.2986 120.292 64.4991 119.944 68.8762C124.387 69.9603 127.508 74.8466 126.656 79.3346C126.369 80.8171 125.708 82.2291 125.617 83.7318C125.516 85.3757 126.121 86.9742 126.419 88.5878C126.99 91.5288 126.685 94.5727 125.542 97.3419C124.851 99.011 123.56 100.736 121.755 100.786C121.143 100.76 120.547 100.584 120.019 100.274C119.492 99.9635 119.049 99.5281 118.729 99.0059C118.1 97.9489 117.686 96.7787 117.509 95.5618C116.727 91.6185 116.5 87.5692 115.411 83.7015C114.322 79.8338 112.204 76.0216 108.709 74.06C106.778 72.9708 104.458 72.4564 102.92 70.8579C102.147 69.9855 101.631 68.9151 101.43 67.7663C101.23 66.6176 101.353 65.4358 101.786 64.3529C102.239 63.2798 102.913 62.3142 103.765 61.5192C104.616 60.7242 105.626 60.1176 106.727 59.7389" fill="#263238"/>
<path d="M81.484 31.3841C81.4336 29.5083 83.1632 28.061 84.908 27.35C86.6527 26.639 88.5941 26.402 90.1473 25.333C91.529 24.4051 92.4518 22.9579 93.6166 21.8031C95.055 20.3444 96.8557 19.2949 98.8337 18.7622C100.812 18.2294 102.896 18.2327 104.872 18.7718C106.849 19.3108 108.646 20.3661 110.08 21.8293C111.514 23.2925 112.532 25.1109 113.031 27.0979C113.701 29.7654 113.243 32.9221 111.14 34.6971C108.699 36.7545 105.089 36.2957 101.947 35.6552C98.8055 35.0148 95.2756 34.3845 92.6635 36.2251C91.0902 37.3294 90.1826 39.1347 89.2194 40.8038C88.2563 42.4729 87.0511 44.1723 85.2307 44.8026C83.4103 45.4329 80.9344 44.3437 80.8638 42.4225" fill="#263238"/>
<path d="M88.8765 31.7674C88.0958 31.8518 87.3751 32.226 86.8569 32.8161C86.3387 33.4062 86.0607 34.1692 86.0779 34.9543L87.9487 77.3125C88.0294 82.3148 95.3412 85.1235 100.696 84.9975C106.107 84.8714 106.279 82.219 106.349 77.4587C106.46 69.5115 106.45 66.5263 106.455 66.5717C106.46 66.617 113.288 65.4219 114.685 56.4864C115.376 52.0539 115.139 44.7824 114.75 38.8371C114.402 33.4869 110.842 26.9315 105.512 27.5063L88.8765 31.7674Z" fill="#FFBE9D"/>
<path d="M113.212 44.4546C113.215 44.7522 113.102 45.0393 112.897 45.2549C112.692 45.4704 112.41 45.5976 112.113 45.6094C111.969 45.6218 111.824 45.6054 111.687 45.5613C111.549 45.5171 111.422 45.446 111.312 45.3522C111.202 45.2583 111.112 45.1436 111.047 45.0146C110.982 44.8856 110.943 44.745 110.933 44.6009C110.929 44.3029 111.042 44.0151 111.247 43.7992C111.453 43.5834 111.735 43.4566 112.032 43.4461C112.176 43.4337 112.321 43.4501 112.459 43.4942C112.596 43.5384 112.724 43.6094 112.834 43.7033C112.943 43.7972 113.033 43.9119 113.098 44.0409C113.163 44.1699 113.202 44.3105 113.212 44.4546Z" fill="#263238"/>
<path d="M113.182 42.6393C113.041 42.7906 112.174 42.135 110.943 42.135C109.713 42.135 108.81 42.7603 108.674 42.6091C108.608 42.5435 108.755 42.2712 109.148 41.9838C109.679 41.6141 110.311 41.4185 110.958 41.424C111.599 41.4203 112.224 41.6198 112.743 41.9939C113.122 42.2914 113.253 42.5738 113.182 42.6393Z" fill="#263238"/>
<path d="M101.387 44.4546C101.39 44.7522 101.277 45.0393 101.072 45.2549C100.867 45.4704 100.585 45.5976 100.288 45.6094C100.144 45.6218 99.9992 45.6054 99.8616 45.5613C99.7241 45.5171 99.5967 45.446 99.4869 45.3522C99.3771 45.2583 99.287 45.1436 99.222 45.0146C99.1569 44.8856 99.1182 44.745 99.1081 44.6009C99.1039 44.3029 99.2167 44.0151 99.4222 43.7992C99.6276 43.5834 99.9095 43.4566 100.207 43.4461C100.351 43.4337 100.496 43.4501 100.634 43.4942C100.771 43.5384 100.899 43.6094 101.008 43.7033C101.118 43.7972 101.208 43.9119 101.273 44.0409C101.338 44.1699 101.377 44.3105 101.387 44.4546Z" fill="#263238"/>
<path d="M101.11 42.8965C100.969 43.0477 100.101 42.3922 98.871 42.3922C97.6406 42.3922 96.738 43.0175 96.6069 42.8662C96.5414 42.8007 96.6825 42.5284 97.0759 42.2409C97.6066 41.8704 98.2389 41.6731 98.8862 41.6762C99.5271 41.6739 100.152 41.8752 100.671 42.251C101.024 42.5586 101.155 42.8309 101.11 42.8965Z" fill="#263238"/>
<path d="M105.573 52.0136C105.573 51.943 106.329 51.8118 107.59 51.6505C107.902 51.6152 108.2 51.5496 108.255 51.3378C108.279 51.0128 108.205 50.6882 108.044 50.4049L107.106 48.0147C105.81 44.611 104.867 41.8123 105.008 41.7619C105.149 41.7114 106.309 44.4294 107.605 47.813L108.502 50.2184C108.698 50.5971 108.757 51.0317 108.669 51.4488C108.625 51.5588 108.556 51.6575 108.469 51.7377C108.382 51.818 108.278 51.8778 108.165 51.9127C108 51.958 107.831 51.9817 107.66 51.9833C106.349 52.0741 105.578 52.0841 105.573 52.0136Z" fill="#263238"/>
<path d="M106.455 66.5767C102.256 66.6492 98.1184 65.5547 94.5041 63.415C94.5041 63.415 97.4137 69.5368 106.339 68.6795L106.455 66.5767Z" fill="#EB996E"/>
<path d="M105.058 54.9786C104.821 54.6803 104.511 54.4483 104.157 54.3052C103.804 54.1621 103.419 54.1127 103.041 54.1617C102.77 54.1861 102.506 54.2652 102.266 54.3943C102.026 54.5235 101.814 54.6999 101.645 54.9131C101.481 55.1187 101.384 55.3699 101.368 55.6325C101.351 55.895 101.416 56.1562 101.554 56.3805C101.751 56.602 102.011 56.7589 102.298 56.8308C102.586 56.9028 102.889 56.8864 103.167 56.7839C103.748 56.5775 104.281 56.2569 104.736 55.8409C104.875 55.7434 104.995 55.6202 105.089 55.4778C105.135 55.4102 105.159 55.3302 105.159 55.2484C105.159 55.1666 105.135 55.0867 105.089 55.019" fill="#EB996E"/>
<path d="M101.952 52.8809C102.154 52.8809 102.159 54.2071 103.304 55.1501C104.448 56.0931 105.87 55.9468 105.88 56.1586C105.88 56.2444 105.563 56.4209 104.963 56.436C104.18 56.4502 103.417 56.1877 102.809 55.6947C102.227 55.2187 101.853 54.5353 101.766 53.7886C101.71 53.1986 101.861 52.8809 101.952 52.8809Z" fill="#263238"/>
<path d="M101.614 40.7382C101.493 41.0761 100.263 40.9198 98.8206 41.0963C97.3784 41.2727 96.2085 41.6711 96.0169 41.3686C95.9312 41.2274 96.1329 40.9097 96.6019 40.5869C97.228 40.1845 97.9376 39.9299 98.6767 39.8426C99.4159 39.7552 100.165 39.8373 100.868 40.0827C101.418 40.3197 101.685 40.5819 101.614 40.7382Z" fill="#263238"/>
<path d="M112.708 39.0792C112.491 39.3565 111.644 39.0792 110.62 39.0792C109.597 39.0792 108.74 39.2708 108.543 38.9783C108.452 38.8371 108.588 38.5598 108.966 38.2925C109.472 37.9759 110.061 37.8161 110.658 37.8331C111.254 37.8502 111.833 38.0434 112.32 38.3884C112.708 38.6556 112.814 38.943 112.708 39.0792Z" fill="#263238"/>
<path d="M82.6489 61.1054C83.8784 61.354 85.1494 61.3067 86.3571 60.9674C87.5647 60.628 88.6744 60.0064 89.5945 59.1538C90.5146 58.3012 91.2188 57.242 91.6489 56.0636C92.0791 54.8853 92.2229 53.6215 92.0685 52.3766C91.7912 50.1831 90.6112 47.9593 91.3726 45.8817C92.3812 43.1436 96.2186 42.3014 97.2372 39.5633C97.8272 37.9748 97.2977 36.1141 97.9684 34.5559C98.5987 33.0936 100.142 32.2514 101.644 31.7068C103.147 31.1622 104.751 30.7891 106.011 29.8108C107.272 28.8325 108.054 26.9869 107.242 25.6103C100.582 26.4094 94.0409 27.9989 87.7571 30.3453C86.2997 30.8899 84.7718 31.5455 83.9095 32.8364C83.0018 34.208 83.0472 35.9729 83.1229 37.6168C83.496 45.6245 82.2757 53.1229 82.6489 61.1307" fill="#263238"/>
<path d="M80.5259 58.5942C80.4752 58.5866 80.4258 58.5713 80.3797 58.5488C80.2358 58.4987 80.0986 58.4309 79.9712 58.3471C79.48 58.0293 79.094 57.5731 78.8619 57.036C78.4802 56.1871 78.3778 55.239 78.5694 54.3281C78.873 53.1448 79.4248 52.0396 80.1881 51.0857C80.9697 49.9965 81.9631 48.8922 82.6388 47.4853C82.9991 46.7703 83.2004 45.9859 83.2288 45.1858C83.1997 44.3366 83.0292 43.4981 82.7245 42.7049C82.3847 41.8472 82.2052 40.9345 82.195 40.0121C82.2439 39.0251 82.5337 38.0651 83.0391 37.2159C83.5445 36.3668 84.2503 35.6544 85.0946 35.1409C86.0001 34.6468 87.0044 34.3608 88.0344 34.3038C89.0311 34.2549 90.0183 34.0856 90.9743 33.7995C91.8719 33.4597 92.6096 32.7958 93.0418 31.9388C93.4537 31.0957 93.7813 30.214 94.02 29.3065C94.2752 28.4359 94.6129 27.5916 95.0286 26.7852C95.7868 25.2564 96.9413 23.959 98.3718 23.0285C99.6349 22.2343 101.113 21.8504 102.603 21.9292C103.837 21.993 105.012 22.4749 105.936 23.2957C106.624 23.9147 107.137 24.7044 107.423 25.5851C107.609 26.1363 107.68 26.7199 107.63 27.2996C107.62 27.5012 107.586 27.7009 107.529 27.8946C107.529 27.8946 107.565 27.6879 107.58 27.2945C107.604 26.7238 107.518 26.1538 107.328 25.6153C106.98 24.6244 106.343 23.7607 105.499 23.1366C104.654 22.5125 103.642 22.1568 102.593 22.1157C101.144 22.0519 99.7107 22.4357 98.4878 23.215C97.0958 24.1298 95.9744 25.4009 95.2404 26.8962C94.833 27.7028 94.5054 28.5472 94.2621 29.4175C94.0158 30.3414 93.678 31.2384 93.2536 32.0951C93.0198 32.5385 92.7149 32.9405 92.3509 33.2852C91.9747 33.6336 91.5323 33.9028 91.0499 34.0769C90.0674 34.3797 89.0511 34.5593 88.0243 34.6114C87.0317 34.6637 86.0633 34.9377 85.1904 35.4132C84.3832 35.9029 83.7081 36.5825 83.2238 37.3928C82.7396 38.2032 82.4608 39.1197 82.4119 40.0625C82.4209 40.9565 82.5917 41.8415 82.9161 42.6746C83.2371 43.4921 83.4161 44.3585 83.4456 45.2363C83.4116 46.0687 83.1983 46.884 82.8203 47.6265C82.1144 49.0687 81.1109 50.1478 80.3242 51.242C79.565 52.1689 79.0115 53.2467 78.7005 54.4038C78.4996 55.2842 78.5825 56.2057 78.9375 57.036C79.1556 57.5651 79.5193 58.0215 79.9864 58.3522C80.3242 58.5236 80.531 58.574 80.5259 58.5942Z" fill="#455A64"/>
<path d="M106.44 19.7104C106.562 19.7194 106.681 19.7556 106.788 19.8163C107.091 19.9447 107.374 20.1144 107.63 20.3205C108.509 21.0022 109.091 21.9963 109.255 23.0961C109.419 24.1959 109.153 25.3167 108.513 26.2255C108.326 26.4963 108.106 26.7421 107.857 26.9567C107.676 27.1079 107.565 27.1735 107.554 27.1584C107.839 26.8362 108.106 26.4995 108.356 26.1498C108.925 25.2637 109.152 24.2017 108.998 23.1604C108.843 22.1192 108.316 21.1694 107.514 20.487C107.171 20.2076 106.813 19.9483 106.44 19.7104Z" fill="#455A64"/>
<path d="M126.197 80.913C126.303 80.6029 126.389 80.2862 126.454 79.965C126.572 79.0847 126.419 78.1893 126.016 77.3982C125.394 76.237 124.404 75.3149 123.202 74.7761C122.498 74.4433 121.764 74.1815 121.008 73.9945C120.222 73.7928 119.39 73.6264 118.558 73.3541C117.72 73.1259 116.948 72.7045 116.303 72.1236C115.726 71.5454 115.352 70.7949 115.239 69.9856C115.103 69.2342 115.058 68.5232 114.892 67.8878C114.742 67.3 114.465 66.7524 114.08 66.2843C113.516 65.5985 112.767 65.0891 111.921 64.8169C111.321 64.6353 110.963 64.6353 110.963 64.6051C111.049 64.5966 111.135 64.5966 111.22 64.6051C111.467 64.6221 111.712 64.6609 111.952 64.721C112.836 64.9649 113.627 65.4692 114.221 66.1683C114.636 66.6517 114.938 67.222 115.103 67.8374C115.285 68.498 115.34 69.2191 115.482 69.9452C115.585 70.7107 115.94 71.4201 116.49 71.9623C117.108 72.5113 117.845 72.91 118.643 73.1271C119.455 73.3893 120.287 73.5608 121.079 73.7675C121.844 73.9548 122.588 74.2218 123.298 74.5643C124.54 75.133 125.553 76.1051 126.172 77.3226C126.576 78.1499 126.706 79.0839 126.545 79.9902C126.497 80.2319 126.421 80.4671 126.318 80.6911C126.286 80.769 126.245 80.8434 126.197 80.913Z" fill="#455A64"/>
<path d="M87.4091 65.1194C82.8707 63.9091 78.9879 59.4867 77.4045 55.0845C75.8211 50.6823 75.8211 45.8767 76.2296 41.2173C76.5221 37.8437 77.1171 34.2735 79.356 31.7321C82.7346 27.8996 86.4157 25.9431 91.4987 26.1045" fill="#263238"/>
<path d="M113.782 74.9526L109.572 73.8936C110.031 73.5781 110.365 73.1124 110.518 72.5768C110.671 72.0411 110.632 71.469 110.409 70.9588C110.142 70.3048 109.701 69.7366 109.134 69.316C108.566 68.8954 107.895 68.6386 107.191 68.5736L87.9991 66.4053C87.6636 66.3606 87.3227 66.4297 87.0311 66.6015C86.7395 66.7734 86.5139 67.0381 86.3905 67.3533C85.54 69.5183 85.5114 71.3 86.3048 72.6985H86.214L82.5127 73.4347L76.2397 128.773L117.327 126.851L113.782 74.9526Z" fill="#F5F5F5"/>
<path d="M107.741 74.1054C107.489 74.179 107.231 74.2297 106.97 74.2567C106.465 74.3373 105.744 74.4231 104.847 74.5138C100.149 74.9502 95.4134 74.7142 90.7827 73.8129C89.8952 73.6364 89.1841 73.4751 88.695 73.3439C88.438 73.2941 88.1864 73.2198 87.9436 73.1221C88.204 73.1412 88.4622 73.1834 88.7152 73.2481C89.2194 73.3439 89.9304 73.4801 90.818 73.6314C95.444 74.4274 100.149 74.661 104.831 74.3273C105.729 74.2667 106.455 74.2012 106.959 74.1508C107.218 74.1152 107.48 74.1 107.741 74.1054Z" fill="#263238"/>
<path d="M89.169 82.8998C89.5732 82.0604 90.0543 81.2602 90.6062 80.5095C91.0878 79.7113 91.6433 78.9601 92.2652 78.2656C91.8603 79.1057 91.3774 79.9059 90.823 80.6558C90.344 81.4545 89.7902 82.2058 89.169 82.8998Z" fill="#E0E0E0"/>
<path d="M102.411 83.8377C101.129 82.5217 99.976 81.0865 98.9669 79.5515C99.6387 80.1802 100.25 80.8707 100.792 81.6139C101.402 82.3011 101.945 83.0458 102.411 83.8377Z" fill="#E0E0E0"/>
<path d="M96.259 90.8721C95.9691 89.9751 95.7614 89.0535 95.6387 88.1189C95.4288 87.1998 95.3089 86.2625 95.2807 85.3202C95.5713 86.217 95.7789 87.1386 95.9009 88.0735C96.1051 88.9935 96.2249 89.9303 96.259 90.8721Z" fill="#E0E0E0"/>
<path d="M106.369 91.3058C105.658 92.1912 104.879 93.0207 104.04 93.7868C103.261 94.6164 102.418 95.3836 101.518 96.0812C102.23 95.1957 103.009 94.3662 103.848 93.6002C104.631 92.7739 105.473 92.007 106.369 91.3058Z" fill="#E0E0E0"/>
<path d="M92.8098 100.736C90.9516 99.6253 89.4381 98.021 88.4378 96.1014C88.5084 96.056 89.2799 97.2662 90.4952 98.542C91.7105 99.8178 92.8602 100.67 92.8098 100.736Z" fill="#E0E0E0"/>
<path d="M97.1666 108.017C97.1666 108.093 96.0169 108.461 94.6856 109.172C93.3544 109.883 92.3812 110.629 92.3307 110.564C92.9654 109.884 93.7235 109.331 94.5646 108.935C95.3645 108.464 96.2481 108.152 97.1666 108.017Z" fill="#E0E0E0"/>
<path d="M104.252 108.486C103.951 108.232 103.682 107.942 103.45 107.624C102.986 107.069 102.366 106.277 101.72 105.375C101.075 104.472 100.53 103.63 100.152 103.005C99.9268 102.681 99.7406 102.333 99.5972 101.966C99.8654 102.254 100.104 102.568 100.308 102.904L101.937 105.224L103.596 107.513C103.848 107.813 104.068 108.139 104.252 108.486Z" fill="#E0E0E0"/>
<path d="M104.963 114.699C103.982 115.042 102.968 115.279 101.937 115.405C100.917 115.617 99.8775 115.72 98.8358 115.712C99.843 115.459 100.865 115.27 101.897 115.147C102.909 114.937 103.933 114.787 104.963 114.699Z" fill="#E0E0E0"/>
<path d="M93.4906 73.3238C93.4553 73.3238 93.6973 73.0212 93.9041 72.4867C94.1601 71.7873 94.2364 71.0348 94.1259 70.2982C94.0008 69.5559 93.7822 68.8324 93.4754 68.145C93.3268 67.8636 93.2117 67.5657 93.1325 67.2575C93.3431 67.4993 93.5134 67.7734 93.6368 68.0693C94.0036 68.7527 94.2541 69.4923 94.3781 70.2579C94.5 71.0396 94.3932 71.84 94.0705 72.5623C93.9578 72.8685 93.7557 73.1338 93.4906 73.3238Z" fill="#E0E0E0"/>
<path d="M101.165 69.1787C101.525 69.6738 101.782 70.2357 101.921 70.8315C102.061 71.4273 102.08 72.0449 101.977 72.6481C101.902 72.6481 101.892 71.8463 101.665 70.8932C101.438 69.9402 101.11 69.2191 101.165 69.1787Z" fill="#E0E0E0"/>
<path d="M135.783 108.607L154.895 75.0383L157.199 69.214C157.199 69.214 163.16 56.4057 163.573 55.0946C164.052 53.5818 164.894 53.4608 165.439 53.6726C166.286 54.0105 166.558 55.2711 166.185 56.5772C166.054 57.026 163.74 64.0655 163.74 64.0655C164.362 63.529 165.023 63.0385 165.716 62.5981C167.184 61.5896 169.871 61.64 172.363 62.5275C174.854 63.415 175.469 63.884 175.171 64.8622C175.106 65.0458 174.999 65.2123 174.861 65.3494C174.722 65.4864 174.554 65.5905 174.369 65.6539C173.783 65.8989 173.126 65.9133 172.529 65.6943C168.525 64.3328 166.75 66.138 166.75 66.138L166.453 66.8995C166.453 66.8995 169.478 65.9363 171.172 67.2978C171.425 67.4977 171.638 67.7442 171.798 68.024C172.346 68.2031 172.838 68.5223 173.225 68.9499C173.612 69.3776 173.881 69.8989 174.005 70.4622C174.129 71.0256 174.103 71.6116 173.931 72.1621C173.759 72.7126 173.446 73.2087 173.023 73.6011C172.839 73.8106 172.596 73.9594 172.326 74.0278C172.056 74.0962 171.772 74.0811 171.51 73.9844C171.266 73.8179 171.069 73.5901 170.94 73.3238C170.858 73.1905 170.766 73.064 170.663 72.9456L169.524 74.9626C169.524 74.9626 166.715 79.3497 165.706 81.4021L152.545 116.464C152.112 117.618 151.454 118.674 150.608 119.571C149.763 120.468 148.747 121.188 147.62 121.688C146.494 122.188 145.279 122.458 144.046 122.483C142.814 122.508 141.589 122.288 140.443 121.834C139.206 121.346 138.088 120.597 137.166 119.64C136.243 118.682 135.537 117.538 135.095 116.284C134.654 115.029 134.486 113.695 134.605 112.371C134.724 111.046 135.125 109.763 135.783 108.607Z" fill="#FFBE9D"/>
<path d="M156.211 74.9223C156.887 75.366 157.82 75.0635 158.425 74.539C159.03 74.0146 159.433 73.2935 160.018 72.7237C161.717 71.0243 164.556 70.8629 166.185 69.0829C166.412 68.8358 166.614 68.4576 166.417 68.1853C166.221 67.913 165.857 67.9634 165.555 68.0239L157.734 69.572" fill="#FFBE9D"/>
<path d="M157.734 69.5721C157.997 69.4527 158.275 69.3679 158.561 69.3199C159.1 69.1838 159.887 69.0073 160.855 68.8157L164.264 68.0946L165.273 67.8878C165.661 67.7456 166.09 67.7601 166.468 67.9281C166.576 68.0082 166.657 68.1185 166.702 68.2452C166.747 68.3718 166.753 68.509 166.72 68.6392C166.668 68.8527 166.564 69.0502 166.417 69.214C166.154 69.5057 165.858 69.7662 165.535 69.9906C164.234 70.8932 162.807 71.2613 161.667 71.8614C161.123 72.1183 160.623 72.4586 160.185 72.8699C159.781 73.2582 159.463 73.702 159.131 74.0802C158.891 74.4138 158.581 74.691 158.223 74.8922C157.865 75.0935 157.468 75.2139 157.058 75.245C156.458 75.245 156.211 74.9475 156.231 74.9425C156.494 75.0325 156.77 75.0752 157.048 75.0685C157.42 75.007 157.775 74.869 158.091 74.6633C158.407 74.4576 158.677 74.1886 158.884 73.8734C159.207 73.4327 159.552 73.0086 159.917 72.6027C160.374 72.1496 160.9 71.7718 161.475 71.4832C162.65 70.8478 164.072 70.4747 165.273 69.6174C165.562 69.4121 165.829 69.1771 166.069 68.9165C166.291 68.6694 166.367 68.3719 166.21 68.2862C166.054 68.2005 165.706 68.2408 165.358 68.3114L164.35 68.498L160.921 69.1283C159.942 69.2997 159.151 69.4309 158.601 69.5115C158.317 69.577 158.024 69.5974 157.734 69.5721Z" fill="#EB996E"/>
<path d="M166.347 66.9095C166.547 66.4414 166.854 66.0269 167.244 65.6993C167.681 65.372 168.211 65.195 168.757 65.195C169.443 65.1991 170.123 65.3115 170.774 65.5279C171.439 65.7521 172.125 65.9076 172.821 65.9918C173.406 66.0589 173.998 65.9684 174.536 65.7296C174.721 65.6442 174.883 65.5168 175.01 65.3574C175.137 65.1981 175.225 65.0112 175.267 64.8118C175.305 64.6715 175.305 64.5235 175.267 64.3832C175.237 64.3832 175.237 64.5345 175.161 64.7866C175.106 64.9565 175.014 65.1123 174.892 65.243C174.77 65.3736 174.621 65.476 174.455 65.543C173.942 65.7338 173.39 65.7961 172.847 65.7245C172.17 65.6181 171.505 65.4493 170.86 65.2203C170.186 64.9986 169.481 64.8895 168.772 64.8975C168.177 64.9114 167.603 65.1245 167.143 65.5026C166.838 65.7566 166.604 66.0848 166.463 66.4557C166.337 66.7532 166.326 66.9045 166.347 66.9095Z" fill="#EB996E"/>
<path d="M166.321 56.0729C166.124 56.524 165.965 56.9913 165.847 57.4697C165.55 58.4379 165.197 59.5876 164.804 60.8583C164.41 62.1291 164.022 63.2687 163.709 64.2319C163.527 64.6887 163.387 65.1613 163.291 65.6438C163.541 65.219 163.748 64.7695 163.906 64.3025C164.239 63.4553 164.662 62.2854 165.086 60.9491C165.51 59.6128 165.837 58.4278 166.049 57.5252C166.191 57.052 166.282 56.5652 166.321 56.0729Z" fill="#EB996E"/>
<path d="M167.426 69.0173C167.58 69.0395 167.736 69.0395 167.89 69.0173C168.083 68.9843 168.282 68.9933 168.471 69.0438C168.661 69.0942 168.837 69.185 168.989 69.3098C169.077 69.4024 169.139 69.516 169.17 69.6397C169.201 69.7633 169.199 69.8929 169.165 70.0158C169.084 70.3255 168.964 70.6237 168.807 70.9033C168.605 71.254 168.539 71.6667 168.621 72.0631C168.69 72.2731 168.807 72.4642 168.963 72.6209C169.118 72.7776 169.309 72.8957 169.518 72.9657C169.725 73.0313 169.943 73.054 170.159 73.0323C170.375 73.0106 170.584 72.9451 170.774 72.8397C171.127 72.6593 171.417 72.3763 171.606 72.0278C171.879 71.4531 172.066 70.8415 172.161 70.2124C172.234 69.7904 172.234 69.3587 172.161 68.9367C172.145 68.7781 172.084 68.6275 171.984 68.503C171.959 68.503 172.025 68.6644 172.05 68.9518C172.071 69.3632 172.036 69.7756 171.944 70.1772C171.824 70.7733 171.628 71.3513 171.359 71.8967C171.195 72.2037 170.934 72.4479 170.616 72.5911C170.299 72.7343 169.943 72.7685 169.604 72.6884C169.438 72.6347 169.287 72.5429 169.162 72.4203C169.038 72.2977 168.944 72.1478 168.888 71.9824C168.822 71.653 168.878 71.3109 169.044 71.0193C169.201 70.714 169.32 70.3905 169.397 70.0561C169.431 69.8961 169.424 69.73 169.375 69.5737C169.326 69.4175 169.239 69.2763 169.12 69.1636C168.945 69.0248 168.74 68.9289 168.521 68.8834C168.302 68.8379 168.075 68.844 167.859 68.9014C167.71 68.9163 167.563 68.9555 167.426 69.0173Z" fill="#EB996E"/>
<path d="M170.724 72.5472C170.724 72.5472 170.628 72.6783 170.638 72.9607C170.652 73.1588 170.712 73.3509 170.814 73.5216C170.916 73.6923 171.056 73.837 171.223 73.944C171.481 74.0927 171.774 74.1709 172.073 74.1709C172.371 74.1709 172.664 74.0927 172.922 73.944C173.544 73.5854 174.003 72.9998 174.203 72.3102C174.423 71.6351 174.423 70.9077 174.203 70.2326C174.024 69.6869 173.702 69.1993 173.27 68.8207C172.986 68.566 172.655 68.3676 172.297 68.2357C172.17 68.1746 172.03 68.1436 171.889 68.145C172.338 68.3626 172.755 68.6408 173.129 68.972C173.552 69.3847 173.851 69.9077 173.992 70.4818C174.133 71.0558 174.11 71.6578 173.926 72.2194C173.745 72.839 173.341 73.3693 172.791 73.707C172.571 73.836 172.322 73.9073 172.068 73.9143C171.813 73.9214 171.56 73.8639 171.334 73.7473C171.184 73.6597 171.054 73.5411 170.953 73.3994C170.852 73.2576 170.782 73.0961 170.749 72.9254C170.698 72.7035 170.749 72.5472 170.724 72.5472Z" fill="#EB996E"/>
<path d="M164.36 75.714C164.16 75.5791 163.925 75.5071 163.684 75.5072C163.069 75.4473 162.451 75.5946 161.929 75.9258L162.146 76.072C162.214 75.7391 162.261 75.4023 162.287 75.0635C162.464 73.117 161.844 71.6143 161.783 71.6547C161.977 72.7714 162.05 73.9059 162 75.0383C161.975 75.3614 161.933 75.6829 161.874 76.0014L161.813 76.3292L162.091 76.1426C162.563 75.8342 163.115 75.6695 163.679 75.6686C164.098 75.6787 164.35 75.7493 164.36 75.714Z" fill="#EB996E"/>
<path d="M168.338 63.7529C168.258 63.7529 168.369 64.358 168.903 64.8219C169.438 65.2858 170.038 65.3262 170.038 65.2404C170.038 65.1547 169.559 65.0085 169.1 64.6C168.641 64.1916 168.419 63.7226 168.338 63.7529Z" fill="#EB996E"/>
<path d="M108.674 136.463L128.668 136.659L125.315 122.152L126.439 124.89C127.476 127.418 129.241 129.581 131.51 131.103C133.779 132.625 136.45 133.437 139.182 133.437C145.505 133.437 149.877 128.732 152.55 123.004C158.803 109.611 164.829 88.0432 164.829 88.0432L152.641 77.3327C143.816 94.0238 135.526 108.516 135.526 108.516C135.526 108.516 133.131 101.24 131.28 94.7449C129.429 88.25 129.445 84.8412 126.606 81.6038C122.234 76.6217 116.016 75.3862 110.227 73.8936L110.01 100.841L108.674 136.463Z" fill="#DF8F31"/>
<path d="M85.7955 116.418L122.203 123.478L123.973 137.466H68.1513C66.6232 137.485 65.1081 137.185 63.7025 136.585C62.2969 135.986 61.0317 135.1 59.9878 133.983C58.9439 132.867 58.1442 131.546 57.6396 130.104C57.1351 128.661 56.9368 127.129 57.0575 125.606C57.8593 115.41 58.7316 102.853 59.3973 97.5436C59.9015 93.4036 61.5656 89.1224 63.5171 85.4412C66.3359 80.1364 75.7304 73.3389 83.965 72.9859L85.5232 107.664" fill="#DF8F31"/>
<g opacity="0.4">
<path d="M108.674 136.463L128.668 136.659L125.315 122.152L126.439 124.89C127.476 127.418 129.241 129.581 131.51 131.103C133.779 132.625 136.45 133.437 139.182 133.437C145.505 133.437 149.877 128.732 152.55 123.004C158.803 109.611 164.829 88.0432 164.829 88.0432L152.641 77.3327C143.816 94.0238 135.526 108.516 135.526 108.516C135.526 108.516 133.131 101.24 131.28 94.7449C129.429 88.25 129.445 84.8412 126.606 81.6038C122.234 76.6217 116.016 75.3862 110.227 73.8936L110.01 100.841L108.674 136.463Z" fill="black"/>
<path d="M85.7955 116.418L118.633 122.439C119.302 122.563 119.92 122.883 120.407 123.357C120.894 123.832 121.23 124.441 121.371 125.107L123.973 137.496H68.1513C66.6232 137.515 65.1081 137.215 63.7025 136.616C62.2969 136.016 61.0317 135.13 59.9878 134.014C58.9439 132.898 58.1442 131.576 57.6396 130.134C57.1351 128.691 56.9368 127.16 57.0575 125.636C57.8593 115.44 58.7316 102.884 59.3973 97.5738C59.9015 93.4338 61.5656 89.1526 63.5171 85.4715C66.3359 80.1666 75.7304 73.3692 83.965 73.0162L85.5232 107.694" fill="black"/>
</g>
<path d="M78.8618 115.379C78.8488 115.269 78.8488 115.157 78.8618 115.047C78.8618 114.8 78.8618 114.482 78.8618 114.094C78.8618 113.231 78.8618 112.041 78.8618 110.564C78.8618 107.604 78.8064 103.504 78.5795 99.0009C78.4635 96.7418 78.3172 94.5936 78.1609 92.6472C78.0878 90.9194 77.8428 89.2031 77.4297 87.5239C77.1413 86.403 76.5919 85.3662 75.8262 84.4983C75.5297 84.1954 75.2165 83.9092 74.8882 83.641C75.2732 83.8391 75.6226 84.0998 75.922 84.4125C76.7384 85.2742 77.326 86.3264 77.6314 87.4734C78.0718 89.1662 78.3355 90.9 78.4181 92.6472C78.5895 94.5987 78.7408 96.7468 78.8568 99.006C79.0888 103.544 79.114 107.624 79.0636 110.604C79.0333 112.087 78.993 113.287 78.9577 114.134L78.9022 115.087C78.9002 115.186 78.8867 115.284 78.8618 115.379Z" fill="#263238"/>
<path d="M121.497 124.486C121.113 124.062 120.666 123.7 120.171 123.412C119.583 123.092 118.958 122.843 118.31 122.671C117.559 122.454 116.677 122.288 115.703 122.091C111.81 121.294 106.44 120.19 100.49 119.066C94.5394 117.941 89.1236 117.049 85.2055 116.423L80.5612 115.682L79.3006 115.47C79.1521 115.452 79.0054 115.422 78.8618 115.379C79.0106 115.38 79.1591 115.394 79.3056 115.42L80.5763 115.581C81.6756 115.727 83.2691 115.949 85.2307 116.242C89.1589 116.827 94.5798 117.694 100.535 118.808C106.49 119.923 111.861 121.052 115.739 121.889C116.712 122.101 117.594 122.283 118.351 122.515C119.006 122.7 119.634 122.968 120.222 123.311C120.599 123.525 120.939 123.797 121.23 124.118C121.308 124.198 121.379 124.284 121.442 124.375C121.477 124.436 121.502 124.486 121.497 124.486Z" fill="#263238"/>
<path d="M78.9728 115.379C78.9728 115.425 78.3021 115.581 77.2633 116.005C76.6569 116.255 76.0673 116.545 75.4984 116.872C74.8105 117.282 74.1547 117.744 73.5368 118.254C72.9359 118.775 72.3762 119.341 71.8627 119.948C71.4401 120.449 71.0526 120.978 70.7028 121.531C70.1078 122.484 69.8355 123.13 69.7901 123.11C69.8215 122.947 69.874 122.79 69.9465 122.641C70.1182 122.226 70.317 121.824 70.5415 121.436C70.8782 120.86 71.2574 120.311 71.6761 119.792C72.7112 118.522 73.9774 117.459 75.4076 116.66C75.987 116.333 76.5925 116.055 77.2179 115.828C77.6386 115.671 78.07 115.545 78.5089 115.45C78.6594 115.405 78.8156 115.381 78.9728 115.379Z" fill="#263238"/>
<path d="M125.985 124.093C125.951 123.979 125.925 123.863 125.91 123.745C125.869 123.493 125.814 123.16 125.748 122.737C125.607 121.864 125.421 120.604 125.209 119.04C124.785 115.919 124.271 111.592 123.837 106.802C123.404 102.011 123.146 97.6646 123.005 94.5129C122.935 92.9396 122.894 91.6638 122.874 90.7814C122.874 90.3612 122.874 90.025 122.874 89.7728C122.863 89.6554 122.863 89.5373 122.874 89.4199C122.901 89.5355 122.915 89.654 122.914 89.7728L122.98 90.7814C123.035 91.689 123.106 92.9547 123.197 94.5028C123.383 97.6494 123.676 101.991 124.104 106.777C124.533 111.562 125.022 115.889 125.4 119.015C125.587 120.558 125.743 121.814 125.854 122.721C125.9 123.14 125.94 123.473 125.97 123.73C125.991 123.85 125.996 123.972 125.985 124.093Z" fill="#263238"/>
<path d="M138.057 118.672C138.057 118.672 137.941 118.561 137.765 118.339C137.521 118.018 137.297 117.681 137.094 117.331C135.741 115.021 135.117 112.357 135.304 109.686C135.33 109.285 135.383 108.885 135.466 108.491C135.483 108.344 135.521 108.2 135.576 108.063C135.622 108.063 135.526 108.688 135.491 109.696C135.406 112.329 136.015 114.937 137.256 117.26C137.73 118.133 138.098 118.642 138.057 118.672Z" fill="#263238"/>
<path d="M78.7156 96.641C78.7156 96.641 78.6501 96.6662 78.529 96.6813C78.3471 96.7105 78.1635 96.7291 77.9794 96.7368C77.303 96.7652 76.6256 96.711 75.9623 96.5754C74.9771 96.3774 74.0155 96.0765 73.0931 95.6778C72.0492 95.2441 70.9398 94.6693 69.78 94.1095C68.6943 93.5643 67.5702 93.0991 66.4166 92.7178C65.4805 92.4034 64.5075 92.2119 63.5221 92.148C62.6093 92.1183 61.6971 92.2219 60.8142 92.4556C60.8684 92.4195 60.928 92.3923 60.9907 92.3749C61.1541 92.3034 61.3227 92.2444 61.495 92.1984C62.1523 92.0223 62.8319 91.9441 63.512 91.9664C64.5188 91.9979 65.5165 92.1676 66.4771 92.4707C67.6456 92.8466 68.7821 93.3154 69.8759 93.8725C71.0407 94.4474 72.14 95.0122 73.1687 95.4509C74.0743 95.8532 75.0166 96.1673 75.9825 96.3888C76.8816 96.5726 77.7981 96.6572 78.7156 96.641Z" fill="#FAFAFA"/>
<path d="M84.9735 95.4156C84.0048 95.7105 83.0129 95.923 82.0084 96.051C81.0133 96.2677 80.0007 96.3942 78.9829 96.4291C79.9516 96.1343 80.9435 95.9217 81.9479 95.7938C82.943 95.5768 83.9557 95.4502 84.9735 95.4156Z" fill="#FAFAFA"/>
<path d="M78.4887 106.237C78.2566 106.368 78.0116 106.474 77.7575 106.555C77.2785 106.741 76.5775 106.993 75.7052 107.276C73.4239 108.008 71.0956 108.584 68.7362 109C67.3545 109.243 66.0283 109.419 64.8181 109.54C63.7447 109.679 62.6599 109.707 61.5807 109.626C60.8486 109.567 60.1356 109.363 59.483 109.026C59.3055 108.933 59.1368 108.825 58.9787 108.703C58.9205 108.663 58.8679 108.616 58.8224 108.562C58.8224 108.562 59.0644 108.718 59.5233 108.935C60.1769 109.23 60.8797 109.401 61.5958 109.439C62.6619 109.494 63.7308 109.447 64.7878 109.298C65.993 109.162 67.3092 108.98 68.6858 108.738C71.0341 108.322 73.3573 107.775 75.6446 107.099C76.5221 106.837 77.228 106.595 77.7172 106.459C77.9685 106.366 78.2264 106.292 78.4887 106.237Z" fill="#FAFAFA"/>
<path d="M84.8071 108.895C83.8985 109.039 82.9785 109.098 82.0589 109.071C81.1422 109.129 80.222 109.1 79.3107 108.985C80.2192 108.841 81.1393 108.782 82.0589 108.809C82.9756 108.751 83.8958 108.78 84.8071 108.895Z" fill="#FAFAFA"/>
<path d="M58.8577 131.869C58.8635 131.776 58.8822 131.684 58.9132 131.597C58.9636 131.395 59.0342 131.148 59.1149 130.84L59.2661 130.296C59.3317 130.099 59.4174 129.892 59.4981 129.665C59.6794 129.15 59.8882 128.645 60.1234 128.152L60.5318 127.29C60.6781 126.988 60.8647 126.695 61.0361 126.382C61.4164 125.721 61.8305 125.08 62.2766 124.461C64.3367 121.613 67.0227 119.276 70.128 117.628C70.8033 117.272 71.4968 116.95 72.2056 116.665C72.5434 116.539 72.8561 116.393 73.1737 116.292L74.0865 116.005C74.6094 115.838 75.1414 115.702 75.6799 115.596C75.9169 115.546 76.1338 115.49 76.3355 115.455L76.9003 115.379L77.6768 115.284C77.7671 115.27 77.8589 115.27 77.9491 115.284C77.8631 115.316 77.7733 115.339 77.6819 115.349L76.9154 115.495L76.3607 115.591L75.7102 115.753C75.2463 115.879 74.7017 115.984 74.1419 116.196L73.2443 116.499C72.9317 116.605 72.6191 116.751 72.2913 116.882C71.5929 117.172 70.9096 117.497 70.244 117.855C68.7276 118.694 67.3 119.684 65.9829 120.81C64.6821 121.958 63.4995 123.234 62.4531 124.618C61.9992 125.273 61.5505 125.888 61.2076 126.509C61.0311 126.816 60.8445 127.104 60.7033 127.401L60.2797 128.248C59.9923 128.783 59.8158 129.297 59.6242 129.761C59.5384 129.983 59.4477 130.19 59.3771 130.381L59.2006 130.916L58.9535 131.657C58.9293 131.731 58.8972 131.802 58.8577 131.869Z" fill="#FAFAFA"/>
<path d="M84.1465 116.378C83.3031 117.111 82.6022 117.993 82.079 118.98C81.529 120.059 81.1384 121.212 80.9192 122.404C80.6584 123.869 80.49 125.35 80.415 126.836C80.3522 128.334 80.1837 129.825 79.9107 131.299C79.6637 132.507 79.2371 133.671 78.645 134.753C78.2496 135.478 77.7386 136.134 77.1322 136.695C76.967 136.848 76.79 136.988 76.6027 137.113C76.4767 137.199 76.4061 137.244 76.401 137.234C77.2597 136.518 77.9749 135.645 78.5089 134.662C79.0676 133.589 79.4684 132.441 79.6989 131.254C79.9674 129.789 80.1358 128.308 80.2032 126.821C80.2687 125.322 80.4372 123.829 80.7074 122.353C80.9423 121.145 81.357 119.979 81.9379 118.894C82.3342 118.162 82.8449 117.498 83.4506 116.927C83.6093 116.775 83.7778 116.634 83.9549 116.504C84.0132 116.454 84.0776 116.412 84.1465 116.378Z" fill="#FAFAFA"/>
<path d="M92.7543 137.552C92.6837 137.552 92.7543 133.205 92.9409 127.85C93.1275 122.495 93.3191 118.153 93.3897 118.153C93.4603 118.153 93.3897 122.5 93.2031 127.86C93.0165 133.22 92.8249 137.557 92.7543 137.552Z" fill="#FAFAFA"/>
<path d="M106.44 136.806C106.345 136.603 106.271 136.392 106.218 136.175C106.136 135.927 106.067 135.674 106.011 135.419C105.946 135.121 105.855 134.783 105.8 134.41C105.643 133.521 105.553 132.621 105.532 131.718C105.483 129.499 105.824 127.288 106.541 125.187C106.833 124.332 107.189 123.499 107.605 122.696C107.771 122.348 107.958 122.056 108.109 121.794C108.237 121.565 108.379 121.345 108.533 121.133C108.645 120.941 108.779 120.761 108.931 120.599C108.977 120.624 108.427 121.405 107.766 122.782C107.374 123.585 107.037 124.414 106.758 125.263C106.067 127.342 105.726 129.522 105.749 131.713C105.761 132.605 105.83 133.496 105.956 134.38C106.208 135.883 106.49 136.79 106.44 136.806Z" fill="#FAFAFA"/>
<path d="M83.1985 81.0743C83.1985 81.1146 82.4018 80.7667 81.0907 80.3431C77.6758 79.2407 74.0567 78.9201 70.5011 79.4052C69.1396 79.5918 68.3076 79.8036 68.2975 79.7582C68.4783 79.6709 68.6699 79.6082 68.8673 79.5716C69.3949 79.4257 69.9303 79.3095 70.4709 79.2237C74.0534 78.6284 77.7284 78.9529 81.1512 80.1666C81.6655 80.348 82.1704 80.555 82.664 80.7869C82.8533 80.8603 83.0329 80.9569 83.1985 81.0743Z" fill="#FAFAFA"/>
<path d="M123.035 102.299C122.412 102.331 121.787 102.321 121.165 102.269C120.01 102.223 118.416 102.163 116.656 102.122C114.897 102.082 113.303 102.057 112.148 102.047C111.524 102.067 110.899 102.045 110.277 101.981C110.443 101.942 110.612 101.922 110.782 101.921C111.104 101.921 111.573 101.875 112.153 101.86C113.308 101.825 114.902 101.815 116.667 101.86C118.431 101.905 120.025 101.996 121.205 102.092C121.78 102.137 122.244 102.178 122.566 102.218C122.725 102.228 122.882 102.255 123.035 102.299Z" fill="#FAFAFA"/>
<path d="M132.99 100.388C132.99 100.433 132.359 100.65 131.376 101.134C128.804 102.399 126.625 104.341 125.073 106.751C124.478 107.674 124.19 108.289 124.15 108.264C124.178 108.105 124.232 107.952 124.311 107.81C124.488 107.41 124.69 107.021 124.916 106.646C125.656 105.399 126.585 104.274 127.67 103.312C128.751 102.348 129.974 101.554 131.295 100.957C131.694 100.778 132.103 100.623 132.521 100.494C132.672 100.438 132.829 100.402 132.99 100.388Z" fill="#FAFAFA"/>
<path d="M128.078 84.226C127.21 84.1962 126.343 84.3174 125.516 84.584C124.624 84.8956 123.759 85.2801 122.929 85.7337C121.906 86.3012 120.836 86.7819 119.732 87.1709C117.692 87.8246 115.522 87.9649 113.414 87.5793C112.781 87.4643 112.158 87.2956 111.553 87.0751C111.327 87.0042 111.109 86.9096 110.903 86.7927C110.903 86.7422 111.851 87.1406 113.424 87.3978C115.502 87.7223 117.628 87.5583 119.632 86.9187C120.723 86.5326 121.783 86.064 122.803 85.5169C123.648 85.0688 124.53 84.6976 125.441 84.4075C126.06 84.2109 126.707 84.1172 127.357 84.1302C127.526 84.1351 127.695 84.1519 127.861 84.1806C128.018 84.2008 128.083 84.2159 128.078 84.226Z" fill="#FAFAFA"/>
<path d="M125.562 118.022C125.379 118.138 125.182 118.231 124.977 118.299C124.785 118.38 124.548 118.476 124.266 118.566C123.983 118.657 123.666 118.778 123.308 118.869C122.463 119.104 121.604 119.283 120.736 119.403C119.673 119.541 118.601 119.597 117.529 119.57C116.457 119.53 115.39 119.41 114.337 119.212C113.482 119.039 112.639 118.808 111.816 118.521C111.457 118.41 111.15 118.274 110.878 118.163C110.605 118.052 110.373 117.946 110.182 117.855C109.981 117.772 109.79 117.667 109.612 117.543C109.612 117.497 110.464 117.901 111.876 118.344C112.703 118.605 113.545 118.813 114.397 118.97C116.483 119.356 118.616 119.421 120.721 119.161C121.58 119.056 122.432 118.897 123.272 118.687C124.694 118.324 125.547 117.976 125.562 118.022Z" fill="#FAFAFA"/>
<path d="M137.15 132.948C137.078 132.902 137.012 132.848 136.953 132.787C136.837 132.671 136.645 132.514 136.449 132.282C135.84 131.631 135.305 130.914 134.855 130.144C133.4 127.566 132.626 124.659 132.606 121.698C132.61 118.758 132.994 115.83 133.751 112.989C134.023 111.9 134.255 111.023 134.442 110.422C134.528 110.145 134.598 109.918 134.654 109.732C134.709 109.545 134.734 109.49 134.744 109.495C134.743 109.579 134.73 109.662 134.704 109.742C134.664 109.933 134.608 110.165 134.543 110.448C134.391 111.098 134.185 111.96 133.933 113.035C133.236 115.866 132.883 118.772 132.879 121.688C132.895 124.601 133.624 127.466 135.002 130.033C135.434 130.802 135.94 131.527 136.514 132.197C136.913 132.681 137.165 132.928 137.15 132.948Z" fill="#FAFAFA"/>
<path d="M155.5 115.823C154.694 115.184 153.794 114.674 152.832 114.31C151.78 113.946 150.701 113.665 149.605 113.468C148.244 113.239 146.897 112.931 145.571 112.545C143.177 111.767 140.992 110.453 139.182 108.703C138.636 108.175 138.13 107.607 137.669 107.004C137.503 106.792 137.392 106.615 137.311 106.499C137.23 106.383 137.195 106.318 137.205 106.313C137.4 106.509 137.582 106.718 137.75 106.938C138.234 107.514 138.754 108.058 139.308 108.567C141.126 110.254 143.289 111.525 145.647 112.293C146.959 112.676 148.29 112.989 149.635 113.231C150.741 113.443 151.827 113.745 152.883 114.134C153.596 114.403 154.266 114.777 154.87 115.243C155.035 115.367 155.19 115.504 155.334 115.652C155.46 115.763 155.51 115.818 155.5 115.823Z" fill="#FAFAFA"/>
<path d="M161.269 98.9959C161.074 98.857 160.894 98.7 160.729 98.5269C160.563 98.3706 160.361 98.179 160.109 97.9672C159.857 97.7554 159.605 97.5033 159.262 97.2612C158.517 96.6604 157.735 96.1063 156.922 95.6022C154.927 94.3682 152.758 93.4401 150.488 92.8489C149.56 92.6101 148.618 92.4266 147.669 92.2993C147.265 92.2337 146.897 92.2085 146.574 92.1782C146.252 92.148 145.969 92.1228 145.742 92.1127C145.504 92.1117 145.266 92.0897 145.031 92.0471C145.267 92.0108 145.505 91.9989 145.742 92.0118C146.023 91.9978 146.304 91.9978 146.585 92.0118C146.907 92.0118 147.285 92.037 147.694 92.0925C148.654 92.1975 149.605 92.366 150.543 92.5968C151.692 92.8912 152.818 93.2687 153.911 93.7263C154.996 94.1994 156.045 94.7522 157.048 95.3803C157.864 95.9008 158.644 96.4752 159.383 97.0999C159.705 97.357 159.968 97.6041 160.21 97.8462C160.417 98.0342 160.614 98.2328 160.8 98.4412C160.975 98.6088 161.133 98.7947 161.269 98.9959Z" fill="#FAFAFA"/>
<path d="M117.146 75.8501C116.85 76.0476 116.527 76.2021 116.187 76.309C115.392 76.621 114.575 76.8738 113.742 77.0654C112.912 77.2608 112.07 77.3957 111.22 77.4688C110.87 77.5221 110.513 77.5221 110.162 77.4688C110.162 77.3881 111.76 77.257 113.691 76.7981C115.623 76.3393 117.115 75.7745 117.146 75.8501Z" fill="#FAFAFA"/>
<path d="M135.032 146.871C135.097 147.096 135.105 147.333 135.055 147.562C135.005 147.791 134.899 148.004 134.745 148.181C134.592 148.358 134.396 148.494 134.177 148.576C133.957 148.658 133.721 148.684 133.489 148.651C133.22 148.613 132.968 148.497 132.764 148.318C132.559 148.139 132.412 147.904 132.339 147.642L131.91 146.059H131.976C132.02 146.287 132.008 146.523 131.943 146.747C131.878 146.97 131.76 147.175 131.6 147.344C131.44 147.513 131.242 147.641 131.022 147.718C130.803 147.796 130.568 147.82 130.337 147.788C129.677 147.788 129.107 146.825 128.915 146.316C128.416 146.364 127.914 146.275 127.463 146.058C127.011 145.841 126.627 145.505 126.353 145.086L123.393 140.467L117.912 136.458L121.23 124.612L133.025 132.247C133.489 132.61 133.559 132.751 134.296 133.442L141.91 140.446C141.048 140.951 140.317 140.925 139.116 140.446C137.916 139.967 132.662 136.412 132.662 136.412L135.032 146.825" fill="#FFBE9D"/>
<path d="M124.942 137.128C124.942 137.128 125.078 137.189 125.289 137.335L125.683 137.607C125.87 137.725 126.039 137.867 126.187 138.031C126.362 138.232 126.498 138.462 126.59 138.712C126.681 138.979 126.777 139.251 126.878 139.539L127.523 141.435C127.972 142.786 128.365 144.006 128.638 144.899C128.81 145.372 128.94 145.86 129.026 146.356C128.797 145.907 128.608 145.437 128.461 144.955C128.144 144.077 127.72 142.867 127.271 141.52C127.054 140.85 126.843 140.209 126.646 139.619C126.555 139.327 126.469 139.05 126.384 138.787C126.308 138.556 126.194 138.34 126.046 138.147C125.918 137.989 125.773 137.847 125.612 137.723L125.249 137.416C125.032 137.244 124.931 137.143 124.942 137.128Z" fill="#EB996E"/>
<path d="M132.037 146.331C131.961 146.17 131.906 146.001 131.87 145.827L131.492 144.475C131.169 143.336 130.741 141.757 130.191 140.038C129.641 138.318 129.066 136.785 128.376 135.837C128.118 135.459 127.791 135.132 127.412 134.874C127.135 134.703 126.959 134.652 126.964 134.622C127.01 134.621 127.057 134.63 127.1 134.647C127.225 134.68 127.347 134.725 127.463 134.783C127.882 135.017 128.245 135.339 128.527 135.726C129.278 136.685 129.883 138.248 130.438 139.957C130.993 141.667 131.396 143.275 131.668 144.43C131.805 145.005 131.905 145.474 131.971 145.802C132.019 145.974 132.041 146.152 132.037 146.331Z" fill="#EB996E"/>
<path d="M135.082 147.047C134.991 146.88 134.922 146.702 134.876 146.518C134.749 146.114 134.593 145.625 134.407 145.045C134.023 143.8 133.514 142.075 132.964 140.169C132.415 138.263 131.956 136.589 131.578 135.278C131.447 134.792 131.165 134.36 130.771 134.047C130.611 133.944 130.442 133.857 130.267 133.785C130.316 133.773 130.368 133.773 130.418 133.785C130.559 133.817 130.694 133.873 130.816 133.951C131.257 134.254 131.582 134.696 131.739 135.207C132.152 136.453 132.642 138.177 133.201 140.083C133.761 141.989 134.235 143.729 134.573 144.985C134.724 145.57 134.855 146.069 134.956 146.498C135.017 146.676 135.06 146.86 135.082 147.047Z" fill="#EB996E"/>
<path d="M201.327 17.0782C201.21 17.0693 201.092 17.0693 200.974 17.0782L199.926 17.1084C199.694 17.1084 199.421 17.1084 199.149 17.1437L198.226 17.2748L197.147 17.4312L195.937 17.7287C193.864 18.2433 191.889 19.0951 190.092 20.25C187.435 21.9422 185.199 24.2194 183.556 26.9077C181.913 29.596 180.906 32.6243 180.612 35.7612C180.533 36.702 180.514 37.6469 180.557 38.5901C180.592 39.0641 180.582 39.5532 180.653 40.0323C180.723 40.5113 180.799 41.0005 180.869 41.4896C181.239 43.4937 181.901 45.4324 182.836 47.2433C183.831 49.1406 185.097 50.8833 186.593 52.417C188.187 53.9844 190.014 55.2958 192.009 56.3049C194.073 57.3611 196.307 58.044 198.609 58.3219C199.192 58.4088 199.78 58.4577 200.369 58.4682C200.962 58.5128 201.556 58.5246 202.149 58.5035C203.347 58.454 204.537 58.3039 205.709 58.0547C208.239 57.5065 210.645 56.4925 212.804 55.0644L212.593 55.0896L219.819 57.9891L220.247 58.1606L220.126 57.7168L217.998 49.9915L217.963 50.1781C219.925 47.5805 221.246 44.5573 221.821 41.3534C222.097 39.8576 222.192 38.3337 222.103 36.8151C222.086 36.0866 222.017 35.3603 221.896 34.6417C221.843 34.2853 221.787 33.9324 221.73 33.5827C221.669 33.2348 221.564 32.8969 221.478 32.5742C220.267 27.8234 217.408 23.6574 213.41 20.8198C211.934 19.7636 210.321 18.9152 208.614 18.2985L207.53 17.9102L206.521 17.648L205.583 17.416C205.281 17.3606 204.988 17.3303 204.716 17.2849C204.171 17.2194 203.708 17.1236 203.269 17.1034L202.21 17.0681H201.559C201.486 17.0627 201.411 17.0627 201.338 17.0681C201.409 17.0909 201.484 17.1012 201.559 17.0983L202.205 17.1538L203.259 17.2244C203.677 17.2547 204.151 17.3606 204.696 17.4412C208.619 18.1228 212.259 19.9283 215.175 22.6388C218.092 25.3492 220.158 28.848 221.125 32.7104C221.2 33.0432 221.306 33.376 221.367 33.7189C221.427 34.0618 221.468 34.4047 221.523 34.7577C221.639 35.4631 221.703 36.176 221.715 36.8907C221.794 38.3746 221.696 39.8626 221.422 41.3232C220.837 44.4568 219.526 47.4098 217.595 49.9461L217.529 50.0318L217.56 50.1377C218.232 52.6322 218.935 55.2089 219.668 57.8681L219.975 57.5958L212.749 54.6862L212.638 54.6408L212.532 54.7064C209.433 56.7597 205.829 57.9215 202.114 58.0648C201.534 58.085 200.953 58.0749 200.374 58.0345C199.799 58.024 199.224 57.9751 198.655 57.8883C196.404 57.6159 194.219 56.9484 192.2 55.9166C190.249 54.9291 188.459 53.6486 186.895 52.1195C185.429 50.6251 184.185 48.9267 183.204 47.0768C182.294 45.2995 181.648 43.3984 181.288 41.4341C181.212 40.9299 181.137 40.4811 181.066 40.0071C180.996 39.5331 181.006 39.059 180.97 38.5901C180.923 37.6657 180.936 36.7392 181.011 35.8166C181.285 32.7289 182.26 29.7444 183.859 27.0892C185.459 24.434 187.642 22.1779 190.244 20.492C192.01 19.324 193.952 18.4487 195.997 17.9001L197.187 17.5824L198.256 17.4059L199.174 17.2547C199.457 17.2244 199.714 17.2143 199.941 17.1992L200.985 17.1235C201.1 17.1205 201.215 17.1053 201.327 17.0782Z" fill="#455A64"/>
<path d="M192.828 34.3848V42.7368H191.772V38.8728H187.284V42.7368H186.228V34.3848H187.284V37.8888H191.772V34.3848H192.828ZM200.709 39.9528H196.269C196.333 40.5688 196.537 41.0608 196.881 41.4288C197.233 41.7888 197.709 41.9688 198.309 41.9688C198.669 41.9688 199.017 41.8968 199.353 41.7528C199.697 41.6008 200.045 41.3808 200.397 41.0928H200.445V42.1488C200.093 42.4048 199.745 42.5928 199.401 42.7128C199.057 42.8248 198.689 42.8808 198.297 42.8808C197.657 42.8808 197.101 42.7408 196.629 42.4608C196.157 42.1808 195.793 41.7928 195.537 41.2968C195.289 40.7928 195.165 40.2168 195.165 39.5688C195.165 38.9528 195.277 38.4008 195.501 37.9128C195.733 37.4168 196.061 37.0288 196.485 36.7488C196.909 36.4688 197.405 36.3288 197.973 36.3288C198.549 36.3288 199.041 36.4728 199.449 36.7608C199.865 37.0408 200.177 37.4288 200.385 37.9248C200.601 38.4208 200.709 38.9808 200.709 39.6048V39.9528ZM197.985 37.2048C197.489 37.2048 197.093 37.3848 196.797 37.7448C196.501 38.1048 196.325 38.5688 196.269 39.1368H199.617C199.561 38.5528 199.397 38.0848 199.125 37.7328C198.861 37.3808 198.481 37.2048 197.985 37.2048ZM202.673 33.6888H203.729V42.7368H202.673V33.6888ZM206.036 33.6888H207.092V42.7368H206.036V33.6888ZM212.087 42.8808C211.175 42.8808 210.463 42.5848 209.951 41.9928C209.439 41.3928 209.183 40.5968 209.183 39.6048C209.183 38.6128 209.439 37.8208 209.951 37.2288C210.463 36.6288 211.175 36.3288 212.087 36.3288C212.999 36.3288 213.711 36.6288 214.223 37.2288C214.735 37.8208 214.991 38.6128 214.991 39.6048C214.991 40.5968 214.735 41.3928 214.223 41.9928C213.711 42.5848 212.999 42.8808 212.087 42.8808ZM212.087 41.9688C212.671 41.9688 213.111 41.7528 213.407 41.3208C213.703 40.8888 213.851 40.3168 213.851 39.6048C213.851 38.8928 213.703 38.3208 213.407 37.8888C213.111 37.4568 212.671 37.2408 212.087 37.2408C211.503 37.2408 211.063 37.4568 210.767 37.8888C210.479 38.3208 210.335 38.8928 210.335 39.6048C210.335 40.3168 210.479 40.8888 210.767 41.3208C211.063 41.7528 211.503 41.9688 212.087 41.9688ZM217.243 33.6888H218.299V40.2168H217.243V33.6888ZM217.771 42.8808C217.547 42.8808 217.359 42.8048 217.207 42.6528C217.055 42.5008 216.979 42.3128 216.979 42.0888C216.979 41.8568 217.051 41.6648 217.195 41.5128C217.347 41.3528 217.539 41.2728 217.771 41.2728C218.003 41.2728 218.191 41.3528 218.335 41.5128C218.487 41.6648 218.563 41.8568 218.563 42.0888C218.563 42.3128 218.487 42.5008 218.335 42.6528C218.191 42.8048 218.003 42.8808 217.771 42.8808Z" fill="black"/>
</svg>
