<svg width="319" height="290" viewBox="0 0 319 290" fill="none" xmlns="http://www.w3.org/2000/svg">
<path d="M258.811 57.7802C260.365 57.0935 261.684 55.9662 262.605 54.5377C263.526 53.1091 264.007 51.442 263.99 49.7426C263.99 44.9423 260.374 41.038 255.874 41.0184C251.375 40.9987 247.712 44.8704 247.693 49.6707C247.661 51.384 248.137 53.0685 249.061 54.5117C249.985 55.9549 251.316 57.0921 252.885 57.7802C240.348 59.6702 240.917 73.2994 240.917 73.2994L270.563 73.4367C270.563 73.4367 271.243 59.6571 258.811 57.7802Z" fill="#F5F5F5"/>
<path d="M83.639 6.85383L64.2612 0L45.0731 6.76227C42.6272 7.90022 40.4952 8.58037 40.4952 10.8301V22.0199C40.4711 29.8789 42.663 37.5855 46.8193 44.2556C51.0026 51.0542 57.1637 56.4121 64.4771 59.6113C72.325 57.1 78.1716 50.4162 81.7555 44.6938C85.9069 38.0219 88.0963 30.3161 88.0731 22.4581V12.3931C88.0469 9.18858 86.3204 7.62554 83.639 6.85383Z" fill="#F5F5F5"/>
<path d="M70.6769 24.9171C70.6815 23.9185 70.4073 22.9384 69.885 22.0873C69.3627 21.2362 68.6131 20.5478 67.7207 20.0997C66.8283 19.6516 65.8285 19.4616 64.8339 19.551C63.8393 19.6404 62.8895 20.0058 62.0913 20.6059C61.2932 21.2061 60.6784 22.0171 60.3164 22.9478C59.9543 23.8784 59.8593 24.8917 60.042 25.8734C60.2247 26.8552 60.6779 27.7664 61.3506 28.5045C62.0232 29.2425 62.8886 29.7781 63.8492 30.0509V38.0754H66.7791V30.0509C67.8991 29.7362 68.8858 29.0646 69.5893 28.138C70.2928 27.2114 70.6747 26.0805 70.6769 24.9171Z" fill="#EBEBEB"/>
<path d="M248.393 110.557L251.695 112.349L250.211 114.834L246.875 112.872L246.941 116.541H244.089V112.84L240.787 114.815L239.328 112.33L242.631 110.538L239.328 108.72L240.787 106.234L244.115 108.275V104.573H246.967L246.901 108.275L250.237 106.274L251.721 108.759L248.393 110.557Z" fill="#E0E0E0"/>
<path d="M288.064 110.557L291.367 112.349L289.882 114.834L286.547 112.872L286.612 116.541H283.761V112.84L280.458 114.815L279 112.33L282.303 110.538L279 108.72L280.458 106.234L283.787 108.275V104.573H286.639L286.573 108.275L289.909 106.274L291.393 108.759L288.064 110.557Z" fill="#E0E0E0"/>
<path d="M261.786 110.557L265.088 112.349L263.604 114.834L260.268 112.872L260.334 116.541H257.482L257.515 112.84L254.18 114.841L252.721 112.356L256.024 110.564L252.721 108.746L254.18 106.261L257.515 108.262L257.482 104.56H260.334L260.268 108.262L263.604 106.261L265.088 108.746L261.786 110.557Z" fill="#E0E0E0"/>
<path d="M301.457 110.557L304.76 112.349L303.276 114.834L299.94 112.872L300.006 116.541H297.154L297.187 112.84L293.852 114.841L292.393 112.356L295.696 110.564L292.393 108.746L293.852 106.261L297.187 108.262L297.154 104.56H300.006L299.94 108.262L303.276 106.261L304.76 108.746L301.457 110.557Z" fill="#E0E0E0"/>
<path d="M275.153 110.557L278.462 112.349L276.977 114.834L273.642 112.872L273.701 116.541H270.849L270.882 112.84L267.547 114.841L266.088 112.356L269.398 110.564L266.114 108.739L267.573 106.254L270.908 108.255L270.876 104.554H273.727L273.668 108.255L277.003 106.254L278.488 108.739L275.153 110.557Z" fill="#E0E0E0"/>
<path d="M314.824 110.557L318.134 112.349L316.649 114.834L313.314 112.872L313.373 116.541H310.521L310.554 112.84L307.218 114.841L305.76 112.356L309.069 110.564L305.786 108.739L307.245 106.254L310.58 108.255L310.547 104.554H313.399L313.34 108.255L316.675 106.254L318.16 108.739L314.824 110.557Z" fill="#E0E0E0"/>
<path d="M135.906 267.103V287.416H165.61H198.375V267.103H135.906Z" fill="#F5F5F5"/>
<path d="M133.284 261.42V267.103H200.56V261.42H165.61H133.284Z" fill="#EBEBEB"/>
<path d="M166.918 287.416H198.375V267.103H200.56V261.42H165.61V266.574L166.918 287.416Z" fill="#EBEBEB"/>
<path d="M157.311 270.373H144.643V273.434H157.311V270.373Z" fill="#E0E0E0"/>
<path d="M159.28 277.26H143.008V283.715H159.28V277.26Z" fill="white"/>
<path d="M145.513 241.133V261.446H175.224H207.989V241.133H145.513Z" fill="#F5F5F5"/>
<path d="M142.891 235.45V241.133H210.173V235.45H175.224H142.891Z" fill="#EBEBEB"/>
<path d="M176.532 261.446H207.989V241.133H210.173V235.45H175.224V240.61L176.532 261.446Z" fill="#EBEBEB"/>
<path d="M166.918 244.41H154.25V247.47H166.918V244.41Z" fill="#E0E0E0"/>
<path d="M168.893 251.29H152.622V257.745H168.893V251.29Z" fill="white"/>
<path d="M280 287.573C280 287.665 217.315 287.743 140.007 287.743C62.6982 287.743 0 287.665 0 287.573C0 287.482 62.672 287.403 140.007 287.403C217.341 287.403 280 287.469 280 287.573Z" fill="#263238"/>
<path d="M273.361 141H141.639C138.525 141 136 142.875 136 145.187V195.813C136 198.125 138.525 200 141.639 200H273.361C276.475 200 279 198.125 279 195.813V145.187C279 142.875 276.475 141 273.361 141Z" fill="white"/>
<path d="M273.25 199.975C273.25 199.975 273.63 199.975 274.353 199.877C275.425 199.705 276.408 199.308 277.183 198.732C277.749 198.309 278.185 197.801 278.462 197.241C278.62 196.918 278.727 196.582 278.78 196.24C278.78 195.887 278.78 195.508 278.78 195.115C278.78 193.545 278.78 191.733 278.78 189.699C278.78 181.542 278.735 169.755 278.709 155.188C278.709 153.363 278.709 151.499 278.709 149.595V146.704C278.709 145.729 278.841 144.742 278.303 143.839C277.932 143.155 277.316 142.56 276.522 142.117C275.728 141.675 274.786 141.401 273.797 141.327C273.145 141.294 272.421 141.327 271.734 141.327H263.224H226.345H141.847C140.947 141.326 140.06 141.491 139.269 141.809C138.477 142.127 137.805 142.586 137.314 143.146C136.814 143.7 136.51 144.339 136.432 145.003C136.388 145.657 136.432 146.377 136.432 147.057V171.246C136.432 176.479 136.432 181.625 136.432 186.684V194.167C136.432 194.782 136.432 195.403 136.432 196.005C136.473 196.594 136.683 197.169 137.049 197.692C137.425 198.206 137.946 198.654 138.576 199.005C139.206 199.356 139.93 199.602 140.7 199.727C141.484 199.82 142.28 199.851 143.072 199.818H177.526H209.661L256.187 199.871L268.832 199.903L256.187 199.936L209.661 199.988H177.526H143.072C142.25 200.02 141.425 199.987 140.612 199.89C139.781 199.757 138.999 199.492 138.32 199.112C137.64 198.733 137.081 198.248 136.679 197.692C136.274 197.131 136.042 196.51 136 195.874C136 195.22 136 194.644 136 194.023C136 191.557 136 189.058 136 186.54V171.246C136 166.013 136 160.682 136 155.253V147.077C136 146.383 136 145.716 136 144.997C136.066 144.281 136.369 143.589 136.882 142.982C137.418 142.378 138.144 141.879 138.998 141.53C139.862 141.189 140.824 141.007 141.803 141H226.301H263.18H271.69C272.395 141 273.065 141 273.788 141C274.495 141.055 275.183 141.206 275.817 141.445C277.075 141.918 278.062 142.713 278.594 143.682C278.852 144.156 278.99 144.662 279 145.173C279 145.664 279 146.154 279 146.645V149.536C279 151.438 279 153.302 279 155.129C279 169.696 278.938 181.483 278.921 189.64C278.921 191.674 278.921 193.486 278.921 195.056C278.921 195.449 278.921 195.822 278.921 196.188C278.864 196.537 278.752 196.879 278.586 197.208C278.301 197.777 277.853 198.293 277.272 198.719C276.478 199.298 275.472 199.692 274.379 199.851C274.106 199.889 273.828 199.911 273.55 199.916L273.25 199.975Z" fill="#263238"/>
<path d="M193.061 159.223V159.955H190V156.031H192.982V156.764H190.909V157.594H192.74V158.307H190.909V159.223H193.061Z" fill="#263238"/>
<path d="M197.416 156.005V159.929H196.664L194.702 157.529V159.929H193.8V156.005H194.526L196.488 158.405V156.005H197.416Z" fill="#263238"/>
<path d="M199.175 156.751H197.907V156.005H201.353V156.751H200.085V159.955H199.175V156.751Z" fill="#263238"/>
<path d="M204.905 159.223V159.955H201.844V156.031H204.833V156.764H202.753V157.594H204.591V158.307H202.753V159.223H204.905Z" fill="#263238"/>
<path d="M208.155 159.955L207.39 158.856H206.552V159.955H205.643V156.031H207.357C208.41 156.031 209.07 156.574 209.07 157.463C209.078 157.729 209.005 157.991 208.86 158.215C208.715 158.438 208.506 158.612 208.259 158.713L209.142 159.981L208.155 159.955ZM207.298 156.751H206.552V158.124H207.298C207.854 158.124 208.135 157.869 208.135 157.437C208.135 157.006 207.854 156.751 207.298 156.751Z" fill="#263238"/>
<path d="M211.137 157.98C211.163 157.554 211.313 157.145 211.569 156.803C211.825 156.462 212.177 156.203 212.579 156.06C212.981 155.916 213.416 155.894 213.831 155.996C214.245 156.098 214.621 156.319 214.911 156.633L214.322 157.176C214.2 157.031 214.048 156.914 213.876 156.834C213.704 156.754 213.517 156.712 213.328 156.711C213.008 156.734 212.709 156.878 212.49 157.112C212.272 157.347 212.15 157.656 212.15 157.977C212.15 158.298 212.272 158.606 212.49 158.841C212.709 159.076 213.008 159.219 213.328 159.242C213.518 159.245 213.706 159.205 213.878 159.124C214.05 159.044 214.202 158.926 214.322 158.778L214.911 159.321C214.623 159.637 214.247 159.861 213.833 159.965C213.418 160.069 212.981 160.048 212.578 159.905C212.175 159.762 211.823 159.503 211.567 159.16C211.31 158.818 211.161 158.407 211.137 157.98Z" fill="#263238"/>
<path d="M215.198 157.98C215.175 157.547 215.282 157.118 215.505 156.746C215.728 156.375 216.058 156.079 216.451 155.898C216.845 155.716 217.283 155.656 217.711 155.726C218.138 155.797 218.535 155.994 218.849 156.292C219.164 156.59 219.382 156.976 219.474 157.399C219.567 157.822 219.531 158.263 219.37 158.666C219.209 159.068 218.931 159.413 218.572 159.656C218.213 159.898 217.79 160.028 217.356 160.027C217.078 160.043 216.8 160.002 216.538 159.906C216.276 159.811 216.037 159.662 215.835 159.47C215.632 159.279 215.472 159.047 215.362 158.791C215.253 158.535 215.197 158.259 215.198 157.98ZM218.592 157.98C218.587 157.737 218.511 157.5 218.372 157.301C218.233 157.101 218.038 156.946 217.812 156.857C217.585 156.767 217.338 156.747 217.1 156.797C216.862 156.848 216.644 156.968 216.474 157.141C216.303 157.315 216.188 157.536 216.143 157.775C216.097 158.014 216.123 158.261 216.217 158.485C216.311 158.709 216.47 158.901 216.673 159.036C216.875 159.17 217.113 159.242 217.356 159.242C217.522 159.246 217.687 159.216 217.84 159.153C217.993 159.091 218.132 158.998 218.248 158.879C218.364 158.761 218.454 158.62 218.514 158.465C218.573 158.311 218.6 158.146 218.592 157.98Z" fill="#263238"/>
<path d="M220.214 156.005H221.993C222.514 156.005 223.013 156.212 223.381 156.58C223.749 156.948 223.955 157.447 223.955 157.967C223.955 158.487 223.749 158.986 223.381 159.354C223.013 159.722 222.514 159.929 221.993 159.929H220.201L220.214 156.005ZM221.961 159.203C222.285 159.203 222.596 159.074 222.825 158.845C223.055 158.615 223.184 158.304 223.184 157.98C223.184 157.656 223.055 157.345 222.825 157.115C222.596 156.886 222.285 156.757 221.961 156.757H221.13V159.203H221.961Z" fill="#263238"/>
<path d="M227.938 159.223V159.955H224.877V156.031H227.879V156.764H225.786V157.594H227.624V158.307H225.786V159.223H227.938Z" fill="#263238"/>
<path d="M157.54 169.266H147.933C146.506 169.266 145.35 170.423 145.35 171.849V186.806C145.35 188.233 146.506 189.389 147.933 189.389H157.54C158.967 189.389 160.123 188.233 160.123 186.806V171.849C160.123 170.423 158.967 169.266 157.54 169.266Z" fill="#EBEBEB"/>
<path d="M175.989 169.266H166.382C164.955 169.266 163.799 170.423 163.799 171.849V186.806C163.799 188.233 164.955 189.389 166.382 189.389H175.989C177.416 189.389 178.572 188.233 178.572 186.806V171.849C178.572 170.423 177.416 169.266 175.989 169.266Z" fill="#EBEBEB"/>
<path d="M194.438 169.266H184.831C183.404 169.266 182.248 170.423 182.248 171.849V186.806C182.248 188.233 183.404 189.389 184.831 189.389H194.438C195.865 189.389 197.022 188.233 197.022 186.806V171.849C197.022 170.423 195.865 169.266 194.438 169.266Z" fill="#EBEBEB"/>
<path d="M212.881 169.266H203.274C201.847 169.266 200.69 170.423 200.69 171.849V186.806C200.69 188.233 201.847 189.389 203.274 189.389H212.881C214.308 189.389 215.464 188.233 215.464 186.806V171.849C215.464 170.423 214.308 169.266 212.881 169.266Z" fill="#EBEBEB"/>
<path d="M231.33 169.266H221.723C220.296 169.266 219.14 170.423 219.14 171.849V186.806C219.14 188.233 220.296 189.389 221.723 189.389H231.33C232.757 189.389 233.913 188.233 233.913 186.806V171.849C233.913 170.423 232.757 169.266 231.33 169.266Z" fill="#EBEBEB"/>
<path d="M250.19 169.266H240.583C239.157 169.266 238 170.423 238 171.849V186.806C238 188.233 239.157 189.389 240.583 189.389H250.19C251.617 189.389 252.774 188.233 252.774 186.806V171.849C252.774 170.423 251.617 169.266 250.19 169.266Z" fill="#EBEBEB"/>
<path d="M269.051 169.266H259.444C258.017 169.266 256.86 170.423 256.86 171.849V186.806C256.86 188.233 258.017 189.389 259.444 189.389H269.051C270.478 189.389 271.634 188.233 271.634 186.806V171.849C271.634 170.423 270.478 169.266 269.051 169.266Z" fill="#EBEBEB"/>
<path d="M155.957 180.868C155.957 182.3 154.846 183.235 153.341 183.235C151.275 183.235 150.183 181.751 150.183 179.311C150.183 176.656 151.602 175.283 153.675 175.283C154.296 175.255 154.913 175.395 155.46 175.688L155.225 176.146C154.751 175.886 154.215 175.762 153.675 175.786C151.916 175.786 150.758 176.944 150.758 179.226C150.758 179.541 150.78 179.856 150.824 180.168C151.008 179.662 151.352 179.231 151.804 178.939C152.256 178.647 152.792 178.512 153.328 178.553C154.898 178.553 155.957 179.468 155.957 180.868ZM155.382 180.868C155.382 179.75 154.577 179.017 153.25 179.017C152.982 178.987 152.71 179.013 152.452 179.093C152.195 179.173 151.956 179.305 151.752 179.481C151.547 179.657 151.382 179.873 151.265 180.117C151.148 180.36 151.082 180.624 151.072 180.894C151.072 181.816 151.844 182.732 153.315 182.732C153.576 182.76 153.841 182.733 154.091 182.653C154.341 182.572 154.571 182.439 154.766 182.263C154.961 182.087 155.117 181.872 155.223 181.631C155.329 181.391 155.383 181.131 155.382 180.868Z" fill="#AB0000"/>
<path d="M174.204 181.018H172.556V183.196H171.993V181.018H167.513V180.606L171.777 175.342H172.431L168.246 180.515H172.019V178.599H172.569V180.515H174.217L174.204 181.018Z" fill="#AB0000"/>
<path d="M193.228 184.314C190.952 184.541 188.658 184.541 186.381 184.314C188.658 184.088 190.952 184.088 193.228 184.314Z" fill="#AB0000"/>
<path d="M142.394 148.92C143.279 148.92 143.996 148.203 143.996 147.318C143.996 146.433 143.279 145.716 142.394 145.716C141.509 145.716 140.791 146.433 140.791 147.318C140.791 148.203 141.509 148.92 142.394 148.92Z" fill="#263238"/>
<path d="M148.613 147.318C148.613 147.635 148.519 147.945 148.343 148.208C148.167 148.472 147.917 148.677 147.624 148.798C147.331 148.92 147.009 148.951 146.698 148.89C146.387 148.828 146.102 148.675 145.878 148.451C145.654 148.227 145.501 147.942 145.439 147.631C145.377 147.32 145.409 146.998 145.53 146.705C145.652 146.412 145.857 146.162 146.121 145.986C146.384 145.81 146.694 145.716 147.011 145.716C147.436 145.716 147.843 145.885 148.144 146.185C148.444 146.486 148.613 146.893 148.613 147.318Z" fill="#263238"/>
<path d="M151.543 148.92C152.428 148.92 153.145 148.203 153.145 147.318C153.145 146.433 152.428 145.716 151.543 145.716C150.658 145.716 149.941 146.433 149.941 147.318C149.941 148.203 150.658 148.92 151.543 148.92Z" fill="#263238"/>
<path d="M222.213 12.3277H105.384C103.015 12.3277 101.094 14.2485 101.094 16.6179V124.101C101.094 126.471 103.015 128.392 105.384 128.392H222.213C224.583 128.392 226.503 126.471 226.503 124.101V16.6179C226.503 14.2485 224.583 12.3277 222.213 12.3277Z" fill="white"/>
<path d="M222.213 128.392H222.521C222.824 128.366 223.125 128.31 223.417 128.222C223.987 128.047 224.514 127.755 224.965 127.364C225.416 126.973 225.779 126.492 226.033 125.952C226.385 125.142 226.524 124.255 226.438 123.375C226.438 122.401 226.438 121.329 226.438 120.171C226.438 117.856 226.438 115.181 226.438 112.173C226.438 100.139 226.405 82.743 226.379 61.2136C226.379 50.4554 226.379 38.677 226.379 26.0223C226.379 22.8657 226.379 19.6546 226.379 16.389C226.33 15.5906 226.051 14.8235 225.575 14.1805C225.099 13.5375 224.447 13.0462 223.698 12.7659C222.919 12.5195 222.098 12.4306 221.285 12.5043H197.944H105.397C104.415 12.51 103.467 12.8646 102.723 13.5049C101.953 14.1546 101.45 15.0649 101.31 16.062C101.265 16.5621 101.25 17.0643 101.264 17.5662V57.8325C101.264 73.3124 101.264 88.2431 101.264 102.467C101.264 109.583 101.264 116.513 101.264 123.258C101.264 123.676 101.264 124.108 101.264 124.507C101.302 124.908 101.397 125.303 101.545 125.678C101.848 126.429 102.364 127.074 103.03 127.535C103.689 127.995 104.469 128.25 105.273 128.267H117.378H152.57L203.529 128.326H217.38L203.529 128.359L152.57 128.411H117.378H105.267C104.403 128.389 103.564 128.115 102.854 127.623C102.144 127.13 101.593 126.44 101.271 125.638C101.11 125.236 101.007 124.813 100.963 124.383C100.931 123.938 100.963 123.532 100.963 123.107C100.963 116.363 100.963 109.432 100.963 102.317C100.963 88.0927 100.963 73.162 100.963 57.682C100.963 49.9388 100.963 42.0669 100.963 34.0664V17.5335C100.945 17.0162 100.963 16.4984 101.016 15.9835C101.159 14.9199 101.69 13.9466 102.507 13.2498C103.308 12.5489 104.333 12.1549 105.397 12.1381H197.944H221.245C222.096 12.0647 222.952 12.1626 223.763 12.4258C224.565 12.726 225.263 13.252 225.773 13.9402C226.282 14.6284 226.581 15.4494 226.634 16.304C226.634 19.5739 226.634 22.7916 226.634 25.9569C226.634 38.6116 226.634 50.39 226.634 61.1482C226.634 82.6645 226.595 100.074 226.582 112.107C226.582 115.116 226.582 117.79 226.582 120.106C226.582 121.263 226.582 122.336 226.582 123.31C226.665 124.205 226.516 125.106 226.15 125.926C225.822 126.614 225.316 127.201 224.685 127.628C224.054 128.054 223.32 128.304 222.56 128.352L222.213 128.392Z" fill="#263238"/>
<path d="M110.57 20.3718C110.57 20.8015 110.443 21.2216 110.204 21.5788C109.965 21.936 109.626 22.2143 109.229 22.3784C108.831 22.5426 108.395 22.5852 107.973 22.5009C107.552 22.4166 107.165 22.2091 106.862 21.9048C106.558 21.6005 106.352 21.213 106.269 20.7914C106.186 20.3698 106.23 19.933 106.395 19.5364C106.56 19.1398 106.84 18.8011 107.198 18.5633C107.556 18.3255 107.976 18.1993 108.406 18.2006C108.691 18.2006 108.973 18.2568 109.236 18.366C109.499 18.4752 109.738 18.6352 109.939 18.8369C110.14 19.0386 110.299 19.278 110.408 19.5414C110.516 19.8048 110.571 20.087 110.57 20.3718Z" fill="#263238"/>
<path d="M114.723 22.5365C115.919 22.5365 116.888 21.5674 116.888 20.3718C116.888 19.1763 115.919 18.2071 114.723 18.2071C113.528 18.2071 112.559 19.1763 112.559 20.3718C112.559 21.5674 113.528 22.5365 114.723 22.5365Z" fill="#263238"/>
<path d="M121.054 22.5365C122.249 22.5365 123.219 21.5674 123.219 20.3718C123.219 19.1763 122.249 18.2071 121.054 18.2071C119.858 18.2071 118.889 19.1763 118.889 20.3718C118.889 21.5674 119.858 22.5365 121.054 22.5365Z" fill="#263238"/>
<path d="M226.503 26.5259C226.503 26.624 198.428 26.6959 163.799 26.6959C129.17 26.6959 101.094 26.624 101.094 26.5259C101.094 26.4278 129.163 26.3559 163.799 26.3559C198.434 26.3559 226.503 26.4278 226.503 26.5259Z" fill="#263238"/>
<path d="M181.515 70.2452C181.515 70.2452 181.561 70.1733 181.666 70.0425L181.751 69.9313L181.836 69.7809C181.908 69.6592 181.972 69.5325 182.026 69.4016C182.026 69.3296 182.091 69.2512 182.117 69.1661L182.196 68.8915C182.224 68.7906 182.246 68.6879 182.261 68.5841C182.261 68.4729 182.3 68.3617 182.307 68.244C182.349 67.7001 182.323 67.1529 182.228 66.6156C181.953 65.1449 181.45 63.7261 180.737 62.4104C179.818 60.6544 178.744 58.9844 177.526 57.4205C176.061 55.5184 174.463 53.722 172.745 52.0446C170.779 50.114 168.679 48.3242 166.461 46.6885C165.29 45.8252 164.054 44.9881 162.752 44.2033C161.425 43.3927 160.047 42.6696 158.626 42.0386C157.165 41.3718 155.627 40.8885 154.048 40.5998C153.24 40.456 152.415 40.4361 151.602 40.5409C151.193 40.5989 150.795 40.7134 150.418 40.881C150.049 41.0625 149.714 41.3083 149.431 41.6069C149.16 41.9202 148.951 42.2819 148.816 42.673C148.693 43.0672 148.625 43.4765 148.613 43.8894C148.602 44.7103 148.715 45.5281 148.947 46.3157C149.416 47.8564 150.075 49.3327 150.909 50.7105C151.695 52.0508 152.569 53.3376 153.525 54.5625C154.453 55.7659 155.428 56.9038 156.415 57.9698C158.294 59.9875 160.313 61.8692 162.458 63.6007C164.32 65.1183 166.286 66.5017 168.344 67.7404C170.037 68.7698 171.818 69.6453 173.668 70.3564C175.058 70.9111 176.524 71.2507 178.017 71.3636C178.56 71.3904 179.104 71.353 179.638 71.2524C179.756 71.2524 179.861 71.1935 179.965 71.1674C180.068 71.1405 180.168 71.1078 180.266 71.0693L180.528 70.9581L180.757 70.8404C180.881 70.7726 181 70.6938 181.11 70.6049L181.247 70.5068L181.352 70.4087C181.47 70.291 181.535 70.2387 181.535 70.2387L181.358 70.4153L181.254 70.5134L181.123 70.618C181.011 70.7083 180.891 70.7872 180.763 70.8534L180.548 70.9973L180.279 71.1085C180.184 71.1489 180.086 71.1817 179.985 71.2066C179.876 71.244 179.765 71.2746 179.652 71.2982C179.114 71.4082 178.564 71.4478 178.017 71.4159C176.52 71.3142 175.049 70.9811 173.654 70.4284C171.799 69.7179 170.011 68.8424 168.311 67.8124C166.254 66.5734 164.287 65.19 162.425 63.6726C160.274 61.9433 158.25 60.0615 156.369 58.0418C155.382 56.9757 154.407 55.8378 153.472 54.6345C152.519 53.4033 151.645 52.1123 150.856 50.7694C150.021 49.3852 149.362 47.9023 148.894 46.3549C148.656 45.5574 148.541 44.7281 148.554 43.8959C148.568 43.4764 148.638 43.0606 148.764 42.6599C148.912 42.2545 149.134 41.8799 149.418 41.5546C149.707 41.2439 150.054 40.9909 150.438 40.8091C150.823 40.6371 151.23 40.5183 151.648 40.4559C152.472 40.351 153.308 40.3709 154.126 40.5148C155.717 40.8059 157.266 41.2936 158.737 41.9666C160.161 42.5984 161.542 43.3238 162.87 44.1379C164.178 44.9227 165.414 45.7598 166.585 46.6296C168.806 48.2683 170.907 50.0649 172.87 52.0054C174.592 53.6856 176.191 55.4865 177.657 57.3943C178.871 58.9626 179.941 60.6371 180.855 62.3973C181.566 63.72 182.067 65.1454 182.339 66.6221C182.431 67.1643 182.453 67.7159 182.405 68.2636C182.395 68.3759 182.377 68.4873 182.353 68.5972C182.342 68.7017 182.32 68.8048 182.287 68.9046L182.209 69.1858C182.181 69.2663 182.148 69.3449 182.111 69.4212C182.061 69.5554 181.995 69.6828 181.914 69.8005C181.891 69.8535 181.863 69.9039 181.829 69.9509L181.744 70.0621L181.515 70.2452Z" fill="#E29C40"/>
<path d="M187.447 55.9097V55.6612V55.5239C187.447 55.4716 187.447 55.4192 187.414 55.3538C187.392 55.213 187.354 55.0749 187.303 54.9418C187.303 54.8699 187.251 54.7849 187.218 54.7064L187.087 54.4448C187.045 54.35 186.992 54.2601 186.93 54.1767C186.874 54.0785 186.811 53.9845 186.741 53.8954C186.415 53.4583 186.033 53.0667 185.603 52.7313C184.413 51.818 183.09 51.0944 181.679 50.5862C179.825 49.8855 177.912 49.3536 175.963 48.997C173.59 48.5516 171.188 48.2762 168.776 48.173C166.022 48.0388 163.262 48.0978 160.516 48.3496C159.07 48.4869 157.592 48.6897 156.095 48.9709C154.565 49.2468 153.055 49.6248 151.576 50.1023C150.038 50.568 148.565 51.2273 147.194 52.0643C146.495 52.493 145.866 53.0268 145.33 53.6469C145.065 53.9614 144.845 54.3114 144.676 54.6868C144.514 55.068 144.426 55.4762 144.414 55.8901C144.427 56.3032 144.514 56.7107 144.67 57.0935C144.841 57.4675 145.06 57.8172 145.324 58.1333C145.864 58.7539 146.494 59.2896 147.194 59.7225C148.567 60.5557 150.039 61.2147 151.576 61.6845C153.057 62.1559 154.566 62.5338 156.095 62.8159C157.592 63.0971 159.07 63.2933 160.516 63.4306C163.261 63.6876 166.021 63.7488 168.776 63.6138C171.189 63.5173 173.592 63.2551 175.97 62.829C177.919 62.4724 179.832 61.9405 181.685 61.2398C183.094 60.7263 184.417 60.0032 185.609 59.0947C186.038 58.7576 186.42 58.3662 186.747 57.9306C186.817 57.8393 186.881 57.7431 186.937 57.6428C186.999 57.5594 187.052 57.4695 187.094 57.3747L187.225 57.1196C187.257 57.0346 187.284 56.9561 187.31 56.8776C187.362 56.7448 187.399 56.6066 187.421 56.4656C187.421 56.4068 187.421 56.3545 187.454 56.3021V56.1648V55.9097C187.454 55.9097 187.454 55.9948 187.454 56.1648V56.3021C187.454 56.3545 187.454 56.4068 187.454 56.4722C187.433 56.6128 187.398 56.7509 187.349 56.8842C187.349 56.9627 187.297 57.0411 187.264 57.1262L187.14 57.3878C187.093 57.4826 187.041 57.5744 186.983 57.6624C186.925 57.7596 186.862 57.8535 186.793 57.9437C186.468 58.3851 186.085 58.781 185.655 59.1208C184.468 60.0418 183.144 60.7721 181.731 61.2856C179.876 61.9942 177.961 62.5327 176.009 62.8944C173.633 63.3413 171.229 63.6211 168.815 63.7315C166.059 63.8711 163.296 63.8143 160.548 63.5614C159.097 63.4241 157.612 63.2279 156.114 62.9467C154.582 62.6638 153.068 62.2859 151.582 61.8153C150.039 61.3483 148.56 60.6891 147.181 59.8533C146.473 59.4184 145.836 58.8781 145.291 58.251C145.026 57.9269 144.806 57.5683 144.637 57.185C144.46 56.7946 144.369 56.371 144.369 55.9424C144.369 55.5139 144.46 55.0903 144.637 54.6999C144.808 54.3179 145.028 53.9596 145.291 53.6338C145.841 53.0075 146.483 52.4674 147.194 52.0316C148.576 51.1969 150.057 50.5378 151.602 50.0696C153.084 49.5928 154.596 49.2149 156.127 48.9382C157.632 48.657 159.11 48.4608 160.562 48.3234C163.291 48.0579 166.036 47.9858 168.776 48.1076C171.191 48.2168 173.595 48.4988 175.97 48.9513C177.922 49.3096 179.837 49.846 181.692 50.5535C183.104 51.067 184.428 51.7973 185.616 52.7183C186.045 53.0597 186.427 53.4554 186.754 53.8954C186.824 53.9867 186.887 54.0829 186.944 54.1832C187.003 54.2704 187.056 54.3622 187.1 54.4579L187.225 54.7129C187.257 54.798 187.284 54.883 187.31 54.9549C187.359 55.0904 187.394 55.2307 187.414 55.3735C187.414 55.4323 187.414 55.4912 187.414 55.537V55.6808C187.447 55.8247 187.447 55.9097 187.447 55.9097Z" fill="#E29C40"/>
<path d="M179.586 38.0754L179.37 37.938L179.253 37.8596C179.204 37.8318 179.154 37.8077 179.102 37.7876C178.977 37.7195 178.846 37.6647 178.71 37.6241C178.631 37.6241 178.553 37.5653 178.468 37.5456L178.187 37.4868C178.085 37.4647 177.983 37.4494 177.879 37.441C177.766 37.4343 177.652 37.4343 177.539 37.441C176.993 37.4341 176.448 37.4956 175.917 37.6241C174.47 38.0083 173.09 38.6104 171.823 39.4095C170.133 40.4434 168.542 41.6299 167.069 42.9542C165.271 44.5469 163.588 46.2647 162.033 48.0945C160.24 50.1878 158.599 52.4061 157.122 54.7325C156.35 55.9555 155.591 57.2635 154.898 58.5715C154.179 59.95 153.552 61.3744 153.021 62.8355C152.458 64.3426 152.083 65.913 151.903 67.5115C151.815 68.3278 151.853 69.1525 152.014 69.9575C152.104 70.3605 152.246 70.7498 152.439 71.115C152.641 71.4757 152.91 71.7952 153.23 72.0568C153.563 72.2991 153.938 72.4786 154.336 72.5865C154.736 72.6834 155.147 72.7253 155.558 72.7108C156.379 72.6651 157.189 72.4953 157.959 72.2072C159.463 71.6364 160.891 70.8807 162.21 69.9575C163.492 69.079 164.715 68.1178 165.872 67.0799C167.01 66.0662 168.076 65.0198 169.07 63.9604C170.951 61.9464 172.689 59.8026 174.269 57.5447C175.655 55.5837 176.901 53.5272 177.997 51.3907C178.911 49.6333 179.664 47.7968 180.247 45.9037C180.704 44.4766 180.94 42.9878 180.946 41.4892C180.945 40.9454 180.87 40.4043 180.724 39.8804C180.724 39.7627 180.652 39.658 180.619 39.5534C180.587 39.4488 180.547 39.3572 180.502 39.2656L180.377 39.0106C180.332 38.9321 180.279 38.8602 180.24 38.7948C180.166 38.672 180.078 38.5579 179.979 38.4547L179.874 38.3239L179.769 38.2323L179.586 38.0623L179.776 38.2258L179.88 38.3174C179.921 38.3558 179.958 38.3973 179.992 38.4416C180.09 38.5458 180.178 38.6597 180.253 38.7817C180.299 38.8536 180.351 38.919 180.397 38.9975L180.521 39.2591C180.572 39.3509 180.613 39.4472 180.646 39.5469C180.678 39.6515 180.724 39.7561 180.75 39.8739C180.901 40.3992 180.98 40.9426 180.986 41.4892C180.988 42.9918 180.756 44.4855 180.299 45.9167C179.719 47.8151 178.97 49.658 178.062 51.4234C176.966 53.5642 175.721 55.625 174.335 57.5905C172.758 59.8554 171.02 62.0039 169.135 64.0192C168.141 65.0852 167.075 66.1382 165.931 67.1518C164.771 68.1915 163.546 69.1549 162.262 70.036C160.939 70.9662 159.504 71.7264 157.991 72.2988C157.213 72.5896 156.395 72.7616 155.565 72.8089C155.143 72.823 154.721 72.7813 154.309 72.6846C153.9 72.5691 153.514 72.3808 153.171 72.1287C152.841 71.8599 152.564 71.5316 152.354 71.1608C152.156 70.7874 152.009 70.3893 151.916 69.9771C151.757 69.163 151.722 68.3296 151.811 67.505C151.988 65.8968 152.366 64.3171 152.936 62.8028C153.467 61.3396 154.094 59.913 154.813 58.5322C155.513 57.1719 156.265 55.877 157.043 54.6475C158.529 52.3221 160.177 50.104 161.974 48.0095C163.532 46.18 165.22 44.4643 167.023 42.8757C168.504 41.5529 170.102 40.3666 171.797 39.331C173.07 38.5354 174.457 37.9398 175.911 37.5653C176.443 37.4336 176.991 37.372 177.539 37.3821C177.657 37.3821 177.768 37.3821 177.879 37.3821C177.985 37.39 178.09 37.4053 178.193 37.4279L178.474 37.4868L178.716 37.5718C178.853 37.6144 178.984 37.6714 179.109 37.7418C179.161 37.762 179.211 37.786 179.259 37.8138L179.377 37.8988L179.586 38.0754Z" fill="#E29C40"/>
<path d="M144.153 64.7975C144.264 64.9092 144.34 65.0514 144.37 65.2061C144.4 65.3607 144.384 65.5209 144.324 65.6665C144.263 65.812 144.161 65.9364 144.03 66.0238C143.899 66.1113 143.745 66.158 143.587 66.158C143.43 66.158 143.275 66.1113 143.144 66.0238C143.013 65.9364 142.911 65.812 142.85 65.6665C142.79 65.5209 142.774 65.3607 142.804 65.2061C142.835 65.0514 142.91 64.9092 143.021 64.7975C143.096 64.7229 143.184 64.6638 143.281 64.6234C143.378 64.583 143.482 64.5623 143.587 64.5623C143.692 64.5623 143.796 64.583 143.894 64.6234C143.991 64.6638 144.079 64.7229 144.153 64.7975Z" fill="#E29C40"/>
<path d="M189.272 40.0177C189.273 40.1771 189.227 40.3333 189.139 40.4664C189.052 40.5995 188.927 40.7037 188.78 40.7656C188.633 40.8274 188.471 40.8443 188.314 40.814C188.158 40.7837 188.014 40.7076 187.901 40.5954C187.788 40.4832 187.71 40.3398 187.679 40.1836C187.647 40.0274 187.663 39.8653 187.724 39.718C187.784 39.5706 187.887 39.4446 188.02 39.3559C188.152 39.2672 188.308 39.2199 188.467 39.2199C188.573 39.219 188.677 39.239 188.775 39.2787C188.872 39.3184 188.961 39.377 189.036 39.4512C189.111 39.5254 189.17 39.6136 189.21 39.7109C189.251 39.8081 189.272 39.9124 189.272 40.0177Z" fill="#E29C40"/>
<path d="M149.202 67.4265C149.202 67.4666 149.19 67.5058 149.168 67.5392C149.145 67.5725 149.114 67.5985 149.077 67.6138C149.039 67.6292 148.999 67.6332 148.959 67.6254C148.92 67.6175 148.884 67.5982 148.856 67.5699C148.827 67.5415 148.808 67.5054 148.8 67.4661C148.792 67.4268 148.796 67.386 148.812 67.3489C148.827 67.3119 148.853 67.2802 148.886 67.258C148.92 67.2357 148.959 67.2238 148.999 67.2238C149.053 67.2238 149.104 67.2452 149.142 67.2832C149.18 67.3212 149.202 67.3728 149.202 67.4265Z" fill="#01C09A"/>
<path d="M153.538 45.0208C153.538 45.0609 153.526 45.1001 153.504 45.1334C153.481 45.1667 153.45 45.1927 153.413 45.2081C153.375 45.2234 153.335 45.2274 153.295 45.2196C153.256 45.2118 153.22 45.1925 153.192 45.1641C153.163 45.1358 153.144 45.0996 153.136 45.0603C153.128 45.021 153.132 44.9802 153.148 44.9432C153.163 44.9061 153.189 44.8745 153.222 44.8522C153.256 44.8299 153.295 44.818 153.335 44.818C153.389 44.818 153.44 44.8394 153.478 44.8774C153.516 44.9154 153.538 44.967 153.538 45.0208Z" fill="#E29C40"/>
<path d="M185.25 55.9097C185.25 55.9635 185.228 56.0151 185.19 56.0531C185.152 56.0911 185.101 56.1125 185.047 56.1125C184.993 56.1125 184.942 56.0911 184.904 56.0531C184.866 56.0151 184.844 55.9635 184.844 55.9097C184.844 55.856 184.866 55.8044 184.904 55.7664C184.942 55.7284 184.993 55.707 185.047 55.707C185.101 55.707 185.152 55.7284 185.19 55.7664C185.228 55.8044 185.25 55.856 185.25 55.9097Z" fill="#E29C40"/>
<path d="M188.075 46.4399C188.075 46.4937 188.054 46.5453 188.016 46.5833C187.978 46.6213 187.926 46.6427 187.872 46.6427C187.818 46.6427 187.767 46.6213 187.729 46.5833C187.691 46.5453 187.669 46.4937 187.669 46.4399C187.669 46.3862 187.691 46.3346 187.729 46.2966C187.767 46.2586 187.818 46.2372 187.872 46.2372C187.926 46.2372 187.978 46.2586 188.016 46.2966C188.054 46.3346 188.075 46.3862 188.075 46.4399Z" fill="#E29C40"/>
<path d="M174.38 60.3765H171.869V46.7015C171.869 45.1526 171.254 43.6672 170.158 42.5719C169.063 41.4767 167.578 40.8614 166.029 40.8614C164.48 40.8614 162.995 41.4767 161.899 42.5719C160.804 43.6672 160.189 45.1526 160.189 46.7015V60.3765H157.658V46.7015C157.658 44.4866 158.538 42.3624 160.104 40.7962C161.67 39.2299 163.794 38.3501 166.009 38.3501C168.224 38.3501 170.348 39.2299 171.915 40.7962C173.481 42.3624 174.361 44.4866 174.361 46.7015L174.38 60.3765Z" fill="#794F0F"/>
<g opacity="0.3">
<path d="M174.723 60.0264H172.211V46.3515C172.211 44.8026 171.596 43.3171 170.501 42.2219C169.405 41.1266 167.92 40.5113 166.371 40.5113C164.822 40.5113 163.337 41.1266 162.241 42.2219C161.146 43.3171 160.531 44.8026 160.531 46.3515V60.0264H158V46.3515C158 44.1365 158.88 42.0123 160.446 40.4461C162.012 38.8799 164.137 38 166.351 38C168.566 38 170.691 38.8799 172.257 40.4461C173.823 42.0123 174.703 44.1365 174.703 46.3515L174.723 60.0264Z" fill="#0066B3"/>
</g>
<path d="M175.813 54.2944H156.245C155.432 54.2944 154.774 54.9532 154.774 55.7659V67.263C154.774 68.0757 155.432 68.7345 156.245 68.7345H175.813C176.625 68.7345 177.284 68.0757 177.284 67.263V55.7659C177.284 54.9532 176.625 54.2944 175.813 54.2944Z" fill="#AB0000"/>
<g opacity="0.3">
<path d="M167.912 59.6375C167.915 59.2863 167.82 58.9414 167.637 58.6417C167.454 58.3419 167.191 58.0993 166.877 57.9411C166.564 57.783 166.212 57.7157 165.862 57.7468C165.512 57.7779 165.178 57.9061 164.898 58.1171C164.617 58.328 164.401 58.6132 164.273 58.9406C164.146 59.2679 164.113 59.6242 164.178 59.9694C164.242 60.3146 164.402 60.6348 164.639 60.894C164.876 61.1531 165.181 61.3408 165.519 61.436V64.2481H166.539V61.436C166.933 61.3274 167.281 61.0928 167.529 60.768C167.777 60.4432 167.911 60.0461 167.912 59.6375Z" fill="black"/>
</g>
<g style="mix-blend-mode:overlay">
<path d="M155.977 67.3677C155.925 67.3677 155.879 64.961 155.879 61.9919C155.879 59.0227 155.925 56.6095 155.977 56.6095C156.029 56.6095 156.069 59.0162 156.069 61.9919C156.069 64.9675 156.023 67.3677 155.977 67.3677Z" fill="#FAFAFA"/>
</g>
<g style="mix-blend-mode:overlay">
<path d="M164.557 62.0442C164.557 62.0442 164.466 62.0442 164.335 61.9199C164.15 61.7819 163.987 61.6165 163.851 61.4294C163.613 61.1211 163.446 60.7634 163.364 60.3826C163.282 60.0017 163.286 59.6073 163.375 59.2281C163.465 58.8489 163.638 58.4945 163.882 58.1908C164.126 57.8871 164.435 57.6418 164.786 57.4728C164.991 57.3629 165.212 57.2857 165.44 57.2439C165.525 57.2281 165.611 57.2281 165.695 57.2439C165.406 57.3419 165.124 57.4599 164.852 57.597C164.532 57.7731 164.254 58.014 164.033 58.3042C163.812 58.5944 163.655 58.9276 163.57 59.2823C163.486 59.637 163.477 60.0054 163.543 60.3639C163.609 60.7224 163.75 61.063 163.956 61.364C164.138 61.6065 164.339 61.834 164.557 62.0442Z" fill="#FAFAFA"/>
</g>
<path d="M199.448 81.1146H130.144C126.778 81.1146 124.049 83.8435 124.049 87.2098V87.9553C124.049 91.3216 126.778 94.0505 130.144 94.0505H199.448C202.814 94.0505 205.543 91.3216 205.543 87.9553V87.2098C205.543 83.8435 202.814 81.1146 199.448 81.1146Z" fill="#F5F5F5"/>
<path d="M200.043 98.8508H130.74C127.373 98.8508 124.644 101.58 124.644 104.946V105.692C124.644 109.058 127.373 111.787 130.74 111.787H200.043C203.409 111.787 206.138 109.058 206.138 105.692V104.946C206.138 101.58 203.409 98.8508 200.043 98.8508Z" fill="#F5F5F5"/>
<path d="M136.926 87.4779V85.6075H137.705V87.4518C137.705 88.1058 137.979 88.3477 138.45 88.3477C138.921 88.3477 139.196 88.0861 139.196 87.4518V85.6075H139.961V87.4779C139.961 87.8803 139.801 88.2662 139.516 88.5508C139.232 88.8353 138.846 88.9952 138.444 88.9952C138.041 88.9952 137.655 88.8353 137.371 88.5508C137.086 88.2662 136.926 87.8803 136.926 87.4779Z" fill="#263238"/>
<path d="M140.425 88.7139L140.667 88.1777C140.938 88.3391 141.248 88.4249 141.563 88.4262C141.91 88.4262 142.034 88.3346 142.034 88.1908C142.034 87.7722 140.484 88.1908 140.484 87.1771C140.484 86.6866 140.922 86.34 141.674 86.34C142.017 86.3344 142.356 86.413 142.662 86.5689L142.413 87.0986C142.188 86.9703 141.933 86.9048 141.674 86.9089C141.341 86.9089 141.197 87.0136 141.197 87.1444C141.197 87.5825 142.747 87.1444 142.747 88.1711C142.747 88.6485 142.309 88.9886 141.537 88.9886C141.149 88.9973 140.765 88.9025 140.425 88.7139Z" fill="#263238"/>
<path d="M145.716 87.8768H143.754C143.794 88.0376 143.891 88.1785 144.027 88.2735C144.163 88.3684 144.328 88.411 144.493 88.3935C144.613 88.3988 144.733 88.3795 144.846 88.3368C144.958 88.294 145.061 88.2288 145.147 88.145L145.546 88.5766C145.409 88.7176 145.244 88.8275 145.061 88.8986C144.878 88.9697 144.682 89.0004 144.486 88.9886C144.301 89.0119 144.114 88.9954 143.936 88.9402C143.757 88.885 143.593 88.7924 143.454 88.6685C143.315 88.5446 143.203 88.3924 143.128 88.222C143.052 88.0517 143.013 87.8671 143.015 87.6806C143.015 87.5032 143.051 87.3276 143.12 87.1645C143.19 87.0014 143.292 86.8542 143.421 86.7318C143.549 86.6095 143.701 86.5146 143.868 86.4528C144.034 86.3911 144.211 86.3638 144.388 86.3727C144.563 86.3683 144.736 86.3989 144.899 86.4627C145.061 86.5265 145.209 86.6221 145.334 86.744C145.459 86.8659 145.559 87.0116 145.626 87.1724C145.694 87.3333 145.729 87.5061 145.729 87.6806C145.729 87.733 145.716 87.8114 145.716 87.8768ZM143.754 87.4387H145.016C144.979 87.3001 144.896 87.1778 144.782 87.0906C144.668 87.0034 144.529 86.9562 144.385 86.9562C144.241 86.9562 144.102 87.0034 143.988 87.0906C143.874 87.1778 143.792 87.3001 143.754 87.4387Z" fill="#263238"/>
<path d="M147.848 86.34V87.0332H147.678C147.586 87.0327 147.496 87.0516 147.412 87.0884C147.328 87.1253 147.252 87.1794 147.191 87.2473C147.129 87.3151 147.082 87.3951 147.054 87.4822C147.025 87.5692 147.015 87.6614 147.024 87.7526V88.9625H146.278V86.3923H146.991V86.6931C147.096 86.5712 147.229 86.4757 147.377 86.4144C147.526 86.353 147.687 86.3276 147.848 86.34Z" fill="#263238"/>
<path d="M150.896 87.4779V88.9494H150.15V87.5956C150.15 87.1771 149.96 86.9874 149.627 86.9874C149.293 86.9874 149.012 87.2098 149.012 87.6806V88.9494H148.266V86.3792H148.979V86.6931C149.09 86.5806 149.222 86.4923 149.369 86.4338C149.515 86.3753 149.672 86.3478 149.83 86.353C149.977 86.3433 150.125 86.3663 150.263 86.4203C150.401 86.4742 150.525 86.5579 150.627 86.6652C150.728 86.7726 150.805 86.9011 150.852 87.0416C150.898 87.182 150.913 87.331 150.896 87.4779Z" fill="#263238"/>
<path d="M153.845 87.4845V88.9494H153.145V88.6551C153.059 88.7802 152.941 88.8796 152.802 88.9429C152.664 89.0062 152.512 89.0311 152.36 89.0148C151.759 89.0148 151.399 88.6813 151.399 88.2365C151.399 87.7918 151.72 87.4648 152.504 87.4648H153.08C153.08 87.1509 152.89 86.9613 152.485 86.9613C152.219 86.9603 151.96 87.0452 151.746 87.2032L151.478 86.68C151.808 86.4662 152.196 86.3568 152.589 86.3661C153.387 86.34 153.845 86.6931 153.845 87.4845ZM153.099 88.1384V87.8768H152.589C152.236 87.8768 152.132 88.0076 152.132 88.1777C152.132 88.3477 152.289 88.4916 152.55 88.4916C152.664 88.495 152.776 88.4629 152.871 88.3996C152.966 88.3363 153.039 88.245 153.08 88.1384H153.099Z" fill="#263238"/>
<path d="M158.861 87.4779V88.9494H158.116V87.5956C158.116 87.1771 157.932 86.9874 157.632 86.9874C157.331 86.9874 157.063 87.2032 157.063 87.6414V88.9494H156.35V87.5956C156.35 87.1771 156.173 86.9874 155.859 86.9874C155.545 86.9874 155.297 87.2032 155.297 87.6414V88.9494H154.519V86.3792H155.232V86.6931C155.333 86.5812 155.457 86.4927 155.596 86.4339C155.735 86.3752 155.885 86.3476 156.036 86.3531C156.202 86.3454 156.368 86.3805 156.516 86.4549C156.665 86.5293 156.792 86.6406 156.886 86.7782C156.997 86.6398 157.139 86.5294 157.3 86.4556C157.461 86.3818 157.638 86.3467 157.815 86.3531C157.961 86.344 158.108 86.3676 158.245 86.4221C158.381 86.4766 158.504 86.5606 158.604 86.6682C158.704 86.7757 158.779 86.9042 158.823 87.0442C158.868 87.1842 158.881 87.3323 158.861 87.4779Z" fill="#263238"/>
<path d="M162.066 87.8768H160.104C160.137 88.04 160.231 88.1844 160.368 88.2804C160.504 88.3764 160.671 88.4169 160.836 88.3935C160.956 88.3984 161.076 88.3789 161.189 88.3362C161.301 88.2935 161.404 88.2285 161.49 88.145L161.883 88.5766C161.747 88.7183 161.581 88.8287 161.398 88.8998C161.215 88.971 161.019 89.0013 160.823 88.9886C160.639 89.0109 160.452 88.9937 160.274 88.938C160.097 88.8823 159.934 88.7895 159.795 88.6658C159.656 88.542 159.546 88.3901 159.47 88.2203C159.395 88.0504 159.357 87.8664 159.358 87.6806C159.358 87.5032 159.394 87.3276 159.464 87.1645C159.533 87.0014 159.636 86.8542 159.764 86.7318C159.893 86.6095 160.045 86.5146 160.211 86.4528C160.377 86.3911 160.554 86.3638 160.732 86.3727C161.078 86.3727 161.411 86.5105 161.656 86.7558C161.902 87.001 162.04 87.3337 162.04 87.6806C162.079 87.733 162.072 87.8114 162.066 87.8768ZM160.104 87.4387H161.372C161.351 87.2838 161.272 87.1427 161.15 87.0443C161.029 86.9459 160.874 86.8975 160.718 86.9089C160.57 86.9062 160.425 86.9589 160.312 87.0568C160.2 87.1547 160.128 87.2907 160.11 87.4387H160.104Z" fill="#263238"/>
<path d="M166.997 87.6414C166.997 88.4981 166.604 88.9886 166.016 88.9886C165.876 88.9979 165.738 88.9622 165.62 88.8869C165.502 88.8116 165.412 88.7006 165.362 88.5701C165.275 88.7061 165.153 88.8166 165.01 88.8902C164.866 88.9638 164.705 88.9977 164.544 88.9886C164.245 88.9575 163.968 88.8166 163.767 88.5931C163.565 88.3697 163.454 88.0796 163.454 87.7788C163.454 87.478 163.565 87.1878 163.767 86.9644C163.968 86.7409 164.245 86.6 164.544 86.5689C164.683 86.5624 164.821 86.588 164.948 86.6436C165.075 86.6991 165.188 86.7832 165.277 86.8893V86.6081H165.931V88.1515C165.931 88.3804 166.029 88.4589 166.16 88.4589C166.29 88.4589 166.513 88.2039 166.513 87.6545C166.516 87.4263 166.47 87.2 166.38 86.9904C166.29 86.7808 166.157 86.5925 165.989 86.4377C165.821 86.2829 165.623 86.1651 165.407 86.092C165.19 86.0188 164.961 85.9919 164.734 86.013C164.274 86.013 163.834 86.1956 163.509 86.5206C163.183 86.8456 163.001 87.2864 163.001 87.7461C163.001 88.2057 163.183 88.6465 163.509 88.9715C163.834 89.2965 164.274 89.4791 164.734 89.4791C165.059 89.4787 165.381 89.4073 165.676 89.2699L165.826 89.708C165.484 89.8646 165.111 89.9428 164.734 89.9369C164.437 89.9532 164.139 89.9087 163.86 89.8061C163.58 89.7035 163.324 89.545 163.108 89.3403C162.892 89.1355 162.72 88.8888 162.602 88.6153C162.484 88.3418 162.423 88.0471 162.423 87.7493C162.423 87.4515 162.484 87.1569 162.602 86.8833C162.72 86.6098 162.892 86.3631 163.108 86.1584C163.324 85.9537 163.58 85.7952 163.86 85.6926C164.139 85.59 164.437 85.5455 164.734 85.5617C165.022 85.5383 165.311 85.5746 165.584 85.6684C165.857 85.7622 166.108 85.9114 166.32 86.1067C166.533 86.302 166.703 86.5392 166.819 86.8033C166.935 87.0674 166.996 87.3528 166.997 87.6414ZM165.29 87.7788C165.299 87.695 165.291 87.6103 165.264 87.5302C165.238 87.4501 165.195 87.3766 165.138 87.3146C165.081 87.2526 165.011 87.2036 164.934 87.1708C164.856 87.1381 164.772 87.1224 164.688 87.1248C164.515 87.1248 164.348 87.1937 164.226 87.3163C164.103 87.439 164.034 87.6053 164.034 87.7788C164.034 87.9522 164.103 88.1186 164.226 88.2412C164.348 88.3639 164.515 88.4328 164.688 88.4328C164.772 88.4352 164.856 88.4194 164.934 88.3867C165.011 88.3539 165.081 88.3049 165.138 88.2429C165.195 88.1809 165.238 88.1074 165.264 88.0273C165.291 87.9472 165.299 87.8625 165.29 87.7788Z" fill="#263238"/>
<path d="M171.869 87.4779V88.9494H171.124V87.5956C171.124 87.1771 170.94 86.9874 170.64 86.9874C170.339 86.9874 170.071 87.2032 170.071 87.6414V88.9494H169.325V87.5956C169.325 87.1771 169.148 86.9874 168.835 86.9874C168.521 86.9874 168.272 87.2032 168.272 87.6414V88.9494H167.527V86.3792H168.239V86.6931C168.341 86.5812 168.465 86.4927 168.604 86.4339C168.743 86.3752 168.893 86.3476 169.044 86.3531C169.21 86.3454 169.375 86.3805 169.524 86.4549C169.673 86.5293 169.8 86.6406 169.894 86.7782C170.004 86.6404 170.145 86.5302 170.305 86.4563C170.465 86.3825 170.64 86.3472 170.816 86.3531C170.963 86.343 171.111 86.3658 171.248 86.4198C171.385 86.4739 171.509 86.5578 171.61 86.6655C171.71 86.7732 171.786 86.902 171.831 87.0425C171.876 87.183 171.889 87.3317 171.869 87.4779Z" fill="#263238"/>
<path d="M174.812 87.4845V88.9494H174.119V88.6551C174.032 88.7802 173.914 88.8796 173.776 88.9429C173.638 89.0062 173.485 89.0311 173.334 89.0148C172.732 89.0148 172.373 88.6813 172.373 88.2365C172.373 87.7918 172.693 87.4648 173.478 87.4648H174.066C174.066 87.1509 173.877 86.9613 173.478 86.9613C173.212 86.9579 172.952 87.043 172.739 87.2032L172.471 86.68C172.8 86.4675 173.184 86.3581 173.576 86.3661C174.361 86.34 174.812 86.6931 174.812 87.4845ZM174.066 88.1384V87.8768H173.556C173.21 87.8768 173.099 88.0076 173.099 88.1777C173.099 88.3477 173.256 88.4916 173.517 88.4916C173.634 88.4993 173.751 88.4691 173.85 88.4055C173.949 88.342 174.025 88.2483 174.066 88.1384Z" fill="#263238"/>
<path d="M175.401 85.6075C175.401 85.5488 175.414 85.4908 175.438 85.4373C175.462 85.3837 175.497 85.3358 175.541 85.2965C175.585 85.2571 175.636 85.2273 175.692 85.2088C175.748 85.1903 175.806 85.1835 175.865 85.1889C175.945 85.1978 176.021 85.2296 176.084 85.2806C176.146 85.3317 176.193 85.3997 176.218 85.4765C176.242 85.5533 176.244 85.6357 176.223 85.7136C176.202 85.7916 176.159 85.8618 176.099 85.9159C176.039 85.9699 175.965 86.0055 175.885 86.0183C175.806 86.031 175.724 86.0205 175.65 85.9879C175.576 85.9553 175.513 85.9021 175.469 85.8346C175.425 85.7671 175.401 85.6882 175.401 85.6075ZM175.492 86.3792H176.231V88.9494H175.492V86.3792Z" fill="#263238"/>
<path d="M176.931 85.3851H177.677V88.9298H176.931V85.3851Z" fill="#263238"/>
<path d="M178.187 88.5243C178.187 88.4012 178.236 88.2831 178.323 88.196C178.41 88.1089 178.528 88.06 178.651 88.06C178.774 88.06 178.892 88.1089 178.979 88.196C179.066 88.2831 179.115 88.4012 179.115 88.5243C179.115 88.6475 179.066 88.7656 178.979 88.8526C178.892 88.9397 178.774 88.9886 178.651 88.9886C178.528 88.9886 178.41 88.9397 178.323 88.8526C178.236 88.7656 178.187 88.6475 178.187 88.5243Z" fill="#263238"/>
<path d="M179.397 87.6676C179.396 87.4848 179.433 87.3039 179.507 87.1366C179.58 86.9692 179.687 86.8191 179.822 86.6958C179.957 86.5726 180.117 86.479 180.29 86.4211C180.463 86.3632 180.647 86.3422 180.829 86.3596C181.064 86.3397 181.3 86.3915 181.506 86.5082C181.711 86.625 181.876 86.8011 181.98 87.0136L181.404 87.321C181.338 87.2235 181.248 87.1448 181.142 87.0922C181.037 87.0397 180.92 87.0152 180.802 87.0211C180.684 87.027 180.57 87.063 180.471 87.1258C180.371 87.1885 180.289 87.2759 180.233 87.3794C180.177 87.483 180.148 87.5992 180.15 87.717C180.151 87.8348 180.183 87.9502 180.243 88.052C180.302 88.1539 180.386 88.2388 180.488 88.2986C180.589 88.3584 180.704 88.3911 180.822 88.3935C180.942 88.3937 181.06 88.3609 181.163 88.2986C181.265 88.2363 181.349 88.147 181.404 88.0403L181.98 88.3543C181.875 88.5655 181.709 88.7407 181.504 88.8572C181.299 88.9737 181.064 89.0263 180.829 89.0082C180.644 89.026 180.458 89.0042 180.282 88.9443C180.106 88.8845 179.946 88.7879 179.81 88.6611C179.675 88.5343 179.568 88.3802 179.496 88.2089C179.425 88.0376 179.391 87.853 179.397 87.6676Z" fill="#263238"/>
<path d="M182.189 87.6676C182.168 87.3847 182.233 87.102 182.375 86.8563C182.516 86.6107 182.729 86.4135 182.985 86.2903C183.24 86.1672 183.527 86.1239 183.807 86.166C184.088 86.2081 184.349 86.3337 184.558 86.5264C184.766 86.7191 184.911 86.9701 184.975 87.2466C185.038 87.5231 185.017 87.8123 184.914 88.0765C184.811 88.3408 184.63 88.5679 184.396 88.7283C184.162 88.8886 183.885 88.9748 183.602 88.9756C183.421 88.99 183.24 88.9669 183.069 88.9077C182.898 88.8485 182.741 88.7544 182.608 88.6315C182.476 88.5086 182.37 88.3594 182.298 88.1935C182.225 88.0276 182.188 87.8485 182.189 87.6676ZM184.256 87.6676C184.244 87.5414 184.196 87.4212 184.118 87.3216C184.04 87.2221 183.934 87.1475 183.814 87.1069C183.694 87.0663 183.565 87.0615 183.442 87.093C183.319 87.1245 183.208 87.1909 183.122 87.2843C183.037 87.3777 182.98 87.494 182.959 87.619C182.938 87.744 182.954 87.8723 183.005 87.9884C183.056 88.1045 183.139 88.2034 183.245 88.273C183.351 88.3426 183.475 88.3799 183.602 88.3804C183.693 88.3808 183.783 88.3621 183.866 88.3257C183.95 88.2892 184.025 88.2357 184.086 88.1686C184.148 88.1014 184.195 88.0222 184.224 87.936C184.253 87.8497 184.264 87.7583 184.256 87.6676Z" fill="#263238"/>
<path d="M189.854 87.4779V88.9494H189.108V87.5956C189.108 87.1771 188.919 86.9874 188.618 86.9874C188.317 86.9874 188.049 87.2032 188.049 87.6414V88.9494H187.303V87.5956C187.303 87.1771 187.127 86.9874 186.819 86.9874C186.512 86.9874 186.257 87.2032 186.257 87.6414V88.9494H185.511V86.3792H186.218V86.6931C186.32 86.581 186.446 86.4925 186.586 86.4338C186.726 86.375 186.877 86.3475 187.029 86.3531C187.194 86.3447 187.359 86.3794 187.507 86.454C187.655 86.5285 187.781 86.6402 187.872 86.7782C187.984 86.6406 188.126 86.5307 188.287 86.457C188.448 86.3832 188.624 86.3477 188.801 86.3531C188.948 86.343 189.096 86.3658 189.233 86.4198C189.37 86.4739 189.494 86.5578 189.594 86.6655C189.695 86.7732 189.771 86.902 189.816 87.0425C189.861 87.183 189.874 87.3317 189.854 87.4779Z" fill="#263238"/>
<path d="M146.913 105.391L148.123 106.045L147.58 106.954L146.357 106.234V107.582H145.31V106.221L144.127 106.967L143.59 106.058L144.807 105.404L143.59 104.75L144.127 103.841L145.35 104.573V103.219H146.396V104.573L147.619 103.841L148.162 104.75L146.913 105.391Z" fill="#263238"/>
<path d="M151.955 105.391L153.165 106.045L152.622 106.967L151.399 106.247V107.595H150.359V106.234L149.156 106.967L148.62 106.058L149.83 105.404L148.62 104.75L149.156 103.841L150.379 104.573V103.219H151.419V104.573L152.642 103.841L153.184 104.75L151.955 105.391Z" fill="#263238"/>
<path d="M157.004 105.391L158.214 106.045L157.658 106.967L156.441 106.247V107.595H155.395V106.234L154.205 106.967L153.675 106.058L154.885 105.404L153.675 104.75L154.205 103.841L155.428 104.573V103.219H156.474V104.573L157.69 103.841L158.24 104.75L157.004 105.391Z" fill="#263238"/>
<path d="M162.033 105.391L163.243 106.045L162.7 106.954L161.477 106.234V107.582H160.431V106.221L159.247 106.967L158.711 106.058L159.927 105.404L158.711 104.75L159.247 103.841L160.47 104.573V103.219H161.516V104.573L162.739 103.841L163.282 104.75L162.033 105.391Z" fill="#263238"/>
<path d="M167.075 105.391L168.285 106.045L167.742 106.954L166.519 106.234V107.582H165.506V106.221L164.289 106.967L163.753 106.058L164.963 105.404L163.753 104.75L164.289 103.841L165.506 104.547V103.193H166.546V104.547L167.768 103.815L168.311 104.724L167.075 105.391Z" fill="#263238"/>
<path d="M172.118 105.391L173.327 106.045L172.785 106.954L171.562 106.234V107.582H170.515V106.221L169.325 106.967L168.795 106.058L170.005 105.404L168.795 104.75L169.325 103.841L170.548 104.573V103.219H171.594V104.573L172.817 103.841L173.36 104.75L172.118 105.391Z" fill="#263238"/>
<path d="M177.153 105.391L178.363 106.045L177.82 106.954L176.597 106.234V107.582H175.551V106.221L174.367 106.967L173.831 106.058L175.047 105.404L173.831 104.75L174.367 103.841L175.59 104.573V103.219H176.624V104.573L177.847 103.841L178.389 104.75L177.153 105.391Z" fill="#263238"/>
<path d="M182.196 105.391L183.405 106.045L182.863 106.954L181.64 106.234V107.582H180.6V106.221L179.41 106.967L178.873 106.058L180.083 105.404L178.873 104.75L179.41 103.841L180.633 104.573V103.219H181.672V104.573L182.895 103.841L183.438 104.75L182.196 105.391Z" fill="#263238"/>
<path d="M129.033 69H71.9671C71.5769 69 71.1905 69.0701 70.83 69.2062C70.4696 69.3423 70.1422 69.5417 69.8666 69.7932C69.591 70.0446 69.3726 70.343 69.224 70.6714C69.0753 70.9997 68.9993 71.3515 69.0002 71.7067V95.36C68.9953 95.7158 69.0687 96.0689 69.2161 96.3985C69.3634 96.7281 69.5818 97.0275 69.8582 97.2792C70.1347 97.5308 70.4637 97.7295 70.8259 97.8636C71.1881 97.9977 71.5761 98.0645 71.9671 98.06H95.907L100.991 104L105.232 98.06H129.033C129.423 98.06 129.809 97.9902 130.169 97.8545C130.528 97.7188 130.856 97.5199 131.131 97.2692C131.407 97.0185 131.625 96.7208 131.774 96.3932C131.923 96.0657 132 95.7146 132 95.36V71.7067C132 70.99 131.688 70.3025 131.131 69.7951C130.575 69.2877 129.821 69.0018 129.033 69Z" fill="white"/>
<path d="M128.939 69.1439H129.216C129.492 69.1656 129.764 69.221 130.025 69.3086C130.45 69.4465 130.834 69.672 131.147 69.9673C131.594 70.4015 131.868 70.9575 131.927 71.548C131.985 74.0904 131.971 77.7921 131.993 82.4817C131.993 84.8265 131.993 87.415 131.993 90.2209C131.993 91.6304 131.993 93.0861 131.993 94.601C132.012 94.9882 131.993 95.3762 131.934 95.7602C131.845 96.1598 131.661 96.5373 131.395 96.8668C131.122 97.2046 130.769 97.4828 130.362 97.6812C129.954 97.8795 129.503 97.9928 129.041 98.0128H105.222L105.368 97.947C104.041 99.7846 102.613 101.78 101.155 103.809L101.017 104L100.856 103.822L95.7983 97.9601L95.944 98.026H73.0366C72.6211 98.026 72.2348 98.026 71.7903 98.026C71.1434 97.9563 70.5363 97.7075 70.0521 97.3136C69.568 96.9197 69.2306 96.4001 69.0863 95.8261C69.0136 95.4567 68.9867 95.0811 69.0061 94.7064V85.0571C69.0061 82.2512 69.0061 79.5002 69.0061 76.8041V71.8181C69.0064 71.471 69.078 71.1271 69.2174 70.8037C69.4877 70.161 70.0052 69.6279 70.6751 69.302C71.0098 69.1473 71.3729 69.0491 71.7465 69.0122C72.1059 68.9959 72.4659 68.9959 72.8252 69.0122H79.0276H86.8846H100.98L121.388 69.0649L126.934 69.0978L121.388 69.1308L100.98 69.1834H86.8846H72.8835C72.5337 69.1834 72.1547 69.1834 71.8413 69.1834C71.5102 69.2178 71.1889 69.3071 70.8938 69.4469C70.291 69.7259 69.8218 70.1944 69.5746 70.7642C69.4495 71.0517 69.3853 71.3577 69.3851 71.6666V72.6546C69.3851 73.9719 69.3851 75.2892 69.3851 76.6526V84.9056C69.3851 87.707 69.3851 90.5612 69.3851 93.4681V94.5615C69.362 94.9117 69.384 95.2631 69.4507 95.6087C69.5791 96.1133 69.8771 96.5696 70.3038 96.9151C70.7305 97.2606 71.265 97.4784 71.834 97.5386C72.2057 97.5715 72.6357 97.5386 73.0366 97.5386H96.068L96.1263 97.6044L101.184 103.466H100.886L105.106 97.6044L105.157 97.532H105.259H129.063C129.482 97.5193 129.892 97.4202 130.262 97.2421C130.632 97.064 130.952 96.8117 131.198 96.5045C131.445 96.2088 131.614 95.8665 131.694 95.5033C131.75 95.1346 131.769 94.7621 131.752 94.3902C131.752 92.8753 131.752 91.4197 131.752 90.0101C131.752 87.2043 131.752 84.6158 131.752 82.2709C131.752 77.5945 131.752 73.8928 131.788 71.3438C131.724 70.7929 131.469 70.2743 131.06 69.8619C130.76 69.5598 130.389 69.3232 129.974 69.1703C129.632 69.117 129.283 69.1082 128.939 69.1439Z" fill="#263238"/>
<path d="M91.4976 75.8172V76.674H90.9417V75.8107L90 74.2673H90.5951L91.2491 75.3398L91.9031 74.2673H92.4525L91.4976 75.8172Z" fill="#263238"/>
<path d="M92.4264 75.4641C92.4146 75.2032 92.4812 74.9448 92.6176 74.7221C92.754 74.4994 92.954 74.3226 93.1917 74.2145C93.4294 74.1064 93.6941 74.072 93.9515 74.1156C94.209 74.1592 94.4475 74.2789 94.6364 74.4593C94.8252 74.6397 94.9558 74.8724 95.0112 75.1276C95.0666 75.3828 95.0444 75.6488 94.9474 75.8912C94.8503 76.1337 94.683 76.3415 94.4668 76.488C94.2506 76.6345 93.9955 76.7129 93.7344 76.7132C93.5654 76.7212 93.3967 76.6948 93.2382 76.6356C93.0798 76.5764 92.9351 76.4856 92.8128 76.3688C92.6905 76.252 92.5932 76.1116 92.5268 75.9561C92.4603 75.8006 92.4262 75.6332 92.4264 75.4641ZM94.5061 75.4641C94.5048 75.3143 94.4592 75.1683 94.375 75.0444C94.2909 74.9205 94.172 74.8243 94.0333 74.7679C93.8945 74.7115 93.7422 74.6974 93.5955 74.7274C93.4487 74.7574 93.3142 74.8301 93.2087 74.9365C93.1033 75.0428 93.0317 75.178 93.0029 75.325C92.9742 75.472 92.9896 75.6242 93.0472 75.7624C93.1048 75.9007 93.202 76.0188 93.3267 76.1018C93.4513 76.1849 93.5977 76.2292 93.7474 76.2292C93.8484 76.232 93.9488 76.214 94.0425 76.1765C94.1362 76.1389 94.2212 76.0825 94.2923 76.0108C94.3634 75.9391 94.4191 75.8536 94.4558 75.7596C94.4926 75.6655 94.5097 75.565 94.5061 75.4641Z" fill="#263238"/>
<path d="M95.4805 75.608V74.2673H96.0429V75.5753C96.0429 76.0331 96.2456 76.2292 96.5792 76.2292C96.9127 76.2292 97.122 76.0396 97.122 75.5753V74.2673H97.6779V75.621C97.6779 75.9124 97.5621 76.1919 97.3561 76.3979C97.15 76.604 96.8706 76.7197 96.5792 76.7197C96.2878 76.7197 96.0083 76.604 95.8023 76.3979C95.5962 76.1919 95.4805 75.9124 95.4805 75.621V75.608Z" fill="#263238"/>
<path d="M99.7772 76.674L99.3128 76.02H98.7962V76.674H98.2338V74.2673H99.2801C99.9341 74.2673 100.333 74.6008 100.333 75.1436C100.34 75.3071 100.296 75.4687 100.207 75.6059C100.118 75.7431 99.9883 75.849 99.836 75.9088L100.379 76.687L99.7772 76.674ZM99.254 74.712H98.7962V75.5753H99.254C99.5941 75.5753 99.7641 75.4118 99.7641 75.1502C99.7641 74.8886 99.5941 74.7054 99.2409 74.7054L99.254 74.712Z" fill="#263238"/>
<path d="M101.608 75.4641C101.611 75.1959 101.695 74.9348 101.851 74.7163C102.006 74.4977 102.225 74.3323 102.478 74.2423C102.73 74.1524 103.005 74.1423 103.263 74.2134C103.522 74.2846 103.752 74.4335 103.924 74.6401L103.564 74.9736C103.49 74.8823 103.396 74.809 103.289 74.7592C103.183 74.7093 103.067 74.6843 102.949 74.6858C102.756 74.7036 102.576 74.7929 102.445 74.9363C102.315 75.0797 102.242 75.2668 102.242 75.4608C102.242 75.6549 102.315 75.842 102.445 75.9853C102.576 76.1287 102.756 76.218 102.949 76.2358C103.066 76.2387 103.182 76.2148 103.289 76.1661C103.395 76.1174 103.489 76.045 103.564 75.9546L103.924 76.2816C103.753 76.4877 103.523 76.6365 103.265 76.7078C103.007 76.7792 102.733 76.7696 102.481 76.6805C102.228 76.5914 102.009 76.427 101.853 76.2094C101.697 75.9919 101.612 75.7318 101.608 75.4641Z" fill="#263238"/>
<path d="M104.1 75.4641C104.088 75.2032 104.155 74.9448 104.291 74.7221C104.428 74.4994 104.628 74.3226 104.865 74.2145C105.103 74.1064 105.368 74.072 105.625 74.1156C105.883 74.1592 106.121 74.2789 106.31 74.4593C106.499 74.6397 106.63 74.8724 106.685 75.1276C106.74 75.3828 106.718 75.6488 106.621 75.8912C106.524 76.1337 106.357 76.3415 106.14 76.488C105.924 76.6345 105.669 76.7129 105.408 76.7132C105.239 76.7212 105.07 76.6948 104.912 76.6356C104.754 76.5764 104.609 76.4856 104.487 76.3688C104.364 76.252 104.267 76.1116 104.2 75.9561C104.134 75.8006 104.1 75.6332 104.1 75.4641ZM106.18 75.4641C106.177 75.3146 106.131 75.1693 106.046 75.0462C105.961 74.9232 105.841 74.828 105.703 74.7726C105.564 74.7172 105.412 74.704 105.265 74.7347C105.119 74.7655 104.985 74.8387 104.88 74.9453C104.775 75.0519 104.705 75.1871 104.676 75.3339C104.648 75.4807 104.664 75.6326 104.722 75.7704C104.779 75.9083 104.877 76.026 105.001 76.1088C105.126 76.1916 105.272 76.2358 105.421 76.2358C105.523 76.2386 105.624 76.2204 105.718 76.1825C105.812 76.1445 105.897 76.0875 105.969 76.0151C106.04 75.9427 106.095 75.8564 106.132 75.7616C106.168 75.6668 106.184 75.5655 106.18 75.4641Z" fill="#263238"/>
<path d="M107.174 74.2673H108.279C108.449 74.2496 108.62 74.2678 108.782 74.3206C108.944 74.3733 109.093 74.4595 109.219 74.5736C109.346 74.6876 109.447 74.827 109.516 74.9827C109.586 75.1383 109.622 75.3068 109.622 75.4772C109.622 75.6475 109.586 75.816 109.516 75.9717C109.447 76.1273 109.346 76.2667 109.219 76.3808C109.093 76.4948 108.944 76.581 108.782 76.6338C108.62 76.6865 108.449 76.7047 108.279 76.687H107.174V74.2673ZM108.246 76.2293C108.446 76.2293 108.637 76.15 108.778 76.009C108.919 75.8679 108.999 75.6766 108.999 75.4772C108.999 75.2777 108.919 75.0864 108.778 74.9454C108.637 74.8043 108.446 74.7251 108.246 74.7251H107.743V76.2293H108.246Z" fill="#263238"/>
<path d="M111.915 76.2292V76.6805H110.038V74.2673H111.87V74.712H110.594V75.2417H111.719V75.6799H110.594V76.2292H111.915Z" fill="#263238"/>
<path d="M123.406 79H77.5942C76.1615 79 75 80.094 75 81.4435V90.5565C75 91.906 76.1615 93 77.5942 93H123.406C124.839 93 126 91.906 126 90.5565V81.4435C126 80.094 124.839 79 123.406 79Z" fill="#F5F5F5"/>
<path d="M83.7567 86.6931C83.7579 86.9669 83.7018 87.238 83.592 87.4888C83.4821 87.7396 83.321 87.9646 83.1189 88.1494C82.9169 88.3342 82.6784 88.4747 82.4188 88.5618C82.1592 88.6489 81.8843 88.6807 81.6116 88.6551C79.9243 88.6551 79.0284 87.4387 79.0284 85.4244C79.0284 83.24 80.1859 82.1217 81.8929 82.1217C82.3994 82.0997 82.9026 82.2126 83.3513 82.4487L83.1616 82.828C82.7737 82.6155 82.3348 82.5137 81.8929 82.5337C80.4475 82.5337 79.4993 83.482 79.4993 85.3524C79.4972 85.6106 79.5147 85.8686 79.5516 86.1241C79.7052 85.7125 79.9887 85.3622 80.3592 85.1262C80.7298 84.8902 81.1672 84.7813 81.6051 84.8162C82.9196 84.7704 83.7567 85.5225 83.7567 86.6931ZM83.2859 86.6931C83.2859 85.771 82.6319 85.1759 81.5397 85.1759C81.3204 85.1534 81.0988 85.1759 80.8884 85.2419C80.6781 85.308 80.4834 85.4163 80.3163 85.5601C80.1492 85.7039 80.0132 85.8803 79.9165 86.0785C79.8199 86.2767 79.7647 86.4925 79.7543 86.7127C79.7543 87.4648 80.4083 88.2235 81.5986 88.2235C81.8146 88.2506 82.0338 88.2311 82.2417 88.1663C82.4495 88.1016 82.641 87.993 82.8034 87.848C82.9657 87.703 83.0951 87.5249 83.1829 87.3257C83.2706 87.1265 83.3147 86.9108 83.312 86.6931H83.2859Z" fill="#AB0000"/>
<path d="M92.3306 86.7978H90.9834V88.5832H90.5191V86.7978H86.8502V86.4577L90.349 82.1413H90.8722L87.4388 86.3792H90.5321V84.8096H90.9834V86.3792H92.3306V86.7978Z" fill="#AB0000"/>
<path d="M99.4852 86.7651C99.4852 87.8376 98.7135 88.6289 97.2289 88.6289C96.8115 88.6451 96.3951 88.5763 96.0051 88.4268C95.615 88.2772 95.2593 88.0501 94.9596 87.7591L95.195 87.3994C95.4622 87.663 95.7805 87.8691 96.1302 88.0052C96.48 88.1413 96.8539 88.2044 97.2289 88.1908C98.3865 88.1908 99.0078 87.6414 99.0078 86.7651C99.0078 85.8887 98.4192 85.3393 97.1308 85.3393H96.7254V84.9993L98.6285 82.5599H95.195V82.1152H99.2367V82.4422L97.2747 84.9208C98.7985 84.9797 99.4852 85.7187 99.4852 86.7651Z" fill="#AB0000"/>
<path d="M107.3 82.1152V82.4422L104.534 88.557H104.017L106.758 82.5337H103.141V83.7698H102.683V82.1152H107.3Z" fill="#AB0000"/>
<path d="M110.57 85.3851C110.57 83.3708 111.61 82.1152 113.088 82.1152C114.566 82.1152 115.613 83.3643 115.613 85.3851C115.613 87.406 114.573 88.6551 113.088 88.6551C111.604 88.6551 110.57 87.3471 110.57 85.3851ZM115.148 85.3851C115.148 83.5932 114.311 82.5533 113.095 82.5533C111.878 82.5533 111.041 83.5932 111.041 85.3851C111.041 87.1771 111.878 88.2169 113.095 88.2169C114.311 88.2169 115.148 87.1509 115.148 85.3851Z" fill="#AB0000"/>
<path d="M118 85.3851C118 83.3708 119.04 82.1152 120.518 82.1152C121.996 82.1152 123.042 83.3643 123.042 85.3851C123.042 87.406 122.002 88.6551 120.518 88.6551C119.033 88.6551 118 87.3471 118 85.3851ZM122.578 85.3851C122.578 83.5932 121.741 82.5533 120.524 82.5533C119.308 82.5533 118.471 83.5932 118.471 85.3851C118.471 87.1771 119.308 88.2169 120.524 88.2169C121.741 88.2169 122.578 87.1509 122.578 85.3851Z" fill="#AB0000"/>
<path d="M250.31 254.376C258.871 250.739 268.785 243.591 273.199 234.821C263.699 238.764 255.688 245.608 250.31 254.376Z" fill="#263238"/>
<path d="M252.134 240.766C260.695 237.136 270.61 229.988 275.024 221.218C265.522 225.155 257.51 231.998 252.134 240.766Z" fill="#263238"/>
<path d="M254.626 227.536C263.193 223.9 273.101 216.751 277.516 207.988C268.015 211.926 260.003 218.768 254.626 227.536Z" fill="#263238"/>
<path d="M257.713 213.684C265.79 208.91 274.795 200.408 278.17 191.135C269.195 196.363 262.056 204.24 257.733 213.684" fill="#263238"/>
<path d="M261.035 203.083C266.921 195.386 272.408 183.928 272.336 174C265.794 182.374 261.863 192.489 261.035 203.083Z" fill="#263238"/>
<path d="M259.387 208.125C258.197 197.714 254.155 184.627 247.275 176.819C248.437 188.15 252.62 198.962 259.387 208.125Z" fill="#263238"/>
<path d="M256.621 219.511C254.528 208.779 249.231 195.503 241.422 187.976C243.56 199.663 248.811 210.558 256.621 219.511Z" fill="#263238"/>
<path d="M253.442 233.396C251.356 222.644 246.046 209.387 238.276 201.86C240.414 213.548 245.665 224.442 253.475 233.396" fill="#263238"/>
<path d="M250.892 250.445C248.793 239.713 243.495 226.437 235.693 218.91C237.831 230.597 243.082 241.492 250.892 250.445Z" fill="#263238"/>
<path d="M261.434 201.062C261.402 201.112 261.38 201.168 261.369 201.226C261.323 201.35 261.271 201.507 261.205 201.703C261.061 202.154 260.859 202.776 260.61 203.56C260.093 205.176 259.4 207.524 258.583 210.44C257.765 213.357 256.863 216.843 255.934 220.734C255.005 224.626 254.09 228.935 253.227 233.474C252.363 238.013 251.69 242.368 251.121 246.331C250.552 250.295 250.146 253.879 249.852 256.887C249.558 259.895 249.348 262.341 249.244 264.035C249.191 264.859 249.152 265.507 249.12 265.997C249.12 266.206 249.12 266.37 249.12 266.507C249.111 266.563 249.111 266.621 249.12 266.677C249.14 266.623 249.151 266.565 249.152 266.507C249.152 266.376 249.152 266.206 249.205 266.004C249.25 265.533 249.316 264.885 249.394 264.042C249.538 262.361 249.78 259.921 250.107 256.913C250.434 253.905 250.885 250.334 251.448 246.377C252.01 242.421 252.756 238.078 253.58 233.539C254.404 229.001 255.359 224.704 256.255 220.806C257.151 216.908 258.04 213.423 258.831 210.499C259.623 207.576 260.277 205.222 260.754 203.6L261.29 201.723C261.343 201.527 261.382 201.363 261.421 201.232C261.433 201.176 261.437 201.119 261.434 201.062Z" fill="#263238"/>
<path d="M246.124 260.039C249.754 252.44 252.396 241.727 250.617 233.402C246.559 241.654 244.997 250.912 246.124 260.039Z" fill="#455A64"/>
<path d="M240.101 250.197C243.731 242.591 246.373 231.885 244.587 223.56C240.527 231.811 238.968 241.07 240.101 250.197Z" fill="#455A64"/>
<path d="M234.686 240.184C238.316 232.578 240.958 221.872 239.172 213.547C235.112 221.799 233.553 231.057 234.686 240.184Z" fill="#455A64"/>
<path d="M229.349 229.387C232.05 221.342 233.404 210.368 230.657 202.344C227.61 211.041 227.156 220.436 229.349 229.387Z" fill="#455A64"/>
<path d="M225.851 220.545C225.582 211.984 223.065 201.258 217.748 194.934C217.866 204.083 220.685 212.993 225.851 220.545Z" fill="#455A64"/>
<path d="M227.479 224.789C221.181 218.851 211.607 212.945 203 212.173C209.732 218.708 218.251 223.099 227.479 224.789Z" fill="#455A64"/>
<path d="M231.736 233.801C224.68 228.203 214.19 222.958 205.125 222.938C212.724 229.115 221.986 232.896 231.736 233.801Z" fill="#455A64"/>
<path d="M237.034 244.664C229.977 239.072 219.494 233.821 210.429 233.801C218.026 239.977 227.286 243.758 237.034 244.664Z" fill="#455A64"/>
<path d="M244.43 257.168C237.374 251.57 226.884 246.325 217.819 246.299C225.416 252.48 234.679 256.264 244.43 257.168Z" fill="#455A64"/>
<path d="M225.053 218.995C225.053 218.995 225.053 219.04 225.092 219.132L225.236 219.537L225.824 221.074C226.341 222.382 227.132 224.344 228.133 226.686C230.147 231.388 233.136 237.803 236.844 244.697C238.701 248.13 240.565 251.361 242.305 254.258C244.045 257.155 245.699 259.732 247.118 261.864C248.538 263.996 249.734 265.703 250.545 266.867L251.513 268.175L251.768 268.515C251.827 268.593 251.86 268.633 251.866 268.626C251.845 268.581 251.821 268.537 251.794 268.495L251.566 268.136C251.337 267.802 251.036 267.344 250.65 266.769C249.839 265.585 248.688 263.858 247.308 261.713C245.928 259.568 244.3 256.978 242.56 254.081C240.82 251.184 238.983 247.947 237.125 244.513C233.417 237.686 230.428 231.277 228.342 226.568C227.309 224.227 226.491 222.323 225.942 221.002L225.288 219.485L225.112 219.093C225.095 219.058 225.075 219.025 225.053 218.995Z" fill="#263238"/>
<path d="M228.846 260.961H264.92V267.913H261.212L258.092 287.742H235.791L232.58 267.913H228.846V260.961Z" fill="#AB0000"/>
<path d="M228.846 267.769C228.846 267.678 236.864 267.599 246.752 267.599C256.64 267.599 264.658 267.678 264.658 267.769C264.658 267.861 256.647 267.933 246.752 267.933C236.857 267.933 228.846 267.861 228.846 267.769Z" fill="#263238"/>
<path d="M22.6804 287.181H16.8272L14.6559 260.818H21.549L22.6804 287.181Z" fill="#263238"/>
<path d="M73.4302 287.181H79.2834L81.4546 260.818H74.5616L73.4302 287.181Z" fill="#263238"/>
<path d="M85.4767 264.16L10.1107 265.926L7.82173 217.249C7.76772 216.12 7.94357 214.992 8.33861 213.932C8.73365 212.873 9.33966 211.905 10.1199 211.087C10.9002 210.269 11.8384 209.617 12.8778 209.173C13.9172 208.728 15.0361 208.499 16.1667 208.499H80.3821C81.5282 208.499 82.662 208.735 83.7132 209.191C84.7643 209.648 85.7103 210.316 86.4924 211.154C87.2744 211.992 87.8757 212.982 88.259 214.062C88.6423 215.142 88.7994 216.289 88.7205 217.433L85.4767 264.16Z" fill="#AB0000"/>
<path d="M89.3418 217.086H89.1325H88.5112L86.1372 217.125H77.3999C70.0229 217.125 59.8337 217.06 48.585 217.321C37.3298 217.694 27.1276 217.629 19.7571 217.518C16.0686 217.459 13.0798 217.387 11.0197 217.321L8.64575 217.243H8.03099C7.96152 217.252 7.89119 217.252 7.82172 217.243H8.03099H8.64575H11.0197L19.7571 217.328C27.1341 217.38 37.3233 217.406 48.5785 217.027C59.8337 216.772 70.0229 216.89 77.3999 216.942L86.1372 217.014L88.5112 217.047H89.1325L89.3418 217.086Z" fill="#263238"/>
<path d="M35.309 209.258C33.615 209.505 31.9667 210.001 30.4171 210.729C28.9166 211.555 27.5478 212.599 26.3558 213.829C26.5958 213.373 26.9122 212.962 27.291 212.613C29.0295 210.824 31.3103 209.661 33.7786 209.304C34.2821 209.198 34.8001 209.183 35.309 209.258Z" fill="#263238"/>
<path d="M66.3082 120.753L75.5164 137.58L88.9886 130.033L95.5285 132.198C95.5285 132.198 79.0218 150.13 76.3339 151.066C73.646 152.001 68.5579 152.151 65.6542 148.508C63.0382 145.193 55.295 127.797 55.295 127.797L66.3082 120.753Z" fill="#FFBE9D"/>
<path d="M104.233 109.766C104.115 109.621 103.961 109.509 103.787 109.44C103.613 109.371 103.425 109.348 103.239 109.374L96.8365 110.237C96.5582 110.278 96.2921 110.379 96.0563 110.533C95.8205 110.686 95.6204 110.889 95.4697 111.126L82.1217 131.629L83.1419 132.198L90.2443 131.976L104.436 110.021L104.233 109.766Z" fill="#263238"/>
<path d="M99.6879 112.428C99.7391 112.509 99.8146 112.572 99.9036 112.608C99.9926 112.644 100.091 112.651 100.184 112.628C100.277 112.605 100.361 112.554 100.423 112.481C100.485 112.408 100.523 112.317 100.531 112.221C100.539 112.126 100.517 112.03 100.468 111.948C100.418 111.865 100.344 111.801 100.256 111.763C100.168 111.725 100.07 111.716 99.9762 111.736C99.8825 111.757 99.7976 111.807 99.7337 111.878C99.6582 111.947 99.6116 112.042 99.6031 112.144C99.5946 112.246 99.6249 112.347 99.6879 112.428Z" fill="white"/>
<path d="M104.436 110.021C104.029 110.135 103.613 110.216 103.193 110.263L99.7925 110.793L97.4447 111.133C97.2456 111.151 97.053 111.213 96.881 111.315C96.709 111.416 96.562 111.555 96.4506 111.721L95.692 112.899C94.6391 114.514 93.4946 116.286 92.2913 118.131C89.865 121.845 87.6545 125.2 86.0326 127.62L84.1033 130.511C83.8789 130.869 83.6275 131.21 83.3512 131.531C83.5354 131.145 83.7543 130.778 84.0052 130.432L85.8364 127.515C87.3994 125.056 89.5707 121.682 91.997 117.967C93.2134 116.116 94.371 114.35 95.4239 112.735C95.692 112.336 95.9536 111.944 96.2021 111.558C96.3416 111.358 96.5234 111.19 96.7348 111.068C96.9462 110.946 97.1819 110.872 97.4251 110.852L99.786 110.551L103.206 110.145C103.612 110.071 104.023 110.03 104.436 110.021Z" fill="#455A64"/>
<path d="M97.314 117.339C97.314 117.339 96.745 117.241 96.4311 118.804C96.1172 120.367 95.1231 124.854 95.1231 124.854L92.1278 123.264L88.3739 123.755C88.3739 123.755 87.5564 124.507 88.1581 124.919C88.7597 125.331 91.1272 125.75 91.1272 125.75L92.8734 128.267L87.8572 125.848C87.8572 125.848 86.183 126.286 86.6735 127.306C87.164 128.326 90.5451 131.524 90.5451 131.524L88.0338 131.335L85.0647 129.517C85.0647 129.517 84.1491 129.562 84.4892 130.341C84.8293 131.119 87.9423 133.944 87.9423 133.944L91.7093 135.775C91.7093 135.775 93.7693 135.612 93.9655 135.004C94.0987 134.525 94.182 134.034 94.214 133.539C94.214 133.539 95.3062 133.244 95.522 132.715C95.6422 132.269 95.6667 131.803 95.594 131.348C95.594 131.348 97.3074 131.649 97.5232 130.694C97.6731 129.504 97.6245 128.297 97.3794 127.123C97.2093 126.384 98.1118 119.55 98.0333 119.347C97.9549 119.144 98.393 116.888 97.314 117.339Z" fill="#FFBE9D"/>
<path d="M94.0636 135.017C93.7659 135.195 93.4292 135.298 93.0826 135.317C91.4115 135.56 89.7108 135.155 88.3281 134.186C87.8115 133.813 87.5564 133.532 87.5891 133.473C87.6218 133.414 88.8513 134.408 90.6825 134.833C92.5136 135.259 94.044 134.899 94.0636 135.017Z" fill="#EB996E"/>
<path d="M93.1742 133.663C93.1153 133.748 92.4417 133.401 91.7289 132.813C91.016 132.224 90.5452 131.642 90.6171 131.57C90.689 131.498 91.2711 131.943 91.9774 132.518C92.6837 133.094 93.2331 133.571 93.1742 133.663Z" fill="#EB996E"/>
<path d="M95.1558 130.413C95.0969 130.498 94.4298 130.157 93.7628 129.536C93.0957 128.915 92.7033 128.287 92.7818 128.228C92.8603 128.169 93.3834 128.666 94.0244 129.261C94.6653 129.857 95.2146 130.321 95.1558 130.413Z" fill="#EB996E"/>
<path d="M97.242 127.79C97.1373 127.836 96.758 127.136 96.1629 126.358C95.5678 125.579 94.9857 125.05 95.0511 124.945C95.1165 124.84 95.8359 125.298 96.4637 126.122C96.894 126.581 97.1666 127.165 97.242 127.79Z" fill="#EB996E"/>
<path d="M99.786 249.079C99.8359 248.875 99.8359 248.662 99.786 248.458C99.68 247.893 99.4573 247.356 99.132 246.882C99.0257 246.717 98.9006 246.566 98.7593 246.431C98.6666 246.343 98.5521 246.282 98.4277 246.255C98.3034 246.227 98.1739 246.234 98.0529 246.274C97.9818 246.298 97.9171 246.339 97.8639 246.392C97.8106 246.445 97.7702 246.51 97.7456 246.581C97.6997 246.717 97.6997 246.864 97.7456 247C97.8349 247.227 97.9443 247.446 98.0726 247.654C98.3145 248.066 98.5173 248.471 98.8312 248.962C98.9227 249.093 99.0484 249.198 99.1947 249.263C99.3411 249.329 99.5025 249.354 99.6618 249.334C99.9541 249.282 100.23 249.161 100.466 248.981C100.899 248.664 101.294 248.297 101.643 247.889C101.812 247.695 101.969 247.492 102.114 247.281C102.273 247.074 102.391 246.839 102.461 246.588C102.5 246.44 102.486 246.283 102.421 246.144C102.357 246.006 102.246 245.894 102.108 245.829C101.978 245.791 101.841 245.786 101.71 245.816C101.578 245.846 101.456 245.909 101.356 245.999C101.057 246.26 100.793 246.559 100.571 246.888C100.242 247.351 99.9798 247.857 99.7926 248.393C99.7065 248.582 99.6619 248.787 99.6618 248.994C99.9717 248.306 100.346 247.649 100.78 247.032C101.002 246.738 101.256 246.471 101.539 246.234C101.689 246.13 101.872 246.058 101.983 246.117C102.048 246.155 102.098 246.214 102.124 246.284C102.15 246.354 102.151 246.431 102.127 246.503C102.059 246.707 101.955 246.898 101.82 247.065C101.683 247.261 101.532 247.451 101.375 247.641C101.037 248.021 100.66 248.365 100.25 248.667C100.059 248.815 99.8345 248.914 99.5964 248.955C99.4988 248.967 99.3998 248.951 99.3107 248.91C99.2217 248.868 99.1461 248.802 99.0928 248.72C98.8377 248.347 98.5892 247.882 98.3472 247.497C98.2361 247.294 98.0987 247.098 98.0333 246.934C97.9679 246.771 98.0333 246.64 98.1314 246.588C98.4126 246.476 98.6939 246.797 98.8835 247.065C99.3087 247.674 99.6149 248.357 99.786 249.079Z" fill="#263238"/>
<path d="M83.7175 249.629L75.7388 266.927L62.8617 260.975L71.1151 239.57L83.7175 249.629Z" fill="#FFBE9D"/>
<path d="M77.2168 265.769L72.5538 274.663C72.5538 274.663 84.4891 287.004 83.3708 289.764L55.3146 276.311L63.0186 258.477L77.2168 265.769Z" fill="#455A64"/>
<path d="M64.4901 269.288C64.1818 269.249 63.8696 269.321 63.6096 269.491C63.3496 269.661 63.1586 269.918 63.0709 270.216C63.0117 270.523 63.0732 270.842 63.2425 271.105C63.4117 271.368 63.6759 271.556 63.98 271.629C64.3075 271.678 64.6418 271.605 64.9183 271.423C65.1948 271.24 65.3941 270.962 65.4776 270.641C65.5054 270.314 65.4051 269.988 65.1977 269.733C64.9903 269.479 64.6921 269.314 64.3658 269.275" fill="#E0E0E0"/>
<g opacity="0.6">
<path d="M55.3408 276.311L56.5049 274.075L82.9719 287.809C82.9719 287.809 83.9594 288.947 83.397 289.771L55.3408 276.311Z" fill="white"/>
</g>
<path d="M73.1031 274.735C73.0377 274.873 72.3183 274.605 71.4354 274.735C70.5526 274.866 69.9116 275.259 69.8135 275.141C69.7154 275.023 70.2975 274.336 71.37 274.212C72.4426 274.088 73.1947 274.624 73.1031 274.735Z" fill="#263238"/>
<path d="M75.4641 277.364C75.4641 277.515 74.7251 277.463 73.9861 277.816C73.2471 278.169 72.8154 278.725 72.6781 278.653C72.5407 278.581 72.8285 277.763 73.7637 277.345C74.6989 276.926 75.523 277.234 75.4641 277.364Z" fill="#263238"/>
<path d="M75.4445 281.687C75.3071 281.687 75.4445 280.883 76.1573 280.301C76.8702 279.719 77.655 279.725 77.655 279.869C77.655 280.013 77.0729 280.222 76.4909 280.706C75.9088 281.19 75.5884 281.74 75.4445 281.687Z" fill="#263238"/>
<path d="M74.4438 271.315C74.3261 271.413 73.7899 270.923 72.992 270.602C72.1941 270.282 71.4682 270.236 71.4551 270.085C71.442 269.935 72.253 269.726 73.1882 270.085C74.1234 270.445 74.5616 271.236 74.4438 271.315Z" fill="#263238"/>
<path d="M79.872 263.461L100.911 210.821C100.911 210.821 100.433 201.835 98.7789 199.003C97.1243 196.171 47.0155 179.619 47.0155 179.619C47.0155 179.619 34.2561 176.545 25.7411 179.619C17.2261 182.693 10.8497 193.353 12.0073 199.239C13.1648 205.124 18.1744 209.487 18.1744 209.487L55.0269 210.585L75.1109 217.91L61.5864 256.672L79.872 263.461Z" fill="#263238"/>
<path d="M98.5827 227.491L99.0601 246.529L84.8751 246.882L82.8346 224.031L98.5827 227.491Z" fill="#FFBE9D"/>
<path d="M99.9038 244.828L99.6422 254.867C99.6422 254.867 115.796 260.668 115.992 263.644L84.8816 263.958L83.9202 244.554L99.9038 244.828Z" fill="#455A64"/>
<path d="M90.0089 253.618C89.7105 253.712 89.4574 253.913 89.298 254.182C89.1387 254.451 89.0844 254.77 89.1456 255.076C89.2288 255.378 89.4242 255.636 89.6918 255.798C89.9594 255.959 90.2788 256.013 90.5844 255.946C90.8997 255.845 91.1664 255.631 91.333 255.344C91.4996 255.058 91.5545 254.72 91.4869 254.396C91.3693 254.09 91.1368 253.841 90.8389 253.703C90.541 253.565 90.201 253.549 89.8912 253.657" fill="#E0E0E0"/>
<g opacity="0.6">
<path d="M84.9012 263.958L84.96 261.433L114.769 262.087C114.769 262.087 116.155 262.676 116.012 263.657L84.9012 263.958Z" fill="white"/>
</g>
<path d="M100.146 254.704C100.146 254.854 99.3806 254.933 98.6416 255.43C97.9026 255.927 97.5036 256.567 97.3663 256.509C97.2289 256.45 97.4448 255.567 98.3538 254.985C99.2629 254.403 100.178 254.566 100.146 254.704Z" fill="#263238"/>
<path d="M103.422 256.018C103.461 256.169 102.801 256.43 102.291 257.078C101.781 257.725 101.637 258.386 101.493 258.386C101.349 258.386 101.231 257.522 101.885 256.724C102.539 255.927 103.416 255.874 103.422 256.018Z" fill="#263238"/>
<path d="M105.338 259.909C105.201 259.942 104.985 259.183 105.338 258.346C105.692 257.509 106.431 257.176 106.496 257.3C106.561 257.424 106.123 257.875 105.842 258.562C105.561 259.249 105.463 259.89 105.338 259.909Z" fill="#263238"/>
<path d="M99.8318 251.041C99.773 251.179 99.0732 250.976 98.2165 251.041C97.3597 251.107 96.6927 251.388 96.6076 251.257C96.5226 251.126 97.1635 250.603 98.1772 250.518C99.1909 250.433 99.9103 250.917 99.8318 251.041Z" fill="#263238"/>
<path d="M90.2966 174.622C90.2966 174.622 98.7985 173.968 99.7403 183.163C100.682 192.359 101.611 235.404 101.611 235.404L81.7947 237.059L78.721 193.091L47.0482 179.619C47.0482 179.619 84.6265 173.445 90.2966 174.622Z" fill="#263238"/>
<path d="M55.2819 162.183C55.2819 162.183 60.4354 176.643 59.4544 178.252C58.4734 179.861 45.217 186.492 45.217 186.492L12.0335 199.239C12.0335 199.239 8.62616 193.817 8.62616 185.505C8.62616 177.193 20.1691 162.197 20.1691 162.197L55.2819 162.183Z" fill="#263238"/>
<path d="M45.4459 178.906C45.4951 178.94 45.5477 178.968 45.6028 178.991L46.0737 179.207L47.9114 180.024L54.811 183.033L78.6229 193.281L78.5117 193.13C78.8125 197.473 79.1657 202.162 79.473 207.015C80.284 218.361 81.0295 228.819 81.6181 237.098V237.249H81.7686L96.2349 235.98L100.218 235.607L101.257 235.502L101.611 235.45C101.491 235.44 101.371 235.44 101.251 235.45L100.211 235.515L96.2218 235.81L81.7424 236.948L81.9059 237.085C81.3369 228.812 80.5979 218.348 79.8393 207.001C79.4992 202.149 79.1853 197.46 78.8583 193.117V193.013L78.7602 192.967L54.896 182.83L47.9572 179.926L46.0999 179.161L45.6159 178.971C45.561 178.945 45.5041 178.923 45.4459 178.906Z" fill="#455A64"/>
<path d="M19.0573 180.325C19.377 180.276 19.6904 180.192 19.9925 180.077L22.4908 179.266C25.2174 178.344 28.0119 177.638 30.8488 177.153C33.687 176.69 36.5843 176.728 39.4095 177.264C41.5677 177.716 42.8103 178.33 42.8365 178.259C42.5683 178.077 42.2782 177.929 41.9732 177.82C41.1628 177.479 40.3249 177.208 39.4684 177.009C36.6134 176.387 33.6664 176.312 30.7834 176.787C27.9237 177.27 25.1148 178.017 22.3927 179.017C21.3463 179.39 20.5092 179.71 19.9271 179.939C19.6271 180.044 19.3361 180.173 19.0573 180.325Z" fill="#455A64"/>
<path d="M23.7464 172.706C24.7134 172.647 25.6831 172.647 26.6501 172.706C27.5461 172.765 28.6121 172.902 29.7893 173.04C30.9665 173.177 32.2679 173.341 33.6151 173.596C35.9202 173.962 38.1297 174.783 40.1158 176.009C40.9083 176.56 41.6622 177.166 42.3721 177.82C42.2419 177.591 42.0789 177.381 41.8881 177.199C41.3977 176.671 40.8518 176.197 40.2597 175.786C38.2743 174.474 36.031 173.602 33.6805 173.229C32.3202 172.974 31.0122 172.824 29.8285 172.7C28.6448 172.575 27.5722 172.471 26.6632 172.445C25.9469 172.413 25.2291 172.444 24.5181 172.536C24.2541 172.556 23.9942 172.613 23.7464 172.706Z" fill="#455A64"/>
<path d="M38.4024 56.5311C34.5896 55.8771 31.2085 57.3485 28.0105 59.5002C24.7374 61.8009 22.2431 65.0442 20.8597 68.7982C19.4764 72.5522 19.2697 76.6385 20.2672 80.5129C20.8195 82.4819 21.7648 84.3187 23.0462 85.9125C24.3275 87.5063 25.9183 88.8241 27.7227 89.7865C32.6865 92.3044 39.0368 91.4281 43.4839 88.0665C47.9311 84.705 50.462 79.1526 50.6778 73.5872C50.8838 69.7273 49.8727 65.9003 47.7872 62.6459C46.7299 61.0381 45.3526 59.6653 43.7413 58.6133C42.1301 57.5612 40.3193 56.8524 38.422 56.5311" fill="#263238"/>
<path d="M27.5461 69.5128C28.1085 68.0478 27.8862 66.4194 28.1085 64.8695C28.599 61.4622 31.3785 58.7285 34.5176 57.4009C37.4737 56.1648 41.0576 56.433 44.6414 57.584C47.1135 58.3332 49.3208 59.7715 51.0048 61.7303C52.0764 63.0593 52.8138 64.6258 53.1552 66.2985C53.4965 67.9712 53.4319 69.7014 52.9667 71.344L35.5313 68.8065C33.8963 70.1537 32.2221 71.5336 30.2405 72.2857C29.6693 72.5363 29.0431 72.6354 28.4224 72.5735C28.1132 72.5367 27.8212 72.4117 27.5811 72.2134C27.3411 72.0151 27.1632 71.7518 27.0687 71.4551C26.9117 70.7946 27.3041 70.1472 27.5461 69.5128Z" fill="#263238"/>
<path d="M45.0142 62.3974L29.7893 65.6281C29.0837 65.6749 28.4208 65.9829 27.9299 66.4919C27.439 67.0009 27.1553 67.6745 27.1341 68.3814L27.3172 101.336C27.3326 103.586 28.0863 105.769 29.4623 107.549L30.9142 109.419C34.2299 113.69 40.9333 113.258 43.4643 108.484C43.6191 108.213 43.7378 107.923 43.8174 107.621C43.8632 107.327 43.9417 107.13 43.9548 106.882L44.2491 103.664C44.3929 100.734 44.4191 97.7783 44.4191 97.7783C44.4191 97.7783 50.6516 96.9935 52.267 88.9625C53.0583 84.9731 53.1106 78.3744 52.9798 72.9789C52.8425 68.1459 49.8668 62.0769 45.0142 62.3974Z" fill="#FFBE9D"/>
<path d="M50.6451 79.1919C50.6366 79.4613 50.5231 79.7168 50.3288 79.9038C50.1345 80.0907 49.8749 80.1943 49.6053 80.1925C49.4729 80.1986 49.3406 80.1781 49.2163 80.132C49.092 80.086 48.9783 80.0154 48.8819 79.9245C48.7855 79.8335 48.7083 79.7241 48.6551 79.6028C48.6018 79.4814 48.5736 79.3506 48.572 79.218C48.5821 78.9485 48.6959 78.6933 48.8896 78.5056C49.0834 78.318 49.3421 78.2124 49.6118 78.2109C49.7445 78.2056 49.8769 78.227 50.0012 78.2738C50.1256 78.3206 50.2392 78.3918 50.3356 78.4832C50.4319 78.5747 50.5089 78.6845 50.5621 78.8062C50.6152 78.9279 50.6435 79.0591 50.6451 79.1919Z" fill="#263238"/>
<path d="M51.4037 76.3732C51.2664 76.504 50.5078 75.8957 49.3895 75.8565C48.2711 75.8173 47.4275 76.3405 47.3228 76.1966C47.2182 76.0527 47.4013 75.8957 47.7676 75.6538C48.2635 75.3352 48.8466 75.1797 49.4352 75.2091C50.0135 75.2287 50.5703 75.4327 51.0244 75.7911C51.358 76.0723 51.4691 76.3208 51.4037 76.3732Z" fill="#263238"/>
<path d="M40.6521 78.9368C40.6453 79.2075 40.5325 79.4646 40.338 79.6529C40.1436 79.8413 39.883 79.9458 39.6123 79.944C39.4804 79.9492 39.3489 79.928 39.2253 79.8816C39.1018 79.8351 38.9889 79.7644 38.8932 79.6735C38.7974 79.5827 38.7209 79.4736 38.6681 79.3527C38.6152 79.2318 38.5872 79.1015 38.5855 78.9695C38.5923 78.7 38.7042 78.4439 38.8973 78.2557C39.0903 78.0676 39.3492 77.9623 39.6188 77.9624C39.751 77.9571 39.8829 77.9783 40.0068 78.0247C40.1306 78.0711 40.244 78.1417 40.3402 78.2325C40.4365 78.3232 40.5136 78.4322 40.5672 78.5532C40.6207 78.6741 40.6496 78.8046 40.6521 78.9368Z" fill="#263238"/>
<path d="M40.8156 76.105C40.6783 76.2358 39.9197 75.6211 38.8013 75.5818C37.683 75.5426 36.8394 76.0658 36.7347 75.9284C36.6301 75.7911 36.8132 75.6276 37.186 75.3791C37.6816 75.0654 38.2611 74.9103 38.8471 74.9344C39.4277 74.9577 39.9862 75.1637 40.4429 75.523C40.7699 75.7977 40.881 76.0462 40.8156 76.105Z" fill="#263238"/>
<path d="M44.1575 84.5808C44.7541 84.427 45.3663 84.3415 45.9822 84.3257C46.2699 84.3257 46.5381 84.2603 46.5969 84.0707C46.6305 83.7779 46.5759 83.4819 46.44 83.2205C46.198 82.5207 45.9429 81.7882 45.6813 81.0165C44.6284 77.8839 43.8829 75.3137 44.0071 75.2745C44.1314 75.2352 45.0927 77.74 46.1391 80.8726C46.3876 81.6443 46.6296 82.3768 46.8585 83.0831C47.0265 83.4336 47.0636 83.8326 46.9632 84.208C46.9171 84.3062 46.8497 84.3929 46.766 84.4619C46.6823 84.5309 46.5844 84.5804 46.4792 84.6069C46.32 84.6398 46.1578 84.6552 45.9953 84.6527C45.3822 84.7102 44.7642 84.686 44.1575 84.5808Z" fill="#263238"/>
<path d="M44.4191 97.811C40.6133 97.724 36.9066 96.5806 33.7133 94.5083C33.7133 94.5083 36.2115 100.205 44.3275 99.7403L44.4191 97.811Z" fill="#EB996E"/>
<path d="M43.582 87.249C43.3802 86.974 43.1115 86.7551 42.8013 86.6132C42.4911 86.4713 42.1498 86.411 41.8097 86.4381C41.5585 86.4514 41.3127 86.5163 41.0876 86.6288C40.8626 86.7414 40.6631 86.8991 40.5017 87.0921C40.3486 87.2701 40.2529 87.4903 40.2273 87.7238C40.2016 87.9572 40.2471 88.193 40.3579 88.4001C40.5296 88.6061 40.7586 88.7565 41.0159 88.8322C41.2733 88.9079 41.5473 88.9054 41.8032 88.8251C42.3383 88.6605 42.8344 88.3891 43.2616 88.0273C43.3922 87.9455 43.5056 87.8388 43.5951 87.7134C43.6362 87.6513 43.6581 87.5785 43.6581 87.5041C43.6581 87.4297 43.6362 87.3569 43.5951 87.2948" fill="#EB996E"/>
<path d="M40.8483 85.2282C41.0314 85.2282 40.9856 86.4315 41.9862 87.3341C42.9868 88.2366 44.2817 88.1516 44.2883 88.3216C44.2883 88.3935 43.9874 88.5439 43.4446 88.5374C42.7344 88.519 42.0534 88.2503 41.5219 87.7788C41.0167 87.3333 40.7028 86.7102 40.6455 86.0392C40.5932 85.5094 40.7633 85.2151 40.8483 85.2282Z" fill="#263238"/>
<path d="M40.7502 72.7958C40.6325 73.0967 39.5207 72.907 38.2062 73.0117C36.8917 73.1163 35.8256 73.4367 35.6621 73.1555C35.5902 73.0247 35.7799 72.7435 36.218 72.4688C36.799 72.125 37.4538 71.9255 38.1277 71.8868C38.7969 71.8298 39.47 71.9353 40.0897 72.1942C40.5932 72.4034 40.8025 72.652 40.7502 72.7958Z" fill="#263238"/>
<path d="M51.2664 71.4878C51.0637 71.7364 50.305 71.4421 49.3829 71.3897C48.4608 71.3374 47.6694 71.4944 47.4994 71.2262C47.4209 71.0954 47.5583 70.8469 47.9049 70.618C48.3743 70.341 48.9184 70.2176 49.4614 70.2649C50.0026 70.294 50.5213 70.4906 50.9459 70.8273C51.2599 71.102 51.358 71.3701 51.2664 71.4878Z" fill="#263238"/>
<path d="M24.7536 67.1584C26.3362 62.5216 33.2554 56.2041 38.1081 56.6422L45.8252 61.4752C45.5443 62.8024 44.9098 64.0288 43.9887 65.0247C43.0677 66.0206 41.8944 66.7488 40.5932 67.1323C39.2002 67.5247 37.5391 67.6097 36.6693 68.7803C35.7995 69.951 36.2638 71.7495 35.4594 72.979C34.3411 74.6924 31.3916 74.5485 30.5414 76.4059C30.1751 77.2168 30.3386 78.1978 29.9528 79.0218C29.4427 80.0944 26.6828 81.4089 25.5514 81.0296C24.42 80.6503 24.4593 78.721 24.1126 77.7008C23.6665 76.5531 23.6342 75.2859 24.0211 74.1169C24.5835 71.8214 24.0015 69.3689 24.7536 67.1584Z" fill="#263238"/>
<path d="M28.8999 82.0302C28.8999 81.4285 28.2459 79.9832 27.69 79.8655C26.1139 79.5581 23.2494 79.5777 23.0663 83.6063C22.8178 89.1129 28.3963 88.2235 28.4159 88.0665C28.4356 87.9096 28.8214 84.1099 28.8999 82.0302Z" fill="#FFBE9D"/>
<path d="M26.8594 85.9084C26.8594 85.9084 26.7613 85.9672 26.5913 86.0326C26.3625 86.1246 26.1071 86.1246 25.8784 86.0326C25.3029 85.7906 24.8582 84.8424 24.8713 83.8548C24.8819 83.3804 24.9958 82.914 25.2048 82.488C25.2653 82.3187 25.3659 82.1666 25.498 82.0447C25.6301 81.9229 25.7898 81.8348 25.9634 81.7882C26.0743 81.7629 26.1905 81.778 26.2912 81.8307C26.3919 81.8835 26.4705 81.9705 26.5128 82.076C26.5782 82.2329 26.5128 82.3441 26.5716 82.3506C26.6305 82.3572 26.6894 82.2656 26.6567 82.0367C26.6361 81.8992 26.5664 81.7737 26.4605 81.6836C26.3879 81.6215 26.3036 81.5745 26.2127 81.5453C26.1217 81.5161 26.0259 81.5053 25.9307 81.5135C25.7029 81.5494 25.4879 81.6427 25.306 81.7846C25.1241 81.9264 24.9812 82.1122 24.8909 82.3245C24.6368 82.7904 24.4998 83.3111 24.4919 83.8417C24.4919 84.9535 24.9955 86.0195 25.7999 86.2877C25.9457 86.3366 26.1005 86.3526 26.2531 86.3345C26.4058 86.3164 26.5525 86.2647 26.6828 86.183C26.8071 86.0392 26.8594 85.9149 26.8594 85.9084Z" fill="#EB996E"/>
<path d="M23.5894 65.7654C23.5894 64.0389 21.4574 62.914 19.7767 62.4954C18.0618 62.2009 16.2984 62.5378 14.8129 63.4437C13.93 63.9277 13.0406 64.6209 12.8509 65.6084C12.6612 66.596 13.603 67.7732 14.5447 67.42C14.0845 67.5706 13.6634 67.8215 13.312 68.1546C12.9605 68.4877 12.6874 68.8948 12.5124 69.3463C12.3375 69.7979 12.265 70.2826 12.3002 70.7656C12.3354 71.2486 12.4774 71.7177 12.716 72.1391C12.9546 72.5605 13.2838 72.9236 13.6799 73.2023C14.0759 73.4809 14.5289 73.6681 15.0062 73.7503C15.4834 73.8326 15.9729 73.8078 16.4394 73.6778C16.9059 73.5478 17.3376 73.3158 17.7035 72.9986C17.2258 74.5957 16.2147 75.9808 14.839 76.9225C16.2621 77.1267 17.7138 76.9524 19.048 76.417C20.3822 75.8817 21.5517 75.0042 22.4389 73.873C23.3261 72.7418 23.8996 71.3969 24.1015 69.9735C24.3035 68.5502 24.1269 67.0988 23.5894 65.7654Z" fill="#263238"/>
<path d="M19.7571 74.4897C19.5934 73.9541 19.5226 73.3945 19.5478 72.8351C19.5259 70.1144 20.4196 67.4654 22.0853 65.3142C22.3998 64.8516 22.7939 64.4486 23.2494 64.1239C22.0992 65.5925 21.1816 67.2291 20.5288 68.9765C19.5151 71.9195 19.8814 74.4962 19.7571 74.4897Z" fill="#01C09A"/>
<path d="M44.2164 59.8141C44.7199 62.0573 48.1403 64.9283 49.6249 66.6745C52.4763 70.0033 53.0387 71.1085 53.0126 78.5575C54.3598 75.9873 55.3931 73.4629 55.2884 70.5657C55.2249 67.631 54.0897 64.8209 52.097 62.6655C51.0998 61.6139 49.8715 60.8088 48.5094 60.3139C47.1473 59.819 45.6887 59.6479 44.2491 59.8141" fill="#263238"/>
<path d="M67.5704 121.08C67.5704 121.08 61.6322 111.185 59.9841 109.184C58.6608 107.637 56.9978 106.417 55.1249 105.62C54.3853 105.3 53.6103 105.07 52.8164 104.933L44.2752 103.043C44.2752 103.043 44.2752 108.87 38.1604 109.23C32.0456 109.589 26.9183 101.081 26.9183 101.081C26.9183 101.081 17.0496 102.611 14.6952 103.828C12.3408 105.044 8.62614 106.581 6.58568 116.777L5.15344 126.77L22.1572 128.339L23.7857 153.61L32.2156 159.496C32.2156 159.496 55.5958 165.571 57.0673 165.97C58.5388 166.369 59.0293 128.352 59.0293 128.352C59.0293 128.352 65.0852 124.487 67.5704 121.08Z" fill="#AB0000"/>
<path d="M56.374 116.829C56.5118 117.06 56.6237 117.306 56.7076 117.562C56.8972 118.039 57.1457 118.739 57.4204 119.615C58.8501 124.207 59.4394 129.019 59.16 133.82C59.1077 134.735 59.0358 135.474 58.9573 135.985C58.94 136.25 58.8939 136.513 58.82 136.769C58.7887 136.504 58.7887 136.236 58.82 135.971C58.8527 135.461 58.8919 134.722 58.9115 133.807C58.9753 131.426 58.866 129.043 58.5845 126.678C58.2896 124.317 57.8218 121.98 57.185 119.687C56.943 118.804 56.7272 118.091 56.5702 117.607C56.4776 117.356 56.4119 117.095 56.374 116.829Z" fill="#455A64"/>
<path d="M55.635 158.22L23.5894 151.249L22.1114 128.359L7.87402 127.051C7.87402 127.051 8.40376 142.694 8.94657 147.325C9.7379 154.015 13.688 163.145 16.0031 164.982C18.3183 166.82 57.0411 165.983 57.0411 165.983L55.635 158.22Z" fill="#FFBE9D"/>
<path d="M73.8226 162.367C73.716 162.588 73.5458 162.772 73.3336 162.895C73.1215 163.019 72.8772 163.076 72.6323 163.06C72.5279 163.053 72.4247 163.033 72.3249 163.001C71.6121 162.772 71.6709 161.327 71.6709 161.327L68.2832 160.777C68.2832 160.777 63.8688 163.622 62.2992 165.506C60.7297 167.389 56.7272 165.865 56.7272 165.865L55.3408 158.632L61.5864 152.988C61.5864 152.988 61.2071 153.322 61.6387 152.269C62.0703 151.216 64.0258 151.615 64.0258 151.615C64.3331 151.092 65.615 150.909 65.615 150.909L71.0954 151.563C71.6522 151.627 72.1874 151.816 72.6617 152.115C73.1359 152.413 73.5371 152.815 73.8356 153.289L76.1573 156.958C76.1573 156.958 77.3803 159.574 77.1841 160.228C77.0967 160.491 76.9135 160.711 76.671 160.844C76.4285 160.977 76.1446 161.014 75.8761 160.947C75.8761 160.947 75.608 162.687 75.1502 162.746C74.6826 162.721 74.2236 162.611 73.7964 162.419L73.8226 162.367Z" fill="#FFBE9D"/>
<path d="M62.175 157.174C62.175 157.233 62.9075 157.174 64.0781 157.213C65.5983 157.287 67.1012 157.568 68.5449 158.05C69.3395 158.317 70.1115 158.647 70.8535 159.038C71.5075 159.41 72.2007 159.692 72.4165 160.195C72.4652 160.3 72.4854 160.415 72.4751 160.53C72.4648 160.645 72.4242 160.755 72.3576 160.849C72.2585 161.004 72.1148 161.125 71.9456 161.196C71.7903 161.25 71.6261 161.275 71.4617 161.268C71.4617 161.268 71.6317 161.418 71.9849 161.327C72.1981 161.269 72.385 161.139 72.5146 160.96C72.6088 160.841 72.6704 160.7 72.6933 160.549C72.7162 160.399 72.6997 160.246 72.6454 160.104C72.506 159.789 72.279 159.521 71.9914 159.332C71.6906 159.142 71.3766 158.94 71.03 158.75C70.2789 158.338 69.4934 157.992 68.6822 157.717C67.2074 157.218 65.661 156.964 64.1043 156.965C63.4542 156.932 62.803 157.003 62.175 157.174Z" fill="#EB996E"/>
<path d="M61.7826 160.666C61.7826 160.771 64.0192 160.666 66.7595 160.836C69.4997 161.006 71.6971 161.333 71.7167 161.229C71.2595 161.049 70.7798 160.932 70.291 160.882C69.1288 160.685 67.9562 160.554 66.7791 160.49C65.6006 160.424 64.4195 160.424 63.241 160.49C62.7491 160.481 62.2583 160.54 61.7826 160.666Z" fill="#EB996E"/>
<path d="M73.7899 162.229C73.8381 162.039 73.8623 161.843 73.8618 161.647C73.8952 161.111 73.8952 160.574 73.8618 160.038C73.8432 159.664 73.7929 159.292 73.7114 158.927C73.6128 158.498 73.4306 158.094 73.1751 157.736C72.6352 156.908 71.9374 156.195 71.1216 155.637C70.3161 155.079 69.4353 154.639 68.5056 154.329C67.7345 154.111 66.9392 153.99 66.1382 153.969C65.4842 153.969 64.9218 153.969 64.5424 153.969C64.3443 153.956 64.1454 153.976 63.9539 154.028C64.6735 154.131 65.3984 154.192 66.1251 154.211C66.9015 154.263 67.6695 154.404 68.4141 154.63C69.3062 154.955 70.1525 155.395 70.9319 155.938C71.7034 156.479 72.3685 157.157 72.8939 157.939C73.3241 158.575 73.5707 159.317 73.6068 160.084C73.7506 161.386 73.7179 162.229 73.7899 162.229Z" fill="#EB996E"/>
<path d="M65.8831 152.289C65.8831 152.341 66.7006 152.367 68.0086 152.517C69.3166 152.668 71.2786 152.799 72.4361 154.538C73.5499 155.836 74.4787 157.282 75.196 158.835C75.4334 159.502 75.6085 160.189 75.7192 160.889C75.7577 160.696 75.7577 160.499 75.7192 160.306C75.6857 159.775 75.5778 159.251 75.3987 158.75C74.7358 157.136 73.8147 155.641 72.6716 154.322C72.3663 153.919 72.0102 153.556 71.6121 153.243C71.2195 152.959 70.7752 152.755 70.3041 152.642C69.5451 152.438 68.7671 152.313 67.9824 152.269C67.2843 152.192 66.5797 152.199 65.8831 152.289Z" fill="#EB996E"/>
<path d="M63.4829 164.342C63.5989 164.268 63.7083 164.185 63.8099 164.093L64.7255 163.354C65.8776 162.459 67.0808 161.631 68.329 160.875H68.2505L71.6382 161.451L71.5205 161.307C71.5097 161.586 71.5316 161.864 71.5859 162.138C71.6304 162.442 71.7648 162.727 71.9717 162.955C72.0959 163.067 72.2507 163.14 72.4165 163.164C72.5743 163.194 72.7361 163.194 72.8939 163.164C73.2232 163.116 73.5234 162.948 73.7375 162.694C73.7948 162.634 73.8453 162.568 73.8879 162.497L73.9206 162.438L73.7244 162.51L73.8291 162.55C73.973 162.609 74.1168 162.661 74.2673 162.707C74.4177 162.752 74.5681 162.792 74.7316 162.824C74.8165 162.831 74.9018 162.831 74.9866 162.824C75.0945 162.831 75.2024 162.811 75.3006 162.765C75.4493 162.648 75.5626 162.492 75.6276 162.314C75.6967 162.164 75.7536 162.009 75.7976 161.85C75.8896 161.534 75.9617 161.213 76.0134 160.889L75.8172 161.026C76.047 161.074 76.2854 161.059 76.5075 160.983C76.7296 160.907 76.9271 160.773 77.0794 160.594C77.2306 160.41 77.3137 160.179 77.3149 159.94C77.2966 159.719 77.2572 159.5 77.1971 159.286C76.9404 158.453 76.6279 157.638 76.2619 156.847L75.0259 154.885L74.2411 153.649C74.0027 153.216 73.7152 152.812 73.3844 152.445C73.0339 152.093 72.6157 151.815 72.1549 151.628C71.7058 151.461 71.2338 151.364 70.7553 151.34L65.5953 150.758H65.5561C65.2457 150.808 64.9411 150.889 64.647 151C64.3332 151.094 64.058 151.287 63.8623 151.55L64.0519 151.491C63.773 151.362 63.4668 151.303 63.1601 151.32C62.8533 151.338 62.5555 151.43 62.2927 151.589C61.835 151.922 61.5234 152.418 61.4229 152.975L61.4621 152.903L57.1588 156.775L56.0013 157.841C55.8586 157.957 55.7292 158.089 55.6154 158.233C55.7689 158.133 55.9133 158.019 56.047 157.893L57.2569 156.88L61.6321 153.099H61.6648V153.054C61.7584 152.568 62.0317 152.136 62.43 151.844C62.6549 151.716 62.9069 151.645 63.1652 151.634C63.4234 151.624 63.6803 151.676 63.9146 151.785L64.0323 151.831L64.1042 151.726C64.2748 151.524 64.5029 151.378 64.7582 151.308C65.0317 151.208 65.3143 151.136 65.6019 151.092H65.5561L70.7161 151.7C71.1633 151.726 71.6041 151.819 72.0241 151.975C72.4415 152.142 72.82 152.393 73.1359 152.714C73.4481 153.064 73.7201 153.448 73.9468 153.858L74.7316 155.101C75.1567 155.755 75.5752 156.409 75.9676 157.063C76.3315 157.833 76.6397 158.629 76.8898 159.443C76.9476 159.633 76.9849 159.828 77.0009 160.025C77.0045 160.195 76.9464 160.36 76.8374 160.49C76.7262 160.62 76.5816 160.717 76.4191 160.771C76.2566 160.826 76.0824 160.834 75.9153 160.797H75.7387V160.96C75.6889 161.271 75.6212 161.579 75.536 161.883C75.4805 162.152 75.3592 162.404 75.1828 162.615C75.1374 162.622 75.091 162.622 75.0455 162.615H74.8362C74.6989 162.615 74.555 162.55 74.4111 162.51L73.9926 162.367L73.8945 162.327L73.6917 162.399V162.438C73.6601 162.494 73.6228 162.547 73.5806 162.595C73.4144 162.794 73.1823 162.926 72.9266 162.968C72.8037 162.994 72.6767 162.994 72.5538 162.968C72.4384 162.957 72.329 162.912 72.2399 162.837C71.9529 162.423 71.823 161.92 71.8737 161.418V161.294H71.7559L68.3552 160.764H68.3159H68.2832C67.0391 161.543 65.8483 162.404 64.719 163.341C64.3266 163.675 64.0323 163.943 63.8361 164.126C63.7109 164.185 63.5925 164.257 63.4829 164.342Z" fill="#EB996E"/>
<path d="M115.358 141.328L73.1947 141.674C71.8214 141.674 70.5199 142.328 70.3106 143.682L65.7327 174.42H43.9809C43.661 174.443 43.3617 174.586 43.1432 174.821C42.9247 175.055 42.8032 175.364 42.8032 175.685C42.8032 176.006 42.9247 176.315 43.1432 176.549C43.3617 176.784 43.661 176.928 43.9809 176.951H113.356L118.098 144.513C118.157 144.118 118.131 143.716 118.02 143.332C117.91 142.949 117.718 142.594 117.458 142.292C117.198 141.99 116.875 141.747 116.513 141.581C116.15 141.414 115.756 141.328 115.358 141.328Z" fill="#E0E0E0"/>
<path d="M115.358 141.328C115.578 141.318 115.798 141.34 116.012 141.393C116.573 141.526 117.079 141.829 117.46 142.261C117.842 142.693 118.081 143.233 118.144 143.806C118.16 144.388 118.107 144.97 117.987 145.539L117.378 149.823C116.45 156.265 115.116 165.551 113.454 176.97V177.081H113.343L46.041 177.121H44.2294C43.9002 177.152 43.5689 177.088 43.2746 176.937C43.0496 176.814 42.8618 176.632 42.7311 176.411C42.6003 176.19 42.5313 175.938 42.5313 175.682C42.5313 175.425 42.6003 175.173 42.7311 174.952C42.8618 174.731 43.0496 174.55 43.2746 174.426C43.5699 174.278 43.9009 174.217 44.2294 174.25H65.7065L65.543 174.393C67.1976 163.387 68.7476 153.119 70.121 143.904C70.1663 143.289 70.4475 142.715 70.9058 142.302C71.3633 141.916 71.9214 141.669 72.5146 141.589C73.0796 141.534 73.6475 141.515 74.215 141.53H75.8696L82.2198 141.491L93.5012 141.419L109.563 141.334H115.345C115.345 141.334 115.22 141.334 114.972 141.334H113.86L109.563 141.393L93.5012 141.57L82.2198 141.687L75.8696 141.746H74.215C73.6628 141.736 73.1104 141.756 72.5604 141.805C72.0171 141.877 71.5062 142.104 71.0889 142.459C70.8854 142.642 70.72 142.863 70.6022 143.11C70.4844 143.357 70.4164 143.625 70.4022 143.898C69.0288 153.113 67.4985 163.38 65.8243 174.387V174.531H44.2425C43.9738 174.497 43.7009 174.542 43.4577 174.662C43.2364 174.789 43.0656 174.988 42.9739 175.226C42.8822 175.464 42.8752 175.727 42.9542 175.97C43.0477 176.215 43.2233 176.421 43.4512 176.552C43.6969 176.671 43.9711 176.718 44.2425 176.689H46.0541L113.356 176.728L113.226 176.839C114.919 165.427 116.293 156.147 117.248 149.705C117.49 148.103 117.705 146.671 117.902 145.435C118.023 144.874 118.082 144.301 118.078 143.728C118.023 143.168 117.797 142.638 117.431 142.211C117.065 141.784 116.576 141.48 116.031 141.341C115.807 141.325 115.582 141.32 115.358 141.328Z" fill="#263238"/>
<path d="M92.4875 161.392C93.9467 161.392 95.1296 160.209 95.1296 158.75C95.1296 157.291 93.9467 156.108 92.4875 156.108C91.0283 156.108 89.8453 157.291 89.8453 158.75C89.8453 160.209 91.0283 161.392 92.4875 161.392Z" fill="white"/>
<path d="M67.4069 176.663C67.4658 176.663 68.8065 168.848 70.4022 159.188C71.998 149.529 73.2471 141.681 73.1882 141.674C73.1294 141.668 71.7821 149.489 70.1864 159.149C68.5907 168.808 67.3546 176.656 67.4069 176.663Z" fill="#263238"/>
</svg>
